<?xml version="1.0" encoding="utf-8"?>
<!-- Generator: Adobe Illustrator 27.5.0, SVG Export Plug-In . SVG Version: 6.00 Build 0)  -->
<svg version="1.1" id="Layer_1" xmlns="http://www.w3.org/2000/svg" xmlns:xlink="http://www.w3.org/1999/xlink" x="0px" y="0px"
	 viewBox="0 0 3500 2000" style="enable-background:new 0 0 3500 2000;" xml:space="preserve">
<rect style="fill:#FFFFFF;" width="3500" height="2000"/>
<g>
	<g>
		<path style="fill:#B75742;" d="M2856.013,1029.582c5.216-23.584,19.859-50.326,46.438-52.97
			c32.934-3.276,65.971,33.75,82.511,58.249c11.76,17.419,18.936,38.941,14.995,59.586c-6.168,32.32-40.506,55.12-73.299,52.435
			c-26.057-2.134-49.33-18.331-63.583-39.768C2848.864,1085.742,2850.618,1053.972,2856.013,1029.582z"/>
		<path style="fill:#F7A491;" d="M2951.405,1142.499l26.143-13.24c0,0,27.646,67.403,31.065,87.084
			c1.241,7.149-3.788,80.737-5.874,95.581c0.698,28.656-9.472,35.192-14.928,44.026c0,0-11.663,6.022-12.127,5.142
			c-0.584-1.074,0.557-2.549,2.356-3.813c0.699-0.479,1.634-0.719,2.39-1.212c0.728-0.486,1.438-1.413,2.088-1.851
			c1.554-1.056,2.682-1.416,2.682-1.416s0.747-1.884,1.902-3.852c0.827-1.428,2.105-3.011,2.287-3.424
			c1.045-2.489-0.17-1.634-0.17-1.634c-1.191,1.946-7.77,9.886-7.77,9.886s-12.525,9.697-12.706,8.704
			c-0.069-0.473,0.274-2.126,2.288-4.714c0.543-0.694,2.054-1.562,2.803-2.393c0.574-0.627,1.088-1.507,1.817-2.231
			c0.772-0.793,1.901-1.272,2.685-2.083c1.191-1.206,1.659-2.83,2.412-3.826c3.058-3.98,4.17-7.049,2.891-5.777
			c-1.896,1.907-4.764,9.662-13.474,15.851c-1.476,1.008-2.468,1.38-2.616,0.764c-0.115-0.477-0.061-2.282,1.037-3.88
			c0.76-1.087,2.324-1.729,3.338-3.115c0.592-0.809,0.933-1.913,1.538-2.784c2.411-3.473,3.489-1.655,5.736-15.189
			c-1.245,0.551-2.36,1.397-2.892,1.836c-0.957,0.824-5.525,8.68-7.181,6.975c-1.645-1.724,7.8-19.85,7.8-19.85l7.867-10.279
			c-1.77-69.832-3.905-86.552-4.36-87.124L2951.405,1142.499z"/>
		<path style="fill:#F7A491;" d="M2904.825,1370.186l-16.809,154.107c0,0,8.215,32.59,7.225,41.849
			c-0.99,9.258-18.271,130.713-18.271,130.713l0.781,6.671l0.419,19.763l-64.593,0.498c0,0,13.614-6.256,32.657-18.619
			c1.408-0.915,6.008-3.936,6.797-9.747c5.084-37.436-6.33-162.197-6.33-162.197l-7.924-162.539L2904.825,1370.186z"/>
		<path style="fill:#B75742;" d="M2883.333,1684.069l-34.787-2.115c0,0-2.037-139.367-6.791-169.633
			c-4.752-30.267-7.522-131.356-2.715-170.338c4.137-33.542,19.504-87.396,19.504-87.396l53.83,11.378l10.865,2.816l-29.198,254.098
			c0,0,2.703,17.16,4.062,34.757C2899.46,1575.233,2883.333,1684.069,2883.333,1684.069z"/>
		<path style="fill:#F7A491;" d="M2955.731,1398.561c3.621,0.939,9.197,133.202,12.197,139.064
			c19.02,37.164,23.539,150.154,23.539,150.154l7.846,15.821l-1.801,15.246c0,0-14.193,8.347-24.152,2.717l1.541-15.267
			l1.176-20.396l-47.982-140.769l-26.255-143.585L2955.731,1398.561z"/>
		<path style="fill:#355389;" d="M2878.481,1728.367h-66.68c-2.467-0.229-3.067-2.297-2.213-3.57
			c1.761-2.624,14.766-8.924,23.51-13.104c15.337,1.658,42.223-4.62,44.645-8.271
			C2879.14,1710.731,2879.853,1728.055,2878.481,1728.367z"/>
		<path style="fill:#355389;" d="M2999.274,1703.559c0,0-5.465,11.8-11.867,11.302c-6.404-0.498-12.466-8.646-12.466-8.646
			s-2.401,11.45-1.28,17.756c1.12,6.306,10.245,12.777,16.488,9.956C2996.393,1731.105,3004.878,1716.502,2999.274,1703.559z"/>
		<path style="fill:#F47458;" d="M2927.429,1237.902c0,0,1.484,12.314,3.056,14.781c4.223,6.635,15.841,27.476,22.322,43.729
			c5.842,14.646,7.725,26.659,9.972,40.208c7.009,42.229,4.754,171.041,4.754,171.041s12.563,27.804,17.654,64.757
			c5.094,36.953,8.842,98.098,8.842,98.098l-25.973,6.863l-52.809-164.086c0,0-25.11-143.683-33.259-162.688
			c-8.148-19.004-23.481-96.162-23.481-96.162L2927.429,1237.902z"/>
		<path style="fill:#F47458;" d="M2967.39,1472.511c-0.008,0.021-0.016,0.02-0.022-0.003L2967.39,1472.511z"/>
		<path style="fill:#F7A491;" d="M2701.198,966.97c0.589-5.479,15.735-9.892,20.189-11.206c4.453-1.314,1.566-0.246,6.506,1.343
			c0.604,0.193,15.567,23.006,15.567,23.006c4.721,7.433,48.01,73.591,62.592,83.635c14.894,10.258,74.245,28.151,74.245,28.151
			l2.714,37.886c0,0-81.94-28.087-99.479-43.144c-14.523-12.47-43.477-72.512-57.279-94.642l-0.016,0.009
			C2722.646,987.375,2700.608,972.448,2701.198,966.97z"/>
		<path style="fill:#F7CC7F;" d="M2910.153,1080.825c36.471,0.521,50.489-5.111,78.771,61.425c4.92,11.572,7.73,19.926,7.806,20.13
			c0,0-24.89,11.183-33.802,14.771c0,0-8.762-26.805-12.371-23.695c-8.148,7.02-21.899,87.654-19.862,98.661
			c0,0-41.435,8.916-72.245,2.457c0,0-4.654-79.982-6.183-83.57c-1.527-3.59-10.862-19.297-3.224-37.077
			c1.364-3.176,4.762-12.679,2.375-13.331c-18.673-5.104-46.852-19.142-46.852-19.142l13.325-33.817c0,0,41.251,9.402,55.256,11.166
			c12.204,1.537,24.519,1.864,36.804,2.021C2910.021,1080.824,2910.087,1080.824,2910.153,1080.825z"/>
		<path style="fill:#F7A491;" d="M2908.743,1051.921c0,0,1.012,23.077,3.945,31.573s-6.164,39.316-24.559,43.813
			s-0.324-36.611-0.629-45.553c-0.304-8.94-6.203-35.432-6.203-35.432L2908.743,1051.921z"/>
		<path style="fill:#F47458;" d="M2884.083,1059.655c-1.439-7.288-2.785-13.333-2.785-13.333l27.445,5.599
			c0,0,0.207,4.719,0.704,10.675C2899.157,1067.354,2890.367,1065.226,2884.083,1059.655z"/>
		<path style="fill:#F7A491;" d="M2903.214,988.888c0,0,10.778,3.004,16.994,13.614c6.215,10.61,9.315,41.084-13.563,54.087
			s-39.118-7.831-38.427-27.32C2868.909,1009.778,2874.388,983.997,2903.214,988.888z"/>
		<path style="fill:#F7A491;" d="M2863.449,1022.919c1.655,4.794,5.263,7.899,8.056,6.935c2.792-0.964,3.713-5.633,2.059-10.427
			c-1.656-4.795-5.262-7.899-8.055-6.935C2862.716,1013.456,2861.794,1018.124,2863.449,1022.919z"/>
		<path style="fill:#B75742;" d="M2899.974,988.086c0,0,12.334,31.872,24.404,35.269c12.07,3.397,11.107,19.074,11.107,19.074
			s1.545-36.237-9.481-45.121C2914.979,988.425,2899.974,988.086,2899.974,988.086z"/>
		<path style="fill:#F7A491;" d="M2919.202,1029.591c-1.861,4.981-0.641,10.04,2.727,11.299c3.367,1.258,7.605-1.761,9.467-6.743
			c1.863-4.981,0.643-10.04-2.727-11.298C2925.303,1021.59,2921.063,1024.609,2919.202,1029.591z"/>
		<path style="fill:#184655;" d="M2634.073,866.149l92.279,110.732l0.08,0.097c1.723,2.066,5.01,2.319,7.344,0.566
			c2.333-1.753,2.829-4.849,1.107-6.916c-0.041-0.047-0.093-0.107-0.134-0.153l-97.462-106.78l-0.033-0.035
			c-0.695-0.762-1.961-0.81-2.825-0.107C2633.589,864.239,2633.438,865.386,2634.073,866.149z"/>
		<path style="fill:#F47458;" d="M2711.946,958.925l13.922,17.628l0.088,0.111c1.766,2.233,4.917,2.724,7.263,1.216
			c-0.32,0.499-0.726,0.955-1.217,1.343c-2.376,1.877-5.823,1.472-7.7-0.904l-0.088-0.111l-14.492-18.348
			C2710.453,959.533,2711.2,959.222,2711.946,958.925z"/>
		<path style="fill:#F7A491;" d="M2712.442,951.084c0,0-14.875,13.185-11.135,18.701c4.135,6.097,9.416,9.382,9.699,7.55
			c0.283-1.832-3.193-10.722-3.193-10.722s4.708-5.961,5.631-9.181C2714.366,954.212,2715.057,950.886,2712.442,951.084z"/>
		<path style="fill:#F7A491;" d="M2719.397,958.12c0,0,9.357,4.028,9.891,2.872c0.532-1.156-1.395-3.885-1.395-3.885
			s-12.596-9.565-13.055-6.133C2714.379,954.407,2719.397,958.12,2719.397,958.12z"/>
		<path style="fill:#F7A491;" d="M2702.853,955.766c0,0,8.087-9.172,8.403-6.111c0.382,3.692-6.366,14.387-9.676,14.387
			C2698.27,964.041,2698.27,960.858,2702.853,955.766z"/>
	</g>
	<path style="fill:#F7A491;" d="M2010.098,690.401c-8.697-3.536-12.142-9.413-21.489-11.536
		c-0.641,8.585-18.152,56.684-19.684,59.11c-6.205,9.831-16.068,12.978-16.068,12.978s33.746,46.22,37.164,42.41
		c3.417-3.81-1.07-4.142-0.797-19.008c0.024-1.319-5.479-19.665,4.304-42.124C2001.906,712.991,2007.404,701.736,2010.098,690.401z"
		/>
	<path style="fill:#355389;" d="M1951.405,751.566l38.947,47.12c1.596,1.614,3.356,0.874,3.726-0.449
		c0.76-2.722-2.541-15.462-4.798-23.996c-10.088-9.904-21.38-32.579-20.305-36.347
		C1963.177,741.026,1950.817,750.421,1951.405,751.566z"/>
	<path style="fill:#B75742;" d="M1914.991,479.801l32.188,51.646c0,0,86.233,38.17,101.866,66.869
		c15.635,28.699-55.307,140.76-55.307,140.76s-8.48-1.698-14.733-4.08c-4.76-1.813-10.2-6.347-10.2-6.347l31.734-110.84
		l-102.219-45.82L1914.991,479.801z"/>
	<g>
		<path style="fill:#B75742;" d="M1191.436,1153.42l-94.563-201.15c-55.546,26.113-79.406,92.311-53.294,147.856
			C1069.692,1155.674,1135.89,1179.534,1191.436,1153.42z"/>
		<g>
			<path style="fill:#F47458;" d="M1109.323,1132.197l19.801-69.2l-62.282,29.279
				C1075.987,1110.231,1090.854,1124.175,1109.323,1132.197z"/>
			<path style="fill:#F47458;" d="M1140.092,1069.346l-19.161,66.964c16.527,4.59,33.947,4.212,50.135-1.079L1140.092,1069.346z"/>
			<path style="fill:#F47458;" d="M1125.741,1051.006c-22.67-10.313-42.652-19.097-63.351-26.725
				c-6.506,18.489-6.592,38.208-0.254,56.626L1125.741,1051.006z"/>
			<path style="fill:#F47458;" d="M1067.271,1012.98c19.022,7.035,37.38,14.992,57.688,24.175l-27.076-57.595
				C1084.958,987.738,1074.35,999.321,1067.271,1012.98z"/>
		</g>
		<path style="fill:#F7CC7F;" d="M1140.936,1103.697c2.586,0.396,5.056-1.718,5.518-4.724c0.461-3.005-1.637-11.587-4.245-11.791
			s-4.658,7.349-5.119,10.354C1136.627,1100.542,1138.35,1103.3,1140.936,1103.697z"/>
		<path style="fill:#F7CC7F;" d="M1156.672,1130.367c2.501-0.77,3.804-3.749,2.91-6.655c-0.894-2.905-6.521-9.718-8.958-8.765
			s-0.992,8.644-0.098,11.549C1151.419,1129.403,1154.171,1131.136,1156.672,1130.367z"/>
		<path style="fill:#F7CC7F;" d="M1092.735,1121.879c2.328,1.193,5.34-0.031,6.728-2.736c1.388-2.705,2.11-11.511-0.3-12.528
			s-6.743,5.499-8.13,8.204C1089.645,1117.523,1090.407,1120.685,1092.735,1121.879z"/>
		<path style="fill:#F7CC7F;" d="M1092.155,1096.4c1.002,2.418,4.092,3.432,6.9,2.266c2.809-1.165,9.055-7.412,7.877-9.748
			c-1.18-2.335-8.699-0.167-11.507,0.997C1092.616,1091.082,1091.152,1093.984,1092.155,1096.4z"/>
		<path style="fill:#F7CC7F;" d="M1071.056,1065.336c1.002,2.417,4.092,3.432,6.901,2.266c2.807-1.166,9.055-7.413,7.875-9.748
			c-1.179-2.335-8.698-0.168-11.507,0.998C1071.517,1060.016,1070.053,1062.92,1071.056,1065.336z"/>
		<path style="fill:#F7CC7F;" d="M1092.343,1052.27c-0.55,2.557,1.413,5.15,4.386,5.789c2.973,0.64,11.664-0.943,12.023-3.535
			c0.359-2.592-7.058-5.087-10.03-5.727C1095.749,1048.157,1092.893,1049.713,1092.343,1052.27z"/>
		<path style="fill:#F7CC7F;" d="M1081.501,1007.937c-1.483,2.156-0.656,5.3,1.849,7.024c2.504,1.724,11.144,3.572,12.463,1.313
			c1.319-2.26-4.587-7.393-7.091-9.117C1086.217,1005.433,1082.984,1005.782,1081.501,1007.937z"/>
		<path style="fill:#F7CC7F;" d="M1100.244,1009.162c-2.306,1.236-3.011,4.41-1.575,7.09c1.436,2.681,8.269,8.281,10.477,6.877
			c2.208-1.403-0.69-8.672-2.126-11.353C1105.583,1009.097,1102.55,1007.926,1100.244,1009.162z"/>
	</g>
	<ellipse style="fill:#9BC1F9;" cx="1733.366" cy="1519.933" rx="997.383" ry="118.32"/>
	<path style="fill:#3C8F7C;" d="M1914.493,1487.246c0,0,126.475-78.683,141.934-106.273c15.459-27.592-3.633-34.253-5.571-48.277
		c-2.462-17.826,1.675-23.943,20.742-37.612c19.066-13.669,55.581-24.089,66.566-50.117c10.985-26.028-11.45-104.62-11.45-104.62
		l-18.734-8.003l19.263-12.036c0,0,25.674-139.981,8.392-164.311c0,0-36.986,30.997-59.574,66.919
		c-22.587,35.921-37.894,36.441-37.894,36.441l18.134,17.681l-20.4-12.24c0,0-31.938,36.673-32.603,74.28
		c-0.666,37.607-8.522,43.855-8.522,43.855l22.93,15.349l-27.458-6.759c0,0-16.227,34.32-34.944,47.245
		c-24.387,16.841-55.547,40.078-56.713,94.212C1897.422,1387.112,1914.493,1487.246,1914.493,1487.246z"/>
	<g>
		<path style="fill:#50BFA5;" d="M2047.813,1470.37c0,0,174.421-50.576,201.914-79.211c27.494-28.635,7.534-44.158,10.095-62.407
			c3.254-23.199,10.178-29.279,37.094-39.161c26.916-9.881,73.048-9.121,94.791-37.492c21.744-28.37,22.602-135.01,22.602-135.01
			l-36.73-15.597l44.23-9.237c0,0,72.914-137.324,61.133-174.236c0,0-62.077-2.907-100.74,33.444
			c-38.664,36.352-38.664,36.352-38.664,36.352l18.904,35.144l-29.875-23.116c0,0-47.949,22.373-61.646,69.1
			c-13.695,46.728-24.998,51.569-24.998,51.569l21.447,27.824l-29.676-18.803c0,0-20.949,45.62-56.953,45.836
			s-89.125,4.1-109.084,71.282C2051.697,1313.836,2047.813,1470.37,2047.813,1470.37z"/>
		<path style="fill:#3C8F7C;" d="M2249.727,1391.159c27.494-28.635,7.534-44.158,10.095-62.407
			c3.254-23.199,10.178-29.279,37.094-39.161c26.916-9.881,73.047-9.121,94.791-37.492c21.744-28.37,22.602-135.01,22.602-135.01
			l-36.73-15.597l44.23-9.237c0,0,72.914-137.324,61.133-174.236c0,0-63.632,83.755-122.111,129.994
			c-58.48,46.24-5.44,91.12-59.84,144.16c-54.4,53.04-55.761,20.4-123.761,65.28c-68,44.88-129.416,212.917-129.416,212.917
			S2222.233,1419.794,2249.727,1391.159z"/>
	</g>
	<path style="fill:#50BFA5;" d="M2168.163,1587.233c0,0,212.595-28.827,247.402-48.424c34.809-19.597,11.818-31.821,16.039-44.999
		c5.363-16.75,14.059-20.861,46.995-26.823c32.937-5.961,88.825-6.256,116.714-25.925c27.888-19.668,40.346-92.025,40.346-92.025
		l-36.039-14.734l41.324-5.333c0,0-11.82-53.866,84.338-124.12c0,0-74.352-4.972-123.055,19.733
		c-48.703,24.704-48.703,24.704-48.703,24.704l20.489,26.472l-34.417-18.213c0,0-58.975,14.095-78.354,47.506
		c-19.379,33.411-33.252,36.419-33.252,36.419l24.004,21.255l-34.45-15.062c0,0-28.019,32.271-71.26,30.773
		s-107.266-1.111-135.446,46.914C2182.657,1473.377,2168.163,1587.233,2168.163,1587.233z"/>
	<path style="fill:#466EB6;" d="M1097.743,1645.131c-0.028,0.305-0.047,0.609-0.047,0.914c0,43.24,283.381,78.294,632.95,78.294
		c349.568,0,632.95-35.054,632.95-78.294c0-0.305-0.019-0.609-0.046-0.914H1097.743z"/>
	<path style="fill:#355389;" d="M825.81,1504.973c-0.04,0.75-0.067,1.499-0.067,2.25c0,106.391,406.357,192.637,907.623,192.637
		c501.266,0,907.623-86.246,907.623-192.637c0-0.751-0.027-1.5-0.067-2.25H825.81z"/>
	<path style="fill:#466EB6;" d="M2561.96,1499.377c0,36.488-373.885,66.068-835.096,66.068
		c-271.422,0-512.598-10.247-665.128-26.111c-8.67-0.904-17.047-1.822-25.133-2.768c-72.78-8.432-121.496-18.272-138.312-28.9
		c-0.021-0.007-0.034-0.021-0.054-0.041c-4.264-2.699-6.461-5.453-6.461-8.248c0-7.317,15.049-14.361,42.84-20.938
		c21.277-5.045,50.028-9.811,85.204-14.231c147.839-18.558,409.231-30.894,707.044-30.894
		C2188.075,1433.314,2561.96,1462.895,2561.96,1499.377z"/>
	<g>
		<path style="fill:#50BFA5;" d="M1848.165,1511.006c0,0-53.077-70.807-46.402-95.438c6.675-24.631,21.47-22.376,29.745-28.95
			c10.521-8.357,3.731-19.203,1.351-38.331c-2.382-19.128,3.289-42.526,11.379-63.579c8.092-21.052,41.797-55.392,41.797-55.392
			l17.534,18.116l-7.352-29.512c0,0,47.854-82.184,69.15-85.138c0,0,18.115,37.059,10.652,70.621
			c-7.463,33.563-7.463,33.563-7.463,33.563l-16.976,8.938l16.481-2.692c0,0,9.475,43.308-9.796,64.495
			c-19.271,21.186-14.008,28.899-14.008,28.899l4.266,7.298c0,0-12.635,19.61-3.063,41.625c9.571,22.016-3.326,57.71-30.961,88.334
			C1886.864,1504.488,1848.165,1511.006,1848.165,1511.006z"/>
	</g>
	<path style="fill:#184655;" d="M1935.392,1388.144c25.559,18.481,22.721,66.042-6.338,106.229
		c-29.059,40.189-73.335,57.788-98.894,39.307c-25.559-18.48-22.722-66.041,6.337-106.23
		C1865.556,1387.261,1909.833,1369.663,1935.392,1388.144z"/>
	<g>
		<g>
			<path style="fill:#50BFA5;" d="M1146.71,1598.303c0,0,33.455-229.438,12.887-289.313c-20.568-59.877-50.111-18.928-50.111-18.928
				s-17.85-127.403-52.456-138.704c-34.605-11.301-33.346,49.199-33.346,49.199s-66.973-126.408-91.374-111.257
				c-45.448,28.222,20.982,170.323,20.982,170.323s-37.247-48.625-54.525-18.153c-26.059,45.953,77.938,125.095,77.938,125.095
				L1146.71,1598.303z"/>
		</g>
		<path style="fill:#3C8F7C;" d="M929.843,1377.235c-14.583-37.266,20.323-23.666,20.323-23.666s-77.457-66.146-51.398-112.099
			c17.278-30.472,54.525,18.153,54.525,18.153s-66.43-142.102-20.982-170.323l213.048,506.448
			C1119.398,1577.699,952.422,1434.932,929.843,1377.235z"/>
	</g>
	<g>
		<path style="fill:#86B1F2;" d="M2093.204,1256.095c-20.533-9.958-29.854-34.372-21.218-55.581
			c22.632-55.583,34.106-114.666,34.106-175.604c0-285.646-255.547-507.14-541.943-461.055
			c-38.006,6.116-64.068-35.985-43.061-67.184c6.661-9.892,17.219-16.653,28.967-18.549c29.422-4.75,59.412-7.159,89.136-7.159
			c72.514,0,143.176,13.892,210.022,41.29c68.076,27.902,129.151,68.606,181.526,120.981
			c159.043,159.043,204.654,395.705,121.71,600.001C2142.851,1256.875,2115.61,1266.965,2093.204,1256.095z"/>
	</g>
	<g>
		<path style="fill:#466EB6;" d="M1510.16,1207.447c-115.602-74.025-169.295-213.32-137.663-344.144
			c5.667-23.441,30.313-36.336,52.658-28.299c19.343,6.956,30.293,27.27,25.468,47.253c-17.318,71.734-1.06,146.143,44.607,204.145
			c83.033,105.465,233.039,120.759,335.081,41.004c7.078-5.533,15.91-8.58,24.869-8.58c18.268,0,29.018,12.46,29.227,12.605
			c0.185,0.304,12.138,11.68,10.864,30.35c-0.771,11.322-6.328,21.82-15.244,28.806
			C1770.683,1276.242,1622.681,1279.501,1510.16,1207.447z"/>
	</g>
	<g>
		<path style="fill:#F7CC7F;" d="M2518.05,1465.695c0,0-15.77,94.631-139.793,81.061c-126.602-13.854-167.564,29.566-275.113,24.885
			c-86.657-3.772-198.757-121.864-154.817-268.539C1992.267,1156.428,2498.608,1104.3,2518.05,1465.695z"/>
		<path style="fill:#F47458;" d="M2517.842,1459.379c0.731,7.201-0.229,14.493-2.699,21.296
			c-9.315,25.642-41.004,82.228-137.497,71.668c-126.602-13.853-167.049,24.856-274.521,19.478
			c-86.596-4.335-199.834-112.018-157.524-243.793C1987.507,1197.502,2485.736,1143.528,2517.842,1459.379z"/>
		<path style="fill:#FAE0B2;" d="M1945.599,1328.027c44.177-120.268,487.582-169.545,562.692,87.204
			c4.237,14.415,7.349,29.189,9.551,44.147c-6.425-93.285-56.88-167.906-154.601-209.262
			c-143.84-59.866-326.967-22.865-392.941,40.147C1959.151,1300.6,1949.89,1313.467,1945.599,1328.027z"/>
		<path style="fill:#F48C7F;" d="M2048.03,1521.798c0,0-79.645-39.053-82.461-108.021c-2.817-68.969,58.031-127.777,109.568-139.702
			c51.537-11.924-10.141,14.858-32.123,101.871C2021.032,1462.957,2090.212,1523.221,2048.03,1521.798z"/>
		<path style="fill:#F48C7F;" d="M2458.755,1462.761c23.592-0.743,41.561-21.847,38.043-45.185
			c-2.872-19.053-14.338-43.242-45.076-70.359c-74.385-65.622-297.021-119.75-316.246-71.044s99.052,60.973,115.17,131.734
			C2263.123,1462.695,2398.342,1464.664,2458.755,1462.761z"/>
		<path style="fill:#F48C7F;" d="M2452.085,1491.085c13.739,2.793,19.998,18.956,11.602,30.185
			c-10.16,13.585-29.121,26.814-64.038,22.994c-67.171-7.352-143.483-1.287-204.849,6.368
			c-61.365,7.656-109.936,8.728-107.69-11.783c2.245-20.513,117.788-52.461,142.206-69.861
			C2252.326,1452.588,2395.597,1479.602,2452.085,1491.085z"/>
	</g>
	<g>
		<path style="fill:#F7A491;" d="M1602.334,987.088l-15.195,46.009l-44.181-67.111l0.014-0.055c0,0-16.488-8.745-20.646-9.606
			c-3.712-0.769-15.642-2.104-17.548-0.139c-0.09-0.139-0.207-0.246-0.373-0.292c-1.577-0.43-4.588,4.875-5.018,6.165
			c-0.43,1.29,2.724,8.89,3.011,9.463c0.287,0.574-0.86,0.86-2.294,0.286c-1.434-0.573-5.878-5.878-5.878-5.878
			s-0.287-8.458-3.011-8.458c-2.724,0-0.43,10.609-0.43,10.609l2.581,3.584l-3.871-2.438c0,0-2.581-5.734-3.298-5.448
			c-0.717,0.287-1.72,3.154-0.286,6.165c1.434,3.011,4.587,6.308,4.587,6.308l5.878,3.154c0,0-6.882-0.717-8.889-2.294
			c-2.008-1.577-2.868,0.574-1.291,2.438c1.577,1.864,10.61,5.162,16.345,5.878c5.735,0.717,23.656,0.573,26.237,0.143
			c2.101-0.35,6.005-0.889,7.927,0.236c2.417,7.487,23.138,88.493,49.73,98.363c0,0,12.382-1.407,27.015-33.206
			c14.633-31.799,22.513-50.934,22.513-50.934L1602.334,987.088z M1519.459,969.229c-2.007,0.717-9.176,1.003-11.04,0.287
			c-1.864-0.717-4.589-8.029-4.589-8.029s0.892-2.146,1.103-3.787c2.06,2.324,10.965,1.462,12.948,2.783
			C1520.032,961.917,1521.466,968.513,1519.459,969.229z"/>
		<path style="fill:#F7A491;" d="M1763.143,1000.033c0,0,7.879,19.135,22.512,50.934c14.634,31.799,27.016,33.206,27.016,33.206
			c26.592-9.87,47.313-90.876,49.729-98.363c1.922-1.126,5.827-0.586,7.927-0.236c2.581,0.43,20.503,0.574,26.237-0.143
			c5.735-0.717,14.768-4.015,16.345-5.878c1.576-1.864,0.717-4.014-1.291-2.438c-2.007,1.577-8.889,2.294-8.889,2.294l5.879-3.154
			c0,0,3.153-3.297,4.587-6.308c1.434-3.011,0.431-5.878-0.286-6.165c-0.717-0.286-3.298,5.448-3.298,5.448l-3.87,2.438l2.58-3.584
			c0,0,2.293-10.609-0.431-10.609c-2.724,0-3.011,8.458-3.011,8.458s-4.444,5.305-5.878,5.878c-1.434,0.574-2.581,0.288-2.294-0.286
			c0.287-0.573,3.441-8.172,3.011-9.463c-0.431-1.29-3.44-6.595-5.018-6.165c-0.166,0.045-0.282,0.153-0.373,0.292
			c-1.906-1.966-13.836-0.63-17.548,0.139c-4.158,0.86-20.646,9.606-20.646,9.606l0.014,0.055l-44.181,67.111l-15.195-46.009
			L1763.143,1000.033z M1881.224,960.483c1.982-1.321,10.888-0.459,12.947-2.783c0.212,1.641,1.104,3.787,1.104,3.787
			s-2.725,7.312-4.588,8.029c-1.864,0.717-9.033,0.43-11.039-0.287C1877.64,968.513,1879.073,961.917,1881.224,960.483z"/>
		<path style="fill:#13375B;" d="M1689.147,1117.231c0,0-19.965-10.776-47.308-19.398c-36.627-11.55-86.087-19.637-114.637,3.344
			c-16.79,13.515,154.134,34.679,154.134,34.679L1689.147,1117.231z"/>
		<path style="fill:#13375B;" d="M1874.304,1115.906c0,0-15.885-24.193-57.818-24.363c-16.334-0.066-39.021,2.788-59.717,6.511
			c-36.919,6.641-71.827,18.276-71.827,18.276l-3.605,19.525L1874.304,1115.906z"/>
		<polygon style="fill:#13375B;" points="1635.258,1145.8 1709.126,1183.367 1768.222,1137.779 1749.826,1095.604 1644.089,1100.41 
					"/>
		<path style="fill:#184655;" d="M1656.104,881.124c-8.047-17.141-7.935-49.265-1.071-68.008
			c5.555-15.167,18.371-23.644,34.712-25.136c18.954-1.731,30.952,2.192,45.528,12.079c15.175,10.294,33.334,21.482,50.9,26.212
			c22.908,6.169,46.584,10.831,67.449,22.124c13.771,7.455,26.511,18.397,31.812,33.132c7.585,21.09-1.933,45.055-16.912,61.727
			c-22.596,25.146-57.907,38.231-91.433,33.879c-26.091-3.387-50.519-17.247-67.339-37.399
			c-7.582-9.084-13.335-15.847-22.441-23.254C1675.646,906.992,1662.585,894.93,1656.104,881.124z"/>
		<path style="fill:#F47458;" d="M1754.995,905.2c0,0-29.044-3.41-57.699-4.825c-25.57-1.262-53.033,2.996-54.862,4.825
			c-7.287,7.287-10.975,70.914-7.176,82.733c3.799,11.818,21.95,42.632,18.15,62.471c-3.799,19.839-11.423,47.453-11.423,47.453
			s24.079,14.325,54.778,14.634c18.419,0.185,43.978-3.039,60-14.453c0,0-8.802-24.84-7.536-44.256
			c1.267-19.417,11.819-52.342,17.307-64.161C1772.021,977.802,1764.704,907.311,1754.995,905.2z"/>
		<path style="fill:#F47458;" d="M1653.831,910.688l-10.869-5.757c0,0-12.491,3.329-19.1,12.511
			c-5.431,7.544-30.392,76.401-30.392,76.401s32.924,13.508,43.477,13.085l16.884-42.21V910.688z"/>
		<path style="fill:#F47458;" d="M1743.317,910.688l11.865-5.482c0,0,7.461,1.652,16.873,12.967
			c5.944,7.147,31.623,75.67,31.623,75.67s-32.925,13.508-43.478,13.085l-16.884-42.21V910.688z"/>
		<path style="fill:#F7A491;" d="M1710.775,863.852c0,0,1.502,28.462,3.154,37.549c1.707,9.39,3.459,52.451-16.071,57.225
			c-19.53,4.774-13.795-48.858-14.118-58.351c-0.323-9.493-4.209-42.086-4.209-42.086L1710.775,863.852z"/>
		<path style="fill:#F47458;" d="M1679.531,858.188c0,0,0.784,6.577,1.677,14.679c7.184,5.634,17.117,7.177,28.641,0.628
			c0.498-0.283,0.967-0.586,1.443-0.885c-0.323-5.101-0.517-8.757-0.517-8.757L1679.531,858.188z"/>
		<path style="fill:#F7A491;" d="M1702.802,797.204c0,0,11.444,3.19,18.044,14.456c6.599,11.266,9.891,43.621-14.401,57.428
			c-24.293,13.806-41.535-8.314-40.8-29.008C1666.379,819.386,1672.195,792.012,1702.802,797.204z"/>
		<path style="fill:#F7A491;" d="M1660.581,833.338c1.758,5.091,5.587,8.387,8.552,7.363c2.965-1.024,3.944-5.98,2.187-11.071
			c-1.758-5.091-5.586-8.387-8.552-7.363C1659.802,823.291,1658.824,828.248,1660.581,833.338z"/>
		<path style="fill:#184655;" d="M1699.362,796.353c0,0,13.096,33.841,25.912,37.448c12.816,3.607,11.792,20.253,11.792,20.253
			s1.641-38.477-10.066-47.909C1715.294,796.713,1699.362,796.353,1699.362,796.353z"/>
		<path style="fill:#F7A491;" d="M1719.778,840.422c-1.976,5.29-0.68,10.661,2.896,11.997c3.575,1.336,8.076-1.87,10.052-7.159
			c1.976-5.29,0.681-10.661-2.895-11.997C1726.255,831.927,1721.754,835.132,1719.778,840.422z"/>
		<path style="fill:#F7A491;" d="M1572.449,1160.755c0,0-8.477-7.233-18.629-10.116c-10.151-2.881-10.081,4.598-12.903,16.082
			c-2.822,11.485-7.368,18.969-13.147,30.053c-5.78,11.084,0.623,36.663,3.749,37.047c7.553,0.928,11.339-15.209,18.738-28.905
			c7.399-13.695,27.443-17.994,33.272-18.512c1.048-0.093,27.084-3.761,61.88-2.891c-7.061-14.022-17.416-25.536-28.041-37.816
			C1590.787,1154.402,1572.449,1160.755,1572.449,1160.755z"/>
		<path style="fill:#355389;" d="M1879.669,1128.773c-3.244-18.006-18.155-25.592-35.529-25.444
			c-40.037,0.341-153.316,24.177-220.845,44.087c3.767,14.527,0.524,23.914,5.058,38.873c71.21-2.557,204.904-11.328,243.885-32.904
			C1878.309,1150.023,1881.238,1137.479,1879.669,1128.773z"/>
		<path style="fill:#F7A491;" d="M1831.615,1206.597c-4.856-11.518-9.806-19.146-11.683-30.822
			c-2.221-13.815-0.938-21.491-17.947-15.257c-9.766,3.578-20.502,3.443-30.057-0.666c-6.274-2.699-14.03-6.014-22.841-9.73
			c-5.898,11.905-9.746,24.556-10.915,38.096c20.968,2.525,36.241,4.908,37.017,5.003c3.372,0.408,26.063,5.607,32.321,19.86
			c6.258,14.252,8.874,31.906,16.32,30.336C1828.159,1242.503,1836.472,1218.114,1831.615,1206.597z"/>
		<path style="fill:#86B1F2;" d="M1567.606,1092.223c-15.735-0.709-43.002,1.789-47.38,19.497
			c-2.117,8.563-1.596,20.684,1.773,28.868c4.203,10.214,14.191,15.91,24.124,20.373c18.935,8.414,136.85,22.995,197.603,30.315
			c7.411-12.883,13.601-27.238,13.374-39.894C1698.749,1126.766,1597.753,1093.583,1567.606,1092.223z"/>
	</g>
	<g>
		<path style="fill:#3C8F7C;" d="M1235.293,1497.17l-0.315-1.681c-0.75-3.576,0.591-7.388,3.47-9.747c0,0,0.077-0.014,0.062-0.092
			c2.554-1.981,4.04-5.028,3.91-8.247l0.004-1.661c-0.129-3.219-1.787-6.151-4.356-8.042c-0.077,0.015-0.091-0.062-0.167-0.048
			c-3.009-2.124-4.504-5.878-3.927-9.545l0.234-1.704c0.5-3.655,2.993-6.812,6.574-7.958l0.077-0.015
			c3.047-1.046,5.53-3.41,6.541-6.448l0.492-1.594c1.012-3.038,0.534-6.429-1.296-9.012c-0.091-0.063-0.091-0.063-0.105-0.139
			c-2.16-3.074-2.279-7.086-0.518-10.344l0.826-1.499c1.761-3.257,5.171-5.321,8.905-5.231c0.077-0.014,0.077-0.014,0.153-0.028
			c3.185,0.114,6.251-1.252,8.308-3.773l1.022-1.299c1.982-2.509,2.616-5.87,1.799-8.96c-0.014-0.076-0.014-0.076-0.029-0.153
			c-0.903-3.548,0.347-7.42,3.136-9.842l1.218-1.099c2.773-2.498,6.732-3.32,10.162-1.907c0.076-0.015,0.076-0.015,0.167,0.048
			c2.99,1.179,6.347,0.944,9.036-0.746l1.489-0.912c2.688-1.691,4.445-4.552,4.712-7.767c0.063-0.091,0.063-0.091,0.048-0.167
			c0.333-3.701,2.826-6.858,6.288-8.22l1.547-0.606c3.462-1.361,7.45-0.765,10.211,1.723l0.09,0.062
			c2.383,2.163,5.635,3.056,8.768,2.468l1.667-0.393c3.195-0.678,5.812-2.751,7.157-5.693l0.062-0.091
			c1.581-3.381,4.976-5.521,8.757-5.599l1.648-0.071c3.706-0.063,7.235,1.886,9.026,5.108c0.014,0.076,0.014,0.076,0.029,0.153
			c1.553,2.793,4.303,4.808,7.47,5.242l1.628,0.247c3.257,0.496,6.365-0.641,8.71-2.899l0.063-0.091
			c2.668-2.637,6.551-3.445,10.09-2.289l1.609,0.568c3.539,1.154,6.156,4.144,6.692,7.84c0.015,0.075,0.015,0.075,0.029,0.152
			c0.512,3.147,2.384,5.959,5.202,7.487l1.5,0.825c2.817,1.528,6.231,1.6,9.131,0.185l0.076-0.015
			c3.419-1.59,7.406-0.995,10.291,1.311l1.3,1.022c2.961,2.292,4.38,6.059,3.649,9.756l0.015,0.075
			c-0.678,3.133,0.106,6.467,2.289,8.825l1.113,1.294c2.107,2.373,5.264,3.601,8.454,3.317c0.076-0.014,0.153-0.028,0.153-0.028
			c3.739-0.307,7.268,1.642,9.198,4.76l0.899,1.413c1.944,3.195,2.064,7.205,0.059,10.43c0,0,0,0-0.063,0.091
			c-1.632,2.68-2.024,6.074-0.825,9.092l0.607,1.548c1.198,3.018,3.749,5.229,6.834,6.073c0.077-0.015,0.077-0.015,0.153-0.028
			c3.587,0.988,6.295,4.039,7.045,7.615l0.315,1.681c0.344,1.834,0.23,3.754-0.4,5.454l-18.642,3.499l-173.014,32.706l-27.964,5.249
			C1235.585,1498.302,1235.394,1497.705,1235.293,1497.17z"/>
		<path style="fill:#50BFA5;" d="M1263.803,1493.56c-8.288-44.162,21.69-86.884,67.009-95.388
			c45.174-8.479,88.501,20.328,96.92,64.387L1263.803,1493.56z"/>
		<path style="fill:#F7CC7F;" d="M1402.226,1438.324c4.076-1.979,8.984-0.278,10.963,3.798c1.979,4.075,0.279,8.983-3.797,10.963
			c-4.076,1.979-20.585,4.938-22.564,0.863C1384.848,1449.873,1398.15,1440.304,1402.226,1438.324z"/>
		<path style="fill:#F7CC7F;" d="M1367.485,1421.31c1.001-4.42,5.394-7.191,9.814-6.19c4.419,1,7.19,5.394,6.19,9.813
			c-1,4.419-8.999,19.162-13.418,18.162C1365.651,1442.092,1366.486,1425.729,1367.485,1421.31z"/>
		<path style="fill:#F7CC7F;" d="M1326.38,1425.78c-1.823-4.147,0.062-8.988,4.21-10.81c4.148-1.823,8.989,0.06,10.811,4.209
			c1.823,4.148,4.156,20.758,0.008,22.581C1337.262,1443.583,1328.203,1429.929,1326.38,1425.78z"/>
		<path style="fill:#F7CC7F;" d="M1296.444,1447.497c-3.35-3.052-3.592-8.239-0.541-11.589c3.051-3.351,8.24-3.592,11.59-0.541
			c3.35,3.051,12.224,17.283,9.172,20.634C1313.614,1459.351,1299.793,1450.548,1296.444,1447.497z"/>
		<path style="fill:#F7CC7F;" d="M1281.065,1480.78c-4.424-0.978-7.219-5.356-6.241-9.78c0.977-4.425,5.356-7.219,9.78-6.242
			c4.424,0.978,19.208,8.9,18.231,13.324C1301.858,1482.507,1285.49,1481.758,1281.065,1480.78z"/>
	</g>
	<g>
		<path style="fill:#F47458;" d="M1462.486,1405.681c-284.889-116.648-380.858-471.186-195.984-715.729
			c15.56-20.581,44.979-22.985,63.752-6.299c0.201,0.259,13.011,10.273,14.829,28.656c1.082,10.942-1.974,21.798-8.603,30.57
			c-150.701,199.386-70.797,487.413,159.25,581.606c83.387,34.145,172.021,37.151,253.911,12.241
			c4.169-1.268,8.48-1.911,12.813-1.911c29.143,0,39.712,25.545,39.774,25.613c11.217,24.039-1.48,52.455-26.865,60.166
			C1675.419,1450.953,1565.126,1447.706,1462.486,1405.681z"/>
	</g>
	<path style="fill:#F7CC7F;" d="M1824.39,1358.724c-71.749-14.39-79.091,18.924-172.733,17.097
		c-79.097-1.543-89.287,34.764-90.544,46.08l0.139,0.037c-1.6,6.917-4.244,12.017-4.244,12.017
		c-4.625,10.405-14.149,46.893,54.915,85.476c81.765,45.68,71.292,78.145,140.495,101.93
		c60.399,20.76,119.303-11.947,149.412-64.931c32.455-57.113,23.153-138.934-32.701-178.562
		C1855.776,1368.396,1840.425,1361.939,1824.39,1358.724z"/>
	<path style="fill:#13375B;" d="M1487.822,1412.693l-0.128,0.016c-0.144,0.311,11.387,7.797,35.885,13.038
		c12.059,1.953,14.889,3.477,42.258,4.548l1.26,0.05c4.964,0.193,5.11,7.573,0.111,7.927c-3.665,0.246-7.311,0.524-10.958,0.732
		c-0.213-0.007-46.884,2.729-74.905-10.493c-4.368-1.788-6.459-6.778-4.671-11.146
		C1478.464,1412.996,1483.454,1410.905,1487.822,1412.693z"/>
	<path style="fill:#F8A492;" d="M2074.88,435.289c0.121-1.208-33.088-6.546-33.088-6.546c-3.684-0.461-23.768-7.183-23.768-7.183
		s-51.701-21.775-54.715-22.768l-39.95-38.42l-23.12,21.25c0,0,48.854,42.791,51.91,44.462c2.924,1.598,77.785,12.113,82.617,13.784
		c0,0,6.115,3.715,10.035,5.927c3.921,2.212,8.614,2.852,9.878,3.11c2.896,0.589,9.972,0.271,9.972,0.271
		S2074.8,436.079,2074.88,435.289z"/>
	<path style="fill:#F47458;" d="M2072.364,433.388c0,0-6.459,12.155-9.095,13.685c-2.635,1.53-7.226,0.765-7.226,0.765
		L2072.364,433.388z"/>
	<path style="fill:#F7A491;" d="M2134.726,706.21c-9.37,0.577-15.019-3.229-24.363-1.096c3.139,8.017,8.178,58.955,7.848,61.806
		c-1.338,11.548-8.866,18.655-8.866,18.655s50.431,27.053,51.862,22.139c1.43-4.914-2.758-3.27-8.948-16.789
		c-0.549-1.201-13.452-15.355-14.358-39.835C2137.122,730.118,2137.206,717.593,2134.726,706.21z"/>
	<path style="fill:#355389;" d="M2108.302,786.754l55.507,25.613c2.138,0.763,3.404-0.666,3.165-2.018
		c-0.494-2.784-8.985-12.838-14.715-19.554c-13.381-4.56-33.379-20.11-34.041-23.971
		C2114.347,772.159,2107.276,785.978,2108.302,786.754z"/>
	<path style="fill:#F47458;" d="M1914.504,476.885c-1.026,12.941-58.124,3.338-58.124,3.338c-2.18-0.366-3.607,18.25-3.629,19.302
		c-0.231,11.151-5.408,35.883,18.589,57.539c13.94,12.58,186.659,55.76,190.493,57.4c14.914,51.955,32.004,91.094,53.627,140.48
		c0,0,5.646,1.764,12.92,1.587c4.646-0.114,14.053-1.36,14.053-1.36s-21.377-167.287-38.533-191.307
		c-7.294-10.213-98.629-30.775-153.68-57.12C1925.077,494.711,1914.516,476.735,1914.504,476.885z"/>
	<path style="fill:#13375B;" d="M1810.903,269.156c-23.075,6.304-38.601,26.918-36.539,50.075
		c-11.926,5.942-21.375,16.816-25.265,29.238c-7.672,24.505-0.929,59.229,25.628,60.77c16.885,11.346,47.108,15.022,62.012,1.434
		c23.433,7.379,43.799-13.823,45.653-43.017c17.658-8.589,30.202-26.91,29.688-46.331c-0.124-4.662-0.623-11.799-0.227-12.937
		c-0.404,1.439,27.366-28.585-8.198-59.503C1867.362,217.339,1818.474,232.614,1810.903,269.156z"/>
	<path style="fill:#355389;" d="M1919.477,408.142c9.996-1.872,23.09-13.292,26.552-28.775c0.09-0.4-36.241-39.288-46.81-44.601
		c-0.947-0.476-2.226-1.085-3.256-1.021c5.553,16.192-1.916,37.423,1.596,54.411
		C1897.806,387.439,1918.216,408.378,1919.477,408.142z"/>
	<path style="fill:#466EB6;" d="M1859.21,334.884c0,0-20.038,3.953-27.765,7.911c-17.892,9.164-0.229,57.557,1.36,61.721
		c2.793,7.318,28.166,58.61,20.053,91.005c0,0,37.075,8.707,64.527-0.313c0,0,2.492-77.713,3.531-81.226
		c1.037-3.512,7.605-15.056,0.107-31.618c-0.547-1.208-15.117-34.684-25.062-48.617
		C1876.898,333.682,1859.21,334.884,1859.21,334.884z"/>
	<path style="fill:#F7A491;" d="M1860.284,304.525c0,0-0.41,22.554-1.221,30.454c-0.848,8.268,7.748,33.436,24.955,35.802
		c17.207,2.367,0.197-28.364-0.393-36.616c-0.59-8.253,1.139-37.428,1.139-37.428L1860.284,304.525z"/>
	<path style="fill:#F47458;" d="M1860.12,311.725c0.182,0.084,0.352,0.177,0.538,0.259c9.829,4.336,17.808,2.648,23.427-2.127
		c0.331-7.232,0.68-13.12,0.68-13.12l-24.48,7.789C1860.284,304.525,1860.229,307.53,1860.12,311.725z"/>
	<path style="fill:#F7A491;" d="M1859.212,246.017c0,0-9.536,3.799-14.174,14.156c-4.637,10.357-4.508,38.684,17.612,48.443
		c22.12,9.76,34.906-10.963,32.385-28.823C1892.514,261.934,1885.018,238.748,1859.212,246.017z"/>
	<path style="fill:#F7A491;" d="M1898.833,271.614c0.723,4.635-0.861,8.733-3.537,9.153c-2.677,0.419-5.432-2.997-6.154-7.632
		c-0.723-4.635,0.86-8.732,3.536-9.152C1895.354,263.563,1898.109,266.979,1898.833,271.614z"/>
	<path style="fill:#13375B;" d="M1862.087,244.968c0,0-8.154,30.501-18.829,34.786c-10.676,4.286-8.276,18.612-8.276,18.612
		s-4.924-33.182,4.268-42.413C1848.44,246.723,1862.087,244.968,1862.087,244.968z"/>
	<path style="fill:#F7A491;" d="M1848.582,284.991c2.181,4.403,1.559,9.174-1.39,10.655c-2.949,1.481-7.105-0.888-9.286-5.291
		c-2.181-4.403-1.557-9.173,1.39-10.655C1842.244,278.219,1846.401,280.588,1848.582,284.991z"/>
	<g>
		<g>
			<g>
				<path style="fill:#50BFA5;" d="M1061.736,1539.334c-8.67-0.904-17.047-1.822-25.133-2.768
					c-72.78-8.432-121.496-18.272-138.312-28.9c0.197-0.027,0.306-0.041,0.306-0.041s-0.122,0-0.36,0
					c-5.917,0.049-82.913-0.006-84.613-31.015c-1.149-21.065,34.537-12.24,35.584-11.981c-1.394-0.728-84.476-43.914-69.829-74.685
					c7.888-16.552,86.442,18.721,87.441,19.169c-0.428-0.585-21.236-28.968,1.055-36.598c22.521-7.704,85.083,26.244,116.744,47.468
					c11.703,7.847,20.071,19.716,35.201,44.225C1036.508,1491.224,1052.508,1521.389,1061.736,1539.334z"/>
			</g>
			<path style="fill:#3C8F7C;" d="M898.291,1507.666c0.197-0.027,0.306-0.041,0.306-0.041s-0.122,0-0.36,0
				c-5.917,0.049-99.744-5.267-101.444-36.274c-1.149-21.067,28.339-17.626,29.386-17.367c-1.394-0.728-61.447-33.269-46.8-64.039
				l155.237,88.495l101.986,58.127C963.823,1528.135,915.107,1518.294,898.291,1507.666z"/>
		</g>
		<path style="fill:#B75742;" d="M995.045,1261.521c-65.954,106.842-45.687,238.97,45.268,295.117
			c90.955,56.146,218.154,15.049,284.107-91.792C1325.416,1463.233,996.041,1259.907,995.045,1261.521z"/>
		<g>
			<polygon style="fill:#FFFC97;" points="1176.462,1366.865 1173.545,1365.066 1174.597,1370.961 			"/>
			<polygon style="fill:#FFFFE9;" points="1174.597,1370.961 1176.462,1366.865 1173.545,1365.066 1174.597,1370.961 			"/>
		</g>
		<g>
			<path style="fill:#F7CC7F;" d="M1185.16,1382.147l29.426,164.941c41.013-16.136,76.586-45.733,101.177-84.319L1185.16,1382.147z"
				/>
			<path style="fill:#F7CC7F;" d="M999.555,1481.839c14.002,21.776,32.174,39.644,54.104,53.182
				c9.534,5.886,19.688,10.835,30.265,14.758l80.884-177.672L999.555,1481.839z"/>
			<path style="fill:#F7CC7F;" d="M970.477,1363.741c-2.556,36.396,4.658,72.565,20.615,103.467l155.235-103.083L970.477,1363.741z"
				/>
			<path style="fill:#F7CC7F;" d="M1000.782,1268.33c-14.691,24.552-24.231,50.922-28.428,78.545l156.219,0.342L1000.782,1268.33z"
				/>
			<path style="fill:#F7CC7F;" d="M1100.129,1554.896c31.721,8.332,65.386,7.572,98.314-2.239l-27.394-153.547L1100.129,1554.896z"
				/>
		</g>
		<path style="fill:#FAE0B2;" d="M1324.637,1464.496c0.923-1.497,1.765-3.018,2.65-4.525l-153.732-94.85l-0.01-0.056
			c-8.365-5.164-166.319-102.67-175.426-108.292c-20.239,31.182-31.726,64.738-35.357,98.516
			c-4.729,43.999,4.142,87.609,25.355,124.019l0,0.001c14.648,25.141,35.146,46.861,61.11,62.889
			c12.531,7.735,25.682,13.711,39.193,18.063c38.803,12.497,80.624,11.364,119.626-1.805
			C1254.04,1542.928,1296.105,1510.715,1324.637,1464.496z M982.405,1338.462c4.089-20.299,11.239-39.839,21.365-58.374
			l94.974,58.629L982.405,1338.462z M994.486,1454.828c-11.344-25.281-16.861-53.746-15.989-82.634l139.969,0.306L994.486,1454.828z
			 M1303.905,1465.362c-21.315,30.67-50.041,54.834-82.872,69.827l-24.255-135.957L1303.905,1465.362z M1058.088,1527.842
			c-18.489-11.413-34.169-26.068-46.772-43.688l133.601-88.716l-65.341,143.53
			C1072.129,1535.793,1064.94,1532.072,1058.088,1527.842z M1112.083,1548.996l55.42-121.736l21.287,119.315
			C1163.075,1553.134,1137.04,1553.948,1112.083,1548.996z"/>
	</g>
	<path style="fill:#9BC1F9;" d="M2554.927,1452.828l-47.373,23.046c35.152,7.304,54.404,15.226,54.404,23.506
		c0,36.487-373.885,66.067-835.093,66.067c-449.85,0-816.614-28.141-834.407-63.385l-105.509-19.564
		c-33.054,11.766-50.967,24.352-50.967,37.436c0,65.346,446.543,118.319,997.383,118.319c550.839,0,997.383-52.974,997.383-118.319
		C2730.749,1495.015,2665.813,1471.896,2554.927,1452.828z"/>
	<path style="fill:#3C8F7C;" d="M973.513,1527.197c-2.883-1.833-80.107-23.26-81.054-25.135l-88.252-16.374
		C825.953,1503.396,968.388,1527.236,973.513,1527.197z"/>
	<path style="fill:#184655;" d="M2456.888,1527.509c0,23.983-30.572,43.426-68.283,43.426c-37.712,0-68.283-19.442-68.283-43.426
		s30.571-43.427,68.283-43.427C2426.315,1484.082,2456.888,1503.525,2456.888,1527.509z"/>
	<g>
		<path style="fill:#184655;" d="M2270.984,1477.475c0,0-0.054,98.864-91.634,123.604c-91.581,24.738-242.184-30.026-257.174-50.483
			c-12.282-16.761-12.408-35.125-10.436-54.892c1.708-17.118,6.034-7.062,63.877-28.218s64.958-3.06,120.933-35.349
			C2152.523,1399.848,2268.629,1410.753,2270.984,1477.475z"/>
		<path style="fill:#3C8F7C;" d="M1943.286,1529.521c-12.387-4.166-22.417-13.199-28.25-24.893
			c-0.027-0.056-0.055-0.111-0.084-0.166c-7.777-15.344-5.945-35.423,51.898-56.579s69.55-13.409,125.523-45.698
			s177.044,7.271,179.4,73.993c0,0,0,5.005-1.349,10.103c-15.283,29.578-42.714,58.896-91.92,70.704
			C2110.72,1573.251,2013.815,1553.236,1943.286,1529.521z"/>
		<path style="fill:#F7CC7F;" d="M2251.577,1499.286c9.876-13.673,10.907-31.909,2.203-46.357
			c-26.451-43.904-114.009-67.347-156.758-42.688c-36.18,20.871-54.486,25.541-77.664,31.456
			c-23.172,5.911-116.992,25.288-95.988,64.475c11.338,21.155,50.4,23.475,71.025,28.867c20.201,5.28,40.643,9.702,61.273,12.939
			c20.503,3.216,46,8.79,66.71,5.609C2137.137,1551.323,2208.841,1558.46,2251.577,1499.286z"/>
		<path style="fill:#B75742;" d="M2116.31,1433.2c-41.499,6.966-71.248,35.808-66.445,64.419
			c4.803,28.612,42.338,46.158,83.838,39.193c41.5-6.967,71.249-35.808,66.445-64.42
			C2195.345,1443.78,2157.81,1426.234,2116.31,1433.2z"/>
	</g>
	<g>
		<path style="fill:#F47458;" d="M693.558,1007.803c-9.58,9.356-21.16,5.723-34.57,5.432c-9.001-0.195-17.958,12.264-20.004,22.975
			c-5.182,27.128-21.633,10.185-41.385,16.628c-47.575,15.519-29.655,93.521-0.479,100.919c9.871,2.504,28.043,10.688,32.824,13.898
			c14.41,9.68,42.295,1.142,63.626-10.526c21.331-11.669,8.898-22.281,16.48-32.931c7.581-10.65,25.356-0.752,35.605-24.306
			c11.086-25.481,13.066-49.503,6.861-65.344c-10.268-26.209-38.311-35.429-50.48-31.633
			C698.408,1004.047,695.648,1005.761,693.558,1007.803z"/>
		<path style="fill:#F7A491;" d="M786.867,1599.87c-4.748,21.476-12.221,40.263-13.229,42.467c-0.484,1.059-4.909,4.843-5.438,5.928
			c1.391,26.438,17.648,42.674,33.033,54.381c-2.963-13.411-10.052-28.925-8.967-31.847c1.728-4.651,8.566-25.92,22.482-52.485
			C801.673,1616.381,797.275,1608.243,786.867,1599.87z"/>
		<path style="fill:#B75742;" d="M727.438,1285.867l-81.97,62.261c0,0,40.586,39.047,55.813,53.56
			c15.228,14.514,96.599,75.492,97.924,78.815c0.984,2.466-14.507,94.294-23.229,128.237c8.664,8.859,27.744,17.538,39.044,20.401
			c21.812-54.797,49.339-145.902,49.339-158.469C864.36,1456.393,727.438,1285.867,727.438,1285.867z"/>
		<path style="fill:#F7A491;" d="M497.495,1410.078c2.679,2.612,20.477,37.274,27.246,55.83c9.913-6.24,15.907-13.678,26.981-17.875
			c-8.736-12.645-25.775-43.066-27.176-50.307c-3.322-17.179-7.222-19.711-7.222-19.711s-57.589,19.484-61.425,24.943
			C452.063,1408.418,486.728,1399.58,497.495,1410.078z"/>
		<path style="fill:#F47458;" d="M525.218,1401.539c4.468,0.012-0.387-20.182-1.411-24.833c-1.152-5.232-4.183-6.801-4.938-6.987
			c-2.042-0.505-66.044,21.148-76.857,28.925c-0.73,0.525-2.045,2.19-2.246,2.566c-5.924,11.05,46.84,13.15,54.433,8.321
			C500.952,1405.236,505.121,1401.484,525.218,1401.539z"/>
		<path style="fill:#F47458;" d="M744.777,1304.496c0,0-71.37-29.153-71.381-29.158c0.285,0.126-0.432,2.911-0.488,3.127
			c-6.716,26.128-42.521,16.051-57.295,61.428c-10.438,32.062-25.729,151.979-25.729,151.979s-10.837-20.613-44.5-58.542
			c-2.608-2.938-35.775,19.839-35.775,19.839c24.664,65.386,85.23,118.523,93.43,114.76
			c55.404-25.419,121.952-225.979,121.868-225.963C731.203,1329.695,744.777,1304.496,744.777,1304.496z"/>
		<path style="fill:#F7A491;" d="M741.406,1109.789c0,0,5.948-5.869,13.373-14.676c17.744-21.047,47.359-57.744,49.187-63.07
			c2.247-6.551-2.653-100.967-3.206-106.95c-0.553-5.982-20.837-22.336-17.64-27.038c3.198-4.703,31.193-8.536,35.891-7.619
			c4.698,0.917,13.837,0.08,17.57,3.866c0.486,0.493-10.597,24.829-10.402,28.261c1.335,23.456,11.983,95.5,11.983,116.162
			c0,14.852-70.463,95.545-70.463,95.545L741.406,1109.789z"/>
		<path style="fill:#F47257;" d="M819.011,890.436c-4.698-0.917-32.693,2.917-35.891,7.619c-0.959,1.411,0.195,3.87,2.296,6.783
			c8.864,0.744,18.168,2.325,27.374,2.325c6.797,0,13.392-1.232,19.939-2.854c2.142-5.685,4.083-9.774,3.852-10.008
			C832.848,890.516,823.709,891.353,819.011,890.436z"/>
		<path style="fill:#F7A491;" d="M625.727,1124.129c0,0-89.772,2.234-109.483,3.852c-19.71,1.617-91.227-4.335-93.998-4.655
			c-2.771-0.321-21.092-31.348-24.136-28.017c-3.045,3.33,10.194,15.385,6.1,18.511c-4.095,3.128-48.082-3.876-47.498-0.624
			c1.092,6.085,26.755,5.311,26.728,8.247c-0.026,2.938-26.859-1.647-28.678,3.229c-1.82,4.877,25.812,1.988,26.915,4.164
			c1.102,2.176-25.628,6.16-22.893,10.697c1.485,2.463,23.684-4.114,23.575-0.758c-0.108,3.357-16.304,10.997-14.317,13.672
			c1.986,2.674,12.71-8.208,22.108-8.343c9.397-0.135,16.126-5.038,31.126-0.923c15.001,4.114,66.131,24.732,98.135,23.217
			c32.005-1.516,102.731-4.676,102.731-4.676L625.727,1124.129z"/>
		<path style="fill:#355389;" d="M757.499,1209.409c1.223-14.807,12.347-28.577,2.267-55.306
			c-0.574-14.979,22.868-32.993,26.293-39.44c0,0-16.83-20.06-30.43-23.8c0,0-27.362,19.891-40.339,26.66
			c-0.19-0.05-4.592,1.961-6.527,1.947c-12.531-0.089-56.317-1.417-64.49,1.022l4.2,59.224c2.356,3.879,13.768,9.332,17.227,101.547
			c0.301,8.023,67.482,30.75,79.163,23.232c0.275-0.177,3.836-20.909,6.857-45.673
			C753.794,1241.816,756.493,1221.597,757.499,1209.409z"/>
		<path style="fill:#355389;" d="M667.078,1122.063c-8.077-3.858-67.081-3.732-67.081-3.732s-5.042,41.857,1.556,51.64
			c0,0,49.135,6.62,47.648,10.907L667.078,1122.063z"/>
		<path style="fill:#F47458;" d="M773.414,1642.975c-1.508-4.205-18.637,8.44-22.664,10.985c-4.529,2.862-4.973,6.246-4.892,7.02
			c0.214,2.04,40.837,55.758,52.994,63.407c1.148,0.723,3.612,0.825,4.349,0.571c6.984-2.417-2.757-45.56-11.513-54.315
			C786.03,1664.983,780.198,1661.893,773.414,1642.975z"/>
		<path style="fill:#F7A491;" d="M783.605,898.798c-2.684,3.948,11.88,16.453,15.919,23.363l9.145-12.458
			C804.162,908.824,786.673,894.287,783.605,898.798z"/>
		<path style="fill:#F7A491;" d="M701.496,1084.967c0,0-5.077,22.128-9.423,29.82c-4.346,7.691-1.026,39.1,15.956,46.715
			c16.982,7.613,6.818-35.334,8.701-43.923c1.882-8.589,12.292-33.148,12.292-33.148L701.496,1084.967z"/>
		<path style="fill:#F47458;" d="M723.96,1096.824c2.687-6.789,5.062-12.394,5.062-12.394l-27.526,0.536
			c0,0-1.039,4.525-2.577,10.193C708.021,1101.588,716.896,1101.092,723.96,1096.824z"/>
		<path style="fill:#F7A491;" d="M718.04,1025.018c0,0-10.953,0.989-18.846,10.141c-7.893,9.153-16.305,38.06,3.502,54.693
			c19.806,16.635,39.206-0.619,41.999-19.582C747.488,1051.307,746.774,1025.411,718.04,1025.018z"/>
		<path style="fill:#F7A491;" d="M750.433,1064.979c-2.452,4.34-6.49,6.701-9.019,5.272c-2.528-1.429-2.59-6.104-0.138-10.444
			c2.452-4.342,6.49-6.701,9.018-5.273C752.822,1055.962,752.885,1060.639,750.433,1064.979z"/>
		<path style="fill:#F7A491;" d="M695.354,1061.522c0.914,5.146-1.165,9.819-4.644,10.438c-3.478,0.617-7.039-3.054-7.954-8.2
			c-0.914-5.146,1.165-9.819,4.644-10.438C690.878,1052.705,694.439,1056.376,695.354,1061.522z"/>
		<g>
			<ellipse style="fill:#FAE0B2;" cx="814.776" cy="812.061" rx="144.336" ry="92.961"/>
			<ellipse style="fill:#F7CC7F;" cx="789.315" cy="807.727" rx="73.449" ry="57.232"/>
		</g>
		<path style="fill:#F7A491;" d="M783.605,898.798c-2.684,3.948,11.88,16.453,15.919,23.363l9.145-12.458
			C804.162,908.824,786.673,894.287,783.605,898.798z"/>
	</g>
	<g>
		<path style="fill:#3C8F7C;" d="M1135.111,785.025c-5.761,19.461-30.667,29.247-55.63,21.857
			c-24.964-7.389-40.531-29.155-34.77-48.616c5.76-19.46,30.667-29.246,55.63-21.857
			C1125.304,743.798,1140.872,765.565,1135.111,785.025z"/>
		<path style="fill:#184655;" d="M1130.769,780.89c0,5.825-4.722,10.547-10.546,10.547c-5.825,0-10.547-4.722-10.547-10.547
			c0-5.824,4.722-10.546,10.547-10.546C1126.047,770.344,1130.769,775.065,1130.769,780.89z"/>
	</g>
	<g>
		<path style="fill:#3C8F7C;" d="M2311.085,879.583c16.182,12.251,16.559,39.008,0.844,59.765
			c-15.715,20.756-41.571,27.651-57.752,15.4c-16.18-12.25-16.559-39.008-0.844-59.764
			C2269.048,874.228,2294.905,867.333,2311.085,879.583z"/>
		<path style="fill:#184655;" d="M2305.685,882.189c5.451,2.053,8.205,8.136,6.152,13.587c-2.053,5.451-8.137,8.206-13.588,6.152
			c-5.45-2.053-8.205-8.136-6.151-13.587C2294.151,882.89,2300.234,880.136,2305.685,882.189z"/>
	</g>
	<path style="fill:#184655;" d="M2392.083,777.924c0,6.759-6.392,12.238-14.277,12.238c-7.885,0-14.276-5.479-14.276-12.238
		c0-6.759,6.392-12.237,14.276-12.237C2385.691,765.687,2392.083,771.165,2392.083,777.924z"/>
	<path style="fill:#184655;" d="M1988.872,1058.87c0,6.759-6.392,12.238-14.277,12.238c-7.885,0-14.277-5.479-14.277-12.238
		c0-6.758,6.393-12.237,14.277-12.237C1982.48,1046.633,1988.872,1052.112,1988.872,1058.87z"/>
	<path style="fill:#184655;" d="M1249.652,1308.388c0,9.012-7.306,16.317-16.317,16.317c-9.012,0-16.316-7.306-16.316-16.317
		c0-9.011,7.305-16.316,16.316-16.316C1242.346,1292.071,1249.652,1299.377,1249.652,1308.388z"/>
	<g>
		<g>
			<path style="fill:#F7CC7F;" d="M1300.467,993.961c9.379-7.514,13.687-24.106,14.202-34.394
				c0.669-13.376-3.271-27.247-11.094-39.06c-7.774-11.737-18.931-20.749-31.415-25.375c-9.615-3.563-20.689-4.821-30.816-1.935
				c-4.538,1.294-10.478,3.34-12.868,7.537c-2.75,4.828-1.886,11.211,1.084,15.697c4.62,6.975,13.501,9.229,19.836,5.033
				c0.016-0.01,0.031-0.022,0.047-0.033l31.953,48.802c-0.033,0.021-0.066,0.04-0.099,0.062c-6.335,4.196-7.725,13.251-3.105,20.227
				c3.41,5.148,10.101,8.523,16.261,6.667C1296.653,996.525,1298.655,995.412,1300.467,993.961z"/>
			<path style="fill:#FAE0B2;" d="M1280.125,989.24c-3.901-5.891-2.809-13.511,2.433-17c0.038-0.023,0.069-0.043,0.101-0.063
				c0.517-0.336,0.879-0.864,1.005-1.467c0.127-0.603,0.009-1.232-0.328-1.748c0,0-31.958-48.809-31.96-48.812
				c-0.348-0.525-0.894-0.886-1.513-1c-0.62-0.114-1.259,0.028-1.771,0.395c-5.257,3.462-12.698,1.494-16.599-4.396
				c-2.709-4.091-3.122-9.547-1.002-13.268c1.916-3.364,7.146-5.216,11.489-6.454c8.858-2.526,19.291-1.859,29.375,1.878
				c12.026,4.457,22.783,13.151,30.287,24.481c7.553,11.402,11.356,24.779,10.712,37.664c-0.461,9.219-4.394,25.536-13.336,32.7
				c-1.646,1.319-3.407,2.267-5.233,2.817C1288.385,996.594,1282.825,993.317,1280.125,989.24L1280.125,989.24z"/>
		</g>
		<path style="fill:#FAE0B2;" d="M1223.407,996.989c-13.01-6.941-20.171-17.754-21.486-32.441
			c17.343-16.153,36.834-29.063,58.474-38.729c13.009,6.94,20.172,17.754,21.486,32.441
			C1264.538,974.414,1245.047,987.323,1223.407,996.989z"/>
		<path style="fill:#F7CC7F;" d="M1265.514,935.405c0,0-16.382-28.904-17.727-28.22
			C1243.034,909.601,1265.514,935.405,1265.514,935.405z"/>
		<path style="fill:#F7CC7F;" d="M1267.43,935.234c0,0-6.452-32.591-7.943-32.365C1254.215,903.666,1267.43,935.234,1267.43,935.234
			z"/>
		<path style="fill:#F7CC7F;" d="M1269.641,935.878c0,0,5.925-32.69,4.454-33.027
			C1268.898,901.664,1269.641,935.878,1269.641,935.878z"/>
		<path style="fill:#F7CC7F;" d="M1271.732,937.746c0,0,20.341-26.268,19.191-27.245
			C1286.861,907.049,1271.732,937.746,1271.732,937.746z"/>
		<path style="fill:#F7CC7F;" d="M1272.583,939.669c0,0,27.615-18.472,26.834-19.763
			C1296.657,915.345,1272.583,939.669,1272.583,939.669z"/>
		<path style="fill:#F7CC7F;" d="M1273.962,947.732c0,0,23.075,23.903,22.038,24.998
			C1292.337,976.604,1273.962,947.732,1273.962,947.732z"/>
		<path style="fill:#F7CC7F;" d="M1274.695,945.549c0,0,30.222,13.798,29.659,15.197
			C1302.363,965.691,1274.695,945.549,1274.695,945.549z"/>
		<path style="fill:#F7CC7F;" d="M1274.356,942.766c0,0,33.179-1.705,33.325-0.203
			C1308.196,947.868,1274.356,942.766,1274.356,942.766z"/>
		<path style="fill:#F7CC7F;" d="M1273.263,940.97c0,0,30.931-12.128,31.545-10.75C1306.976,935.09,1273.263,940.97,1273.263,940.97
			z"/>
	</g>
	<g>
		<g>
			<path style="fill:#F7CC7F;" d="M2636.555,1520.832c15.074-5.172,27.891-23.946,33.146-36.557
				c6.833-16.393,8.136-35.472,3.667-53.723c-4.439-18.134-14.322-34.383-27.828-45.754c-10.402-8.758-23.66-15.293-37.594-16.231
				c-6.243-0.421-14.572-0.531-19.438,3.636c-5.597,4.792-7.381,13.146-5.685,20.075c2.639,10.777,12.711,17.571,22.499,15.176
				c0.024-0.006,0.048-0.014,0.073-0.02l17.996,75.232c-0.051,0.012-0.1,0.02-0.15,0.032c-9.787,2.396-15.582,13.074-12.945,23.852
				c1.947,7.953,8.786,15.165,17.307,15.612C2630.645,1522.323,2633.643,1521.832,2636.555,1520.832z"/>
			<path style="fill:#FAE0B2;" d="M2613.284,1505.82c-2.229-9.1,2.552-18.121,10.658-20.125c0.058-0.013,0.105-0.023,0.154-0.034
				c0.795-0.188,1.484-0.685,1.913-1.38c0.429-0.696,0.563-1.534,0.372-2.329c0,0-17.998-75.243-18-75.248
				c-0.198-0.812-0.718-1.507-1.439-1.927c-0.722-0.42-1.584-0.528-2.387-0.301c-8.114,1.964-16.518-3.829-18.745-12.928
				c-1.548-6.321,0.384-13.316,4.698-17.01c3.898-3.339,11.258-3.306,17.23-2.903c12.189,0.82,24.91,6.33,35.819,15.516
				c13.013,10.954,22.538,26.628,26.823,44.133c4.313,17.617,3.063,36.017-3.52,51.809c-4.709,11.3-16.934,29.9-31.305,34.831
				c-2.646,0.908-5.27,1.302-7.795,1.169C2620.294,1518.701,2614.825,1512.12,2613.284,1505.82L2613.284,1505.82z"/>
		</g>
		<path style="fill:#FAE0B2;" d="M2539.024,1490.06c-5.834-6.442-9.882-13.321-12.146-20.638
			c-4.757-15.371,3.913-31.67,19.121-36.93c22.952-7.939,46.651-12.829,71.096-14.67c13.124,14.496,17.215,31.203,12.271,50.121
			C2600.479,1480.328,2570.365,1487.699,2539.024,1490.06z"/>
		<path style="fill:#F7CC7F;" d="M2619.187,1432.081c0,0-7.485-43.418-9.471-43.167
			C2602.702,1389.797,2619.187,1432.081,2619.187,1432.081z"/>
		<path style="fill:#F7CC7F;" d="M2621.655,1432.727c0,0,6.561-43.566,4.598-43.954
			C2619.316,1387.403,2621.655,1432.727,2621.655,1432.727z"/>
		<path style="fill:#F7CC7F;" d="M2624.125,1434.521c0,0,22.052-38.141,20.368-39.221
			C2638.539,1391.488,2624.125,1434.521,2624.125,1434.521z"/>
		<path style="fill:#F7CC7F;" d="M2625.897,1437.791c0,0,37.165-23.663,36.168-25.397
			C2658.544,1406.264,2625.897,1437.791,2625.897,1437.791z"/>
		<path style="fill:#F7CC7F;" d="M2626.099,1440.572c0,0,42.746-10.672,42.35-12.633
			C2667.049,1421.01,2626.099,1440.572,2626.099,1440.572z"/>
		<path style="fill:#F7CC7F;" d="M2624.203,1451.254c0,0,18.081,40.177,16.296,41.08
			C2634.19,1495.525,2624.203,1451.254,2624.203,1451.254z"/>
		<path style="fill:#F7CC7F;" d="M2626.097,1448.858c0,0,31.533,30.771,30.202,32.265
			C2651.596,1486.401,2626.097,1448.858,2626.097,1448.858z"/>
		<path style="fill:#F7CC7F;" d="M2626.922,1445.233c0,0,42.173,12.749,41.683,14.688
			C2666.867,1466.773,2626.922,1445.233,2626.922,1445.233z"/>
		<path style="fill:#F7CC7F;" d="M2626.362,1442.5c0,0,44.041-1.267,44.188,0.729
			C2671.075,1450.278,2626.362,1442.5,2626.362,1442.5z"/>
	</g>
	<g>
		<g>
			<path style="fill:#F7CC7F;" d="M2217.858,1006.723c-17.656-9.355-48.602-7.431-65.125-1.826
				c-21.783,6.732-39.304,20.735-48.563,36.785c-9.325,16.012-10.259,32.704-5.304,46.498c3.816,10.695,11.225,20.574,21.158,27.267
				c4.492,2.997,10.393,6.861,16.002,6.39c6.459-0.563,12.371-5.057,15.501-10.427c4.842-8.287,2.652-18.297-6.298-21.896
				c-0.023-0.009-0.045-0.017-0.068-0.024c12.227-19.75,27.584-38.529,45.881-55.484c0.051,0.025,0.098,0.055,0.147,0.082
				c9.853,5.164,23.745,4.419,32.452-1.841c6.36-4.649,8.873-12.64,2.711-19.355
				C2224.149,1010.51,2221.257,1008.447,2217.858,1006.723z"/>
			<path style="fill:#FAE0B2;" d="M2220.735,1030.307c-7.321,5.375-19.127,6.117-27.334,1.776c-0.057-0.033-0.105-0.06-0.153-0.086
				c-0.798-0.438-1.804-0.641-2.786-0.563c-0.982,0.078-1.859,0.43-2.438,0.975c0.021-0.064-13.851,12.863-25.039,26.997
				c-11.617,13.941-20.553,29.09-20.545,29.023c-0.389,0.645-0.455,1.379-0.19,2.031c0.265,0.651,0.837,1.167,1.583,1.432
				c7.357,2.942,9.254,11.324,5.211,18.382c-2.816,4.927-8.096,8.538-13.136,8.979c-4.551,0.379-9.804-3.047-14.091-5.954
				c-8.662-5.952-16.004-14.999-19.889-26.253c-4.615-13.357-3.518-29.429,5.578-44.764c9.035-15.374,25.904-28.686,46.758-35.064
				c14.694-4.977,44.617-7.319,61.396,1.49c3.076,1.545,5.564,3.341,7.399,5.295
				C2228.474,1019.818,2225.747,1026.563,2220.735,1030.307L2220.735,1030.307z"/>
		</g>
		<path style="fill:#FAE0B2;" d="M2233.29,1082.039c-7.037,14.66-18.153,23.477-32.563,29.145
			c-18.202-12.586-37.525-24.211-58.489-35.441c1.447-15.29,10.723-29.164,29.152-38.633
			C2199.755,1043.689,2220.877,1060.377,2233.29,1082.039z"/>
		<path style="fill:#F7CC7F;" d="M2152.085,1066.033c-0.945-0.373-24.493,32.937-21.9,33.983
			C2135.113,1102.525,2151.272,1065.88,2152.085,1066.033z"/>
		<path style="fill:#F7CC7F;" d="M2150.627,1064.275c-0.96-0.796-35.78,26.613-33.432,28.424
			C2120.875,1096.109,2149.557,1063.74,2150.627,1064.275z"/>
		<path style="fill:#F7CC7F;" d="M2150.022,1061.778c0.023-0.011-11.717,3.147-22.771,7.705
			c-11.147,4.364-21.608,10.126-21.194,10.849c1.396,2.621,11.594-3,22.301-8.209
			C2138.931,1066.744,2150.013,1061.777,2150.022,1061.778z"/>
		<path style="fill:#F7CC7F;" d="M2151.104,1058.704c0.024,0.017-12.045-1.335-24.398-1.054c-12.314,0.054-24.912,1.74-25.014,2.623
			c-0.44,3.09,11.87,1.326,24.333,0.279C2138.481,1059.27,2151.092,1058.704,2151.104,1058.704z"/>
		<path style="fill:#F7CC7F;" d="M2153.103,1056.81c0.016,0.026-10.649-4.27-22.15-7.192c-11.389-3.107-23.611-4.842-24.125-3.975
			c-1.866,3,10.2,4.512,22.19,6.662C2141.095,1054.235,2153.097,1056.805,2153.103,1056.81z"/>
		<path style="fill:#F7CC7F;" d="M2163.149,1051.217c-0.678-0.211,19.994-34.47,23.06-33.521
			C2193.694,1019.744,2162.204,1050.729,2163.149,1051.217z"/>
		<path style="fill:#F7CC7F;" d="M2159.689,1051.597c-0.058,0.005-0.333-37.025,2.337-37.177
			C2170.814,1013.955,2159.235,1051.561,2159.689,1051.597z"/>
		<path style="fill:#F7CC7F;" d="M2156.114,1053.396c0.701-0.354-25.533-30.756-24.095-31.539
			C2140.068,1017.682,2156.583,1053.288,2156.114,1053.396z"/>
		<path style="fill:#F7CC7F;" d="M2154.401,1055.435c0.854-0.828-38.49-21.622-37.883-22.328
			C2122.479,1026.894,2155.269,1054.896,2154.401,1055.435z"/>
	</g>
	<path style="fill:#F7CC7F;" d="M2208.563,612.34c0,8.75-6.104,15.844-13.633,15.844s-13.633-7.094-13.633-15.844
		s13.415-38.081,13.415-38.081S2208.563,603.59,2208.563,612.34z"/>
	<path style="fill:#F7CC7F;" d="M2227.341,838.771c0,5.938-4.143,10.752-9.252,10.752c-5.11,0-9.252-4.815-9.252-10.752
		c0-5.938,9.104-25.844,9.104-25.844S2227.341,832.833,2227.341,838.771z"/>
	<g>
		<path style="fill:#3C8F7C;" d="M2072.757,438.325l-165.633,114.836c-6.83,4.735-16.042,4.108-22.134-1.545
			c-0.085-0.078-0.169-0.157-0.255-0.237c-7.007-6.551-14.844-15.914-22.066-26.367c-7.223-10.452-13.213-21.096-16.865-29.972
			c-0.052-0.125-0.103-0.249-0.152-0.372c-3.123-7.681-0.479-16.497,6.336-21.221l165.666-114.861
			c10.201-7.072,24.244-4.512,31.307,5.708l0.002,0.003c1.82,2.635,5.55,3.05,7.905,0.88l32.017-29.488l30.353,43.923
			l-38.837,19.634c-2.854,1.442-3.775,5.082-1.955,7.715c0.018,0.025,0.02,0.028,0.004,0.006
			C2085.51,417.186,2082.956,431.253,2072.757,438.325z"/>
		<path style="fill:#3C8F7C;" d="M2104.07,357.643c-9.173-13.274-12.525-22.677-12.558-25.671
			c2.786,1.085,10.392,7.54,19.564,20.814c9.172,13.274,12.525,22.677,12.558,25.67
			C2120.849,377.371,2113.243,370.917,2104.07,357.643z"/>
		<g>
			<path style="fill:#F7CC7F;" d="M2078.448,406.967l0.001,0.002C2078.462,406.986,2078.462,406.987,2078.448,406.967z"/>
			<path style="fill:#F7CC7F;" d="M2078.449,406.969c-0.002-0.002-0.003-0.005-0.005-0.008c-1.82-2.633-0.898-6.272,1.955-7.715
				l38.837-19.634l-4.149-6.005c-17.699,2.952-46.165,18.478-46.382,28.152c-0.247,11.014-7.407,37.869-47.334,36.664
				c-37.326-1.127-96.349-9.33-103.876-10.393l-65.508,45.418c-6.815,4.724-9.459,13.54-6.336,21.221
				c0.05,0.123,0.101,0.247,0.152,0.372c3.652,8.876,9.643,19.52,16.865,29.972c7.223,10.452,15.06,19.815,22.066,26.367
				c0.086,0.08,0.17,0.159,0.255,0.237c6.092,5.654,15.304,6.281,22.134,1.545l165.633-114.836
				C2082.956,431.253,2085.509,417.188,2078.449,406.969z"/>
		</g>
		<g>
			<path style="fill:#899DAD;" d="M2024.353,474.612c0.169-0.117,0.294-0.295,0.392-0.508l-1.003,0.696
				C2023.974,474.783,2024.184,474.729,2024.353,474.612z"/>
			<path style="fill:#899DAD;" d="M1966.68,391.153c-0.188,0.131-0.327,0.329-0.427,0.579l1.118-0.775
				C1967.103,390.962,1966.869,391.022,1966.68,391.153z"/>
			<path style="fill:#EBECED;" d="M1927.466,522.164c-3.56,2.468-16.305-9.798-28.467-27.398s-19.136-33.868-15.576-36.337
				c3.561-2.468,16.306,9.798,28.468,27.398C1924.053,503.427,1931.026,519.695,1927.466,522.164z"/>
			<path style="fill:#FAE0B2;" d="M2017.011,414.398c-12.858-18.608-22.709-34.09-22.002-34.581l-115.811,80.295
				c-3.56,2.468,3.978,19.554,16.836,38.162c12.859,18.608,26.169,31.691,29.729,29.223l115.813-80.295
				C2040.866,447.693,2029.869,433.006,2017.011,414.398z"/>
			<path style="fill:#184655;" d="M2113.319,351.23c-9.859-14.266-20.677-23.871-24.164-21.454
				c-3.486,2.418,1.678,15.942,11.537,30.208c9.857,14.266,20.676,23.871,24.163,21.454
				C2128.342,379.021,2123.177,365.496,2113.319,351.23z M2104.07,357.643c-9.173-13.274-12.525-22.677-12.558-25.671
				c2.786,1.085,10.392,7.54,19.564,20.814c9.172,13.274,12.525,22.677,12.558,25.67
				C2120.849,377.371,2113.243,370.917,2104.07,357.643z"/>
			<path style="fill:#184655;" d="M2080.782,337.06c-0.192,0.496,1.162,25.614,27.824,47.28c1.721,1.399,4.043,1.814,6.154,1.133
				c3.787-1.221,9.539-3.212,10.512-4.324c1.473-1.682-5.445-2.701-5.445-2.701l-10.141-10.328l-12.414-18.921l-6.702-14.63
				l-0.997-5.082C2089.573,329.488,2083.345,330.511,2080.782,337.06z"/>
		</g>
		<path style="fill:#F7CC7F;" d="M2166.492,444.403c-12.866-28.677-28.868-70.237-44.768-71.25c-1.099-0.07-2.298-0.046-3.579,0.063
			l4.109,7.165c4.563,9.398,8.131,15.362,13.414,31.174c5.277,15.801,6.724,32.543,5.083,49.123
			c-0.444,4.491,0.208,9.285,3.267,13.406C2152.761,485.858,2179.356,473.08,2166.492,444.403z"/>
	</g>
	<g>
		<path style="fill:#184655;" d="M1104.618,1364.648c-21.777,41.746,6.018,88.836,6.081,89.237
			c10.442,18.521,27.375,34.534,51.68,45.441c7.008,3.077,14.156,5.482,21.764,7.022l3.045-14.069
			c-6.25,0.505-24.686-3.83-38.368-12.641c-11.95-7.336-22.339-17.647-29.419-30.178c-12.786-21.819-17.091-53.387-5.006-76.981
			C1111.441,1369.331,1108.057,1366.646,1104.618,1364.648z"/>
		<path style="fill:#355389;" d="M1707.328,1483.125c0-67.126-70.353-121.541-157.137-121.541
			c-63.122,0-117.519,28.801-142.507,70.328c-129.657,5.61-229.748,41.956-229.748,85.989c0,20.56,20.375,34.993,36.394,43.935
			c29.602,16.522,63.697,25.155,96.774,31.377c41.16,7.745,82.815,12.751,124.596,15.563c40.123,2.701,81.118,4.813,121.238,1.446
			c32.021-2.687,63.765-10.405,91.868-26.367c23.353-13.264,42.409-33.181,51.609-58.7
			C1705.263,1511.703,1707.328,1497.391,1707.328,1483.125z"/>
		<path style="fill:#466EB6;" d="M1246.921,1490.256c0,0,178.603-14.771,195.711-20.811s12.806-45.478,79.492-59.103
			c66.686-13.624,107.198,8.604,115.266,43.741c8.068,35.136-39.257,63.818-56.467,40.154c-17.209-23.662-22.228-50.748-60.95-45.81
			c-38.721,4.938-68.121,38.341-68.121,38.341L1246.921,1490.256z"/>
		<path style="fill:#3C8F7C;" d="M1258.217,1484.431l-11.917,6.149c-1.597,0.824-1.872,2.993-0.53,4.188l8.942,7.972
			c1.477,1.316,0.968,3.739-0.914,4.35l-11.517,3.735c-2.018,0.654-2.411,3.338-0.666,4.544l15.786,10.908l0.646,0.43
			l-19.214,10.917c-1.552,0.881-1.75,3.039-0.383,4.188l12.182,10.242c1.443,1.215,1.125,3.518-0.592,4.296l-16.764,7.59
			c-1.089,0.493-1.692,1.674-1.454,2.845l1.833,9.008c0.356,1.748-1.143,3.328-2.904,3.043
			c-56.22-9.112-68.719-52.453-69.471-55.256c-0.025-0.094-0.043-0.184-0.059-0.279c-0.97-6.143-1.136-11.819-0.624-16.986
			c4.774-48.55,69.123-56.415,93.392-57.652c2.623-0.133,3.726,3.293,1.517,4.715l-2.584,1.662c-1.826,1.176-1.454,3.947,0.619,4.6
			l0,0c1.94,0.608,2.431,3.126,0.862,4.42l-5.644,4.655c-1.276,1.053-1.235,3.021,0.084,4.02l9.746,7.377
			C1260.092,1481.249,1259.892,1483.566,1258.217,1484.431z"/>
	</g>
	<g>
		<g>
			<g>
				<path style="fill:#F47458;" d="M1890.442,1638.471c2.708,2.725,1.979,1.202,4.532,3.884
					c-62.899,36.481-98.442,50.149-110.552,30.175c-7.559-3.689,7.82-27.936,16.77-33.551
					C1825.612,1623.654,1871.125,1635.502,1890.442,1638.471z"/>
				<g>
					<path style="fill:#F47458;" d="M1828.554,1480.481c8.483,30.151,10.165,46.002-5.4,72.825c0.293,0.096,0.578,0.153,0.899,0.203
						c7.392,1.852,14.837,2.274,22.503,0.876c1.969-0.38,9.759,0.206,13.581-0.333c0,0,0.007,0.038,0.038-0.008
						c0.92-0.117,1.592-0.301,1.935-0.57c21.357-18.124,23.828-39.333,22.113-67.326
						C1884.312,1481.149,1851.868,1470.469,1828.554,1480.481z"/>
					<path style="fill:#F47458;" d="M1829.621,1480.096c-15.994-7.583-42.081,6.606-54.577,14.235
						c16.132,18.491,18.68,35.36,13.145,59.416c6.956,1.394,30.78,5.023,35.864-0.237c0.169-0.154,0.299-0.301,0.423-0.484
						c16.256-19.345,18.726-36.657,16.557-49.514C1838.884,1490.415,1831.306,1480.543,1829.621,1480.096z"/>
					<path style="fill:#F47458;" d="M1921.713,1504.201c-14.667-22.145-38.438-19.144-38.834-18.555
						c-0.233,0.011-0.429,0.014-0.655,0.061c2.334,37.474-6.07,48.842-23.823,67.415c0.566,0.313,1.133,0.626,1.736,0.931
						c0,0,0.007,0.038,0.038-0.008c5.54,2.869,17.803,6.961,23.278,4.297c11.169-5.218,18.785-11.215,24.552-18.553
						c6.555-8.434,15.672-29.416,14.549-33.757C1922.406,1505.434,1922.138,1504.82,1921.713,1504.201z"/>
					<path style="fill:#F47458;" d="M1957.829,1584.846c-2.681,41.746-33.676,46.927-60.359,56.999
						c-1.946,0.729-3.893,1.026-5.635,0.925c-3.847-0.244-6.447-2.487-4.729-6.636c5.304-12.716,13.942-26.496,13.982-45.339
						c0.03-0.047,0.023-0.085,0.018-0.123C1920.933,1597.572,1938.017,1592.756,1957.829,1584.846z"/>
					<path style="fill:#F47458;" d="M1922.578,1505.948c0.007,0.038-0.031,0.046-0.024,0.084
						c-11.15,31.697-13.076,33.343-42.038,50.374c1.931,5.801,11.903,22.326,17.431,21.148c6.996-1.846,13.597-3.924,19.824-6.551
						c18.438-7.871,30.367-20.675,31.023-22.65l0.037-0.009C1950.552,1544.024,1940.833,1518.316,1922.578,1505.948z"/>
					<path style="fill:#F47458;" d="M1948.831,1548.345l-0.037,0.009c-21.4,20.527-21.324,16.69-50.193,26.106
						c-1.037,0.339-1.65,1.494-1.867,3.116c-0.719,4.628,1.608,12.69,5.657,13.926c23.021,7.857,49.364,4.943,55.059-2.911
						C1964.609,1578.986,1957.617,1557.032,1948.831,1548.345z"/>
					<path style="fill:#B75742;" d="M1892.194,1639.134c-22.297-2.805-61.082-10.605-83.541-0.459
						c-3.661,1.653-9.066,4.83-12.692,6.879c-9.495-5.271,0.927-30.571,39.61-26.448
						C1850.192,1620.664,1878.96,1634.35,1892.194,1639.134z"/>
					<path style="fill:#B75742;" d="M1710.305,1582.708c-20.958,14.41-29.048,24.384-62.713,24.338
						c48.283-8.13,41.917-28.471,59.648-24.581C1708.07,1582.647,1708.977,1582.61,1710.305,1582.708z"/>
					<path style="fill:#B75742;" d="M1683.613,1617.354c13.988-6.521,26.5-11.949,36.893-29.183
						c4.471-7.413,7.694-5.716,13.538-6.328C1722.461,1600.258,1705.882,1612.874,1683.613,1617.354z"/>
					<path style="fill:#B75742;" d="M1836.599,1582.948c2.949-8.858,14.658-22.077,22.707-27.93c1.311,0.846,5.793,3.71,7.212,4.626
						C1857.224,1563.902,1842.395,1575.412,1836.599,1582.948z"/>
					<path style="fill:#B75742;" d="M1831.765,1556.243c-3.824,8.424-9.341,23.761-8.135,32.176
						c-4.007-4.669-0.602-25.06,2.617-33.806C1827.562,1554.907,1830.277,1555.911,1831.765,1556.243z"/>
					<path style="fill:#B75742;" d="M1847.038,1553.619c-5.635,6.712-16.825,24.993-18.733,32.891
						c-1.836-5.563,1.599-13.724,4.248-19.289C1837.58,1554.077,1842.62,1552.944,1847.038,1553.619z"/>
					<path style="fill:#B75742;" d="M1928.766,1586.372c-9.81-5.813-10.95-12.873-7.167-19.397l0.041-0.01
						c1.359-2.359,2.965-3.832,2.965-3.832c-21.206-5.873-0.711-23.434-18.598-25.228c-15.41-1.091-20.648-38.689-22.148-52.583
						c0.002-0.235-0.02-0.348-0.02-0.348s-0.021,0.121-0.106,0.374c-0.1,0.412-0.362,1.132-0.675,2.057
						c-2.318,6.707-10.035,25.266-24.691,28.366c-7.496,1.585-15.024-4.289-21.258-11.688c-8.316-9.983-14.631-23.39-14.678-23.477
						c-2.317,24.49-22.419,41.474-38.405,51.231l-0.806,28.107c4.596,10.193,26.323,11.382,34.061,7.02
						c15.229,2.593,21.632-0.286,29.921-0.453c3.074-0.089,7.382,0.39,10.879,0c6.424,2.615,9.059-0.73,16.32-1.36
						c3.029,5.381,13.918,10.739,19.984,13.148c-0.103,4.263,1.584,9.525,5.02,12.337c0.002,17.822-8.327,30.359-14.345,44.617
						c-1.991,4.174,0.833,6.352,5.077,6.51C1907.837,1630.182,1945.084,1596.041,1928.766,1586.372z"/>
					<path style="fill:#F47458;" d="M1795.095,1557.243c-55.258,60.188-226.581,9.28-227.734,8.679
						c2.197-1.396,95.418-45.149,104.671-47.728c4.359,24.305,42.524,9.264,30.857-10.373c24.037-6.779,46.171-12.749,75.63-15.315
						c0.987-0.09,2.313,0.354,2.865,0.964C1804.39,1520.057,1801.384,1551.825,1795.095,1557.243z"/>
				</g>
				<path style="fill:#184655;" d="M1707.798,1516.518c2.219,12.182-5.085,24.008-16.314,26.416
					c-11.229,2.408-22.132-5.516-24.351-17.696c-2.22-12.182,5.084-24.008,16.314-26.416
					C1694.676,1496.413,1705.579,1504.337,1707.798,1516.518z"/>
			</g>
		</g>
		<path style="fill:#F47458;" d="M1517.154,1566.017c22.022-21.804,55.972-46.755,83.921-35.102
			c16.504,6.724,26.223,26.326,26.163,26.239c1.458,2.592,4.578,3.41,6.968,1.828c2.425-1.606,3.217-5.131,1.536-7.809
			c-13.094-20.657-29.663-33.643-52.851-31.216c-30.21,3.212-62.707,33.715-81.707,58.935c-1.198,1.59,0.956,3.594,2.222,2.068
			C1503.407,1580.961,1512.275,1570.874,1517.154,1566.017z"/>
	</g>
	<g>
		<path style="fill:#3C8F7C;" d="M2610.545,1027.777l0.639,0.715c1.398,1.497,1.862,3.714,1.166,5.681c0,0-0.032,0.029-0.003,0.062
			c-0.648,1.692-0.477,3.585,0.521,5.09l0.479,0.799c0.998,1.505,2.644,2.43,4.424,2.59c0.033-0.029,0.063,0.004,0.094-0.025
			c2.061,0.145,3.867,1.511,4.654,3.437l0.383,0.885c0.821,1.897,0.543,4.135-0.841,5.725l-0.032,0.029
			c-1.157,1.386-1.662,3.24-1.265,4.99l0.228,0.907c0.396,1.75,1.61,3.237,3.237,3.945c0.062,0.002,0.062,0.002,0.091,0.035
			c1.928,0.848,3.15,2.735,3.251,4.809l0.04,0.958c0.101,2.073-0.936,4.053-2.752,5.094c-0.032,0.029-0.032,0.029-0.064,0.059
			c-1.561,0.869-2.634,2.415-2.889,4.221l-0.112,0.92c-0.222,1.777,0.45,3.574,1.738,4.818c0.029,0.032,0.029,0.032,0.059,0.064
			c1.464,1.439,1.988,3.659,1.354,5.63l-0.266,0.88c-0.604,2.004-2.264,3.547-4.318,3.865c-0.031,0.029-0.031,0.029-0.094,0.025
			c-1.775,0.303-3.317,1.391-4.115,2.982l-0.449,0.87c-0.799,1.592-0.811,3.473-0.004,5.092c-0.004,0.061-0.004,0.061,0.025,0.094
			c0.914,1.871,0.636,4.108-0.629,5.767l-0.565,0.74c-1.265,1.657-3.35,2.529-5.396,2.139l-0.063-0.004
			c-1.77-0.345-3.588,0.172-4.92,1.363l-0.685,0.672c-1.335,1.252-1.987,3.006-1.779,4.808l-0.003,0.062
			c0.225,2.08-0.783,4.092-2.574,5.227l-0.768,0.513c-1.76,1.106-4.018,1.197-5.813,0.172c-0.027-0.032-0.027-0.032-0.057-0.065
			c-1.557-0.888-3.461-1.056-5.104-0.345l-0.853,0.354c-1.705,0.708-2.865,2.155-3.334,3.919l-0.004,0.063
			c-0.514,2.039-2.141,3.553-4.173,4.027l-0.937,0.194c-2.031,0.474-4.154-0.2-5.484-1.816c-0.029-0.032-0.029-0.032-0.059-0.065
			c-1.159-1.359-2.873-2.164-4.668-2.078l-0.959,0.039c-1.795,0.085-3.451,1.043-4.432,2.563l-0.032,0.029
			c-1.177,1.755-3.262,2.627-5.314,2.358l-0.92-0.112c-2.085-0.239-3.859-1.634-4.583-3.618l-0.029-0.032
			c-0.584-1.699-1.928-3.069-3.659-3.566l-0.909-0.298c-1.699-0.526-3.568-0.198-5.016,0.864c-0.032,0.029-0.064,0.058-0.064,0.058
			c-1.705,1.233-3.963,1.323-5.793,0.389l-0.841-0.417c-1.86-0.967-3.082-2.855-3.057-4.983c0,0,0,0,0.003-0.062
			c0.005-1.759-0.793-3.5-2.244-4.599l-0.74-0.566c-1.451-1.099-3.316-1.418-5.04-0.928c-0.033,0.028-0.033,0.028-0.065,0.058
			c-2.006,0.568-4.19-0.108-5.588-1.605l-0.64-0.715c-0.698-0.779-1.2-1.733-1.392-2.731l7.922-7.09l73.458-65.915l11.884-10.636
			C2610.076,1027.319,2610.342,1027.551,2610.545,1027.777z"/>
		<path style="fill:#50BFA5;" d="M2597.924,1037.786c16.796,18.767,14.827,47.956-4.433,65.191
			c-19.198,17.181-48.336,15.948-65.164-2.731L2597.924,1037.786z"/>
		<path style="fill:#F7CC7F;" d="M2547.593,1104.46c-1.381,2.132-4.227,2.742-6.359,1.362s-2.742-4.227-1.361-6.359
			c1.379-2.132,8.436-8.344,10.567-6.965C2552.571,1093.878,2548.972,1102.328,2547.593,1104.46z"/>
		<path style="fill:#F7CC7F;" d="M2569.188,1102.531c0.805,2.41-0.498,5.015-2.907,5.818c-2.409,0.804-5.013-0.498-5.816-2.907
			c-0.804-2.409-1.249-11.801,1.161-12.604C2564.034,1092.033,2568.386,1100.122,2569.188,1102.531z"/>
		<path style="fill:#F7CC7F;" d="M2587.9,1090.054c2.079,1.459,2.58,4.327,1.12,6.405c-1.459,2.078-4.328,2.58-6.405,1.121
			c-2.079-1.461-8.021-8.746-6.561-10.825C2577.515,1084.677,2585.821,1088.594,2587.9,1090.054z"/>
		<path style="fill:#F7CC7F;" d="M2595.647,1069.349c2.492,0.491,4.115,2.908,3.625,5.399c-0.49,2.492-2.908,4.115-5.4,3.625
			s-10.879-4.738-10.389-7.23S2593.155,1068.858,2595.647,1069.349z"/>
		<path style="fill:#F7CC7F;" d="M2593.357,1048.926c2.405-0.815,5.017,0.473,5.832,2.878c0.815,2.404-0.472,5.017-2.877,5.831
			c-2.405,0.816-11.794,1.311-12.61-1.095C2582.887,1054.135,2590.952,1049.742,2593.357,1048.926z"/>
	</g>
	<path style="fill:#184655;" d="M2622.847,1474.825c6.309,27.051-23.057,57.021-65.592,66.941
		c-42.533,9.919-82.129-3.968-88.438-31.019s23.059-57.021,65.593-66.94C2576.944,1433.888,2616.54,1447.775,2622.847,1474.825z"/>
	<path style="fill:#F8A492;" d="M2028.193,458.916c-2.004-1.578-5.064-3.467-5.979-5.553c-0.915-2.086,12.379,1.217,11.644-0.85
		c-0.734-2.066-7.479-4.816-9.974-4.816c-2.492,0-13.78-0.307-13.78-0.307l-31.493-8.581c0,0-64.287-17.669-68.274-18.866
		l-54.539-49.889l-26.524,20.318c0,0,59.402,55.068,63.478,57.165c3.425,1.762,109.912,14.58,109.912,14.58
		s11.361,11.985,17.935,12.665c6.573,0.68,18.134-12.807,18.134-12.807S2030.196,460.494,2028.193,458.916z"/>
	<path style="fill:#86B1F2;" d="M1854.874,353.528c-5.696-7.876-13.801-13.836-24.139-10.879
		c-6.407,1.832-11.521,7.174-13.617,13.432c-2.494,7.446-0.349,19.185,3.699,25.547c9.19,14.447,21.111,26.825,32.752,39.414
		c12.442-9.293,28.379-22.051,31.366-31.843C1884.878,389.116,1862.401,363.936,1854.874,353.528z"/>
	<path style="fill:#F8A492;" d="M2064.687,449.169c0,0-1.357-8.14-0.227-10.653c1.131-2.513,1.678-1.155,1.984-0.145
		c0.3,0.993,0.82,4.537,0.82,4.537s-0.882-6.629-0.213-8.617c0.67-1.988,2.406-2.254,3.076-1.631
		c0.67,0.623,1.908,6.716,1.908,6.716s-2.453-9.481-0.9-10.803c1.553-1.322,6.99,7.506,5.812,11.89
		S2064.687,449.169,2064.687,449.169z"/>
	<g>
		<path style="fill:#3C8F7C;" d="M2608.417,913.31c-16.684,18.681-48.647,15.777-74.898-1.751
			c-26.104-17.744-40.801-46.277-29.755-68.757c10.913-22.363,48.593-27.992,80.448-6.486
			C2616.108,857.761,2625.042,894.795,2608.417,913.31z"/>
		<path style="fill:#50BFA5;" d="M2602.325,905.859c-13.076,16.939-40.484,15.775-63.512,1.123
			c-22.937-14.807-35.996-39.436-27.197-58.846c8.713-19.312,39.783-24.638,67.064-7.39
			C2605.991,857.937,2615.364,889.039,2602.325,905.859z"/>
		<g>
			<path style="fill:#96D9C9;" d="M2531.155,890.39c-2.19,0.677-5.045-0.493-6.42-2.619c-1.375-2.126-0.746-4.437,1.447-5.156
				c2.184-0.751,11.463-1.006,12.834,1.223C2540.372,886.027,2533.331,889.695,2531.155,890.39z"/>
			<path style="fill:#96D9C9;" d="M2552.102,903.701c-0.429,2.106-2.784,3.014-5.255,2.071c-2.473-0.943-4.16-3.381-3.775-5.488
				c0.391-2.102,4.258-8.717,6.804-7.771C2552.44,893.465,2552.549,901.601,2552.102,903.701z"/>
			<path style="fill:#96D9C9;" d="M2574.327,907.803c1.063,2.372,0.053,4.558-2.213,4.9s-4.938-1.258-6.012-3.588
				c-1.039-2.332-2.754-11.021-0.492-11.433C2567.925,897.258,2573.304,905.418,2574.327,907.803z"/>
			<path style="fill:#96D9C9;" d="M2592.134,899.672c1.924,2.133,2.082,4.863,0.393,6.078c-1.689,1.217-4.572,0.49-6.473-1.602
				c-1.862-2.113-7.15-10.721-5.53-11.992C2582.197,890.843,2590.243,897.507,2592.134,899.672z"/>
			<path style="fill:#96D9C9;" d="M2598.116,880.608c2.636,1.002,4.621,3.696,4.424,5.971c-0.197,2.276-2.467,3.265-5.059,2.254
				c-2.573-1.056-11.716-6.717-11.615-8.944C2585.985,877.598,2595.483,879.563,2598.116,880.608z"/>
			<path style="fill:#96D9C9;" d="M2519.138,860.063c-2.694-0.325-4.623,1.229-4.33,3.433s2.665,4.238,5.318,4.582
				c2.646,0.307,11.896-0.518,11.68-2.728C2531.585,863.081,2521.835,860.345,2519.138,860.063z"/>
			<path style="fill:#96D9C9;" d="M2529.431,846.067c-2.123-1.892-5.314-2.366-7.086-1.08c-1.773,1.287-1.471,3.816,0.633,5.667
				c2.134,1.813,11.27,7.317,13.055,6.134C2537.868,855.557,2531.591,847.933,2529.431,846.067z"/>
			<path style="fill:#96D9C9;" d="M2549.89,840.132c-0.609-2.32-3.363-4.381-6.12-4.565c-2.757-0.185-4.445,1.549-3.8,3.84
				c0.683,2.283,5.551,10.664,8.217,10.912C2550.897,850.561,2550.525,842.454,2549.89,840.132z"/>
			<path style="fill:#96D9C9;" d="M2574.181,847.907c0.642-2.01-1.051-4.724-3.793-6.018c-2.742-1.294-5.455-0.67-6.051,1.349
				c-0.579,2.023-0.063,10.446,2.581,11.726C2569.579,856.249,2573.542,849.921,2574.181,847.907z"/>
			<path style="fill:#96D9C9;" d="M2593.022,863.565c1.934-0.988,1.967-3.636,0.027-5.901c-1.936-2.266-5.102-3.254-7.021-2.221
				c-1.926,1.029-6.775,6.945-4.861,9.137C2583.069,866.756,2591.075,864.537,2593.022,863.565z"/>
		</g>
	</g>
</g>
</svg>
