<svg width="1872" height="858" viewBox="0 0 1872 858" fill="none" xmlns="http://www.w3.org/2000/svg">
<rect width="1872" height="858" fill="black"/>
<g id="7732680_5307 1">
<rect width="1872" height="858" fill="white"/>
<g id="Group">
<g id="RightGirl">
<path id="Vector" d="M1527.56 441.691C1530.35 431.573 1538.18 420.101 1552.4 418.967C1570.01 417.561 1587.68 433.445 1596.53 443.955C1602.82 451.428 1606.66 460.661 1604.55 469.518C1601.25 483.383 1582.88 493.164 1565.34 492.012C1551.41 491.097 1538.96 484.148 1531.34 474.952C1523.74 465.783 1524.67 452.154 1527.56 441.691Z" fill="#B75742"/>
<path id="Vector_2" d="M1578.58 490.132L1592.56 484.452C1592.56 484.452 1607.35 513.368 1609.18 521.811C1609.84 524.878 1607.15 556.447 1606.04 562.815C1606.41 575.109 1600.97 577.913 1598.05 581.703C1598.05 581.703 1591.81 584.286 1591.57 583.908C1591.25 583.448 1591.86 582.815 1592.83 582.273C1593.2 582.067 1593.7 581.964 1594.1 581.753C1594.49 581.544 1594.87 581.147 1595.22 580.959C1596.05 580.506 1596.66 580.351 1596.66 580.351C1596.66 580.351 1597.06 579.543 1597.67 578.699C1598.12 578.086 1598.8 577.407 1598.9 577.23C1599.45 576.162 1598.81 576.529 1598.81 576.529C1598.17 577.364 1594.65 580.77 1594.65 580.77C1594.65 580.77 1587.95 584.93 1587.85 584.504C1587.82 584.301 1588 583.592 1589.08 582.482C1589.37 582.184 1590.18 581.812 1590.58 581.455C1590.88 581.186 1591.16 580.808 1591.55 580.498C1591.96 580.158 1592.56 579.952 1592.98 579.604C1593.62 579.087 1593.87 578.39 1594.27 577.963C1595.91 576.256 1596.5 574.939 1595.82 575.485C1594.81 576.303 1593.27 579.63 1588.61 582.285C1587.82 582.717 1587.29 582.877 1587.21 582.612C1587.15 582.408 1587.18 581.633 1587.77 580.948C1588.18 580.482 1589.01 580.206 1589.55 579.612C1589.87 579.265 1590.05 578.791 1590.38 578.417C1591.67 576.927 1592.24 577.707 1593.45 571.901C1592.78 572.138 1592.18 572.5 1591.9 572.689C1591.39 573.042 1588.94 576.413 1588.06 575.681C1587.18 574.941 1592.23 567.165 1592.23 567.165L1596.44 562.756C1595.49 532.798 1594.35 525.625 1594.11 525.38L1578.58 490.132Z" fill="#F7A491"/>
<path id="Vector_3" d="M1553.67 587.81L1544.68 653.922C1544.68 653.922 1549.07 667.903 1548.54 671.875C1548.01 675.847 1538.77 727.951 1538.77 727.951L1539.19 730.813L1539.41 739.291L1504.86 739.505C1504.86 739.505 1512.14 736.821 1522.33 731.517C1523.08 731.125 1525.54 729.829 1525.96 727.336C1528.68 711.276 1522.58 657.753 1522.58 657.753L1518.34 588.024L1553.67 587.81Z" fill="#F7A491"/>
<path id="Vector_4" d="M1542.17 722.466L1523.57 721.558C1523.57 721.558 1522.48 661.77 1519.93 648.786C1517.39 635.801 1515.91 592.434 1518.48 575.711C1520.69 561.321 1528.91 538.218 1528.91 538.218L1557.7 543.099L1563.52 544.307L1547.9 653.315C1547.9 653.315 1549.34 660.677 1550.07 668.226C1550.8 675.775 1542.17 722.466 1542.17 722.466Z" fill="#B75742"/>
<path id="Vector_5" d="M1580.89 599.983C1582.83 600.385 1585.81 657.126 1587.42 659.641C1597.59 675.584 1600.01 724.057 1600.01 724.057L1604.2 730.844L1603.24 737.385C1603.24 737.385 1595.65 740.966 1590.32 738.551L1591.15 732.001L1591.78 723.251L1566.11 662.861L1552.07 601.263L1580.89 599.983Z" fill="#F7A491"/>
<path id="Vector_6" d="M1539.58 741.469H1503.91C1502.59 741.371 1502.27 740.484 1502.73 739.938C1503.67 738.812 1510.63 736.11 1515.3 734.316C1523.51 735.028 1537.89 732.334 1539.18 730.768C1539.93 733.904 1540.31 741.336 1539.58 741.469Z" fill="#355389"/>
<path id="Vector_7" d="M1604.18 730.827C1604.18 730.827 1601.26 735.889 1597.84 735.675C1594.41 735.462 1591.17 731.966 1591.17 731.966C1591.17 731.966 1589.88 736.878 1590.48 739.584C1591.08 742.289 1595.96 745.065 1599.3 743.855C1602.64 742.644 1607.18 736.379 1604.18 730.827Z" fill="#355389"/>
<path id="Vector_8" d="M1565.76 531.06C1565.76 531.06 1566.55 536.343 1567.39 537.401C1569.65 540.247 1575.86 549.188 1579.33 556.161C1582.45 562.444 1583.46 567.597 1584.66 573.41C1588.41 591.526 1587.21 646.787 1587.21 646.787C1587.21 646.787 1593.93 658.714 1596.65 674.567C1599.37 690.42 1601.38 716.651 1601.38 716.651L1587.49 719.596L1559.24 649.203C1559.24 649.203 1545.81 587.563 1541.45 579.41C1537.09 571.257 1528.89 538.156 1528.89 538.156L1565.76 531.06Z" fill="#F47458"/>
<path id="Vector_9" d="M1587.13 631.707C1587.13 631.715 1587.12 631.715 1587.12 631.706L1587.13 631.707Z" fill="#F47458"/>
<path id="Vector_10" d="M1444.75 414.83C1445.07 412.48 1453.17 410.586 1455.55 410.023C1457.93 409.459 1456.39 409.917 1459.03 410.599C1459.36 410.682 1467.36 420.468 1467.36 420.468C1469.88 423.657 1493.04 452.039 1500.84 456.348C1508.8 460.749 1540.55 468.425 1540.55 468.425L1542 484.678C1542 484.678 1498.17 472.628 1488.79 466.169C1481.02 460.819 1465.54 435.061 1458.16 425.568L1458.15 425.571C1456.23 423.584 1444.44 417.18 1444.75 414.83Z" fill="#F7A491"/>
<path id="Vector_11" d="M1556.52 463.674C1576.02 463.897 1583.52 461.481 1598.65 490.025C1601.28 494.99 1602.78 498.574 1602.82 498.661C1602.82 498.661 1589.51 503.459 1584.74 504.998C1584.74 504.998 1580.06 493.498 1578.13 494.833C1573.77 497.844 1566.41 532.436 1567.5 537.158C1567.5 537.158 1545.34 540.983 1528.86 538.212C1528.86 538.212 1526.37 503.9 1525.56 502.361C1524.74 500.821 1519.75 494.082 1523.83 486.455C1524.56 485.092 1526.38 481.015 1525.1 480.736C1515.11 478.546 1500.04 472.524 1500.04 472.524L1507.17 458.016C1507.17 458.016 1529.23 462.05 1536.72 462.806C1543.25 463.466 1549.84 463.606 1556.41 463.673C1556.45 463.673 1556.48 463.673 1556.52 463.674Z" fill="#F7CC7F"/>
<path id="Vector_12" d="M1555.76 451.274C1555.76 451.274 1556.3 461.174 1557.87 464.819C1559.44 468.464 1554.58 481.685 1544.74 483.615C1534.9 485.544 1544.56 467.909 1544.4 464.072C1544.24 460.237 1541.08 448.872 1541.08 448.872L1555.76 451.274Z" fill="#F7A491"/>
<path id="Vector_13" d="M1542.57 454.592C1541.8 451.465 1541.08 448.872 1541.08 448.872L1555.76 451.274C1555.76 451.274 1555.87 453.299 1556.14 455.854C1550.63 457.895 1545.93 456.982 1542.57 454.592Z" fill="#F47458"/>
<path id="Vector_14" d="M1552.8 424.233C1552.8 424.233 1558.57 425.522 1561.89 430.073C1565.22 434.625 1566.88 447.698 1554.64 453.277C1542.4 458.855 1533.72 449.917 1534.09 441.556C1534.46 433.195 1537.39 422.135 1552.8 424.233Z" fill="#F7A491"/>
<path id="Vector_15" d="M1531.54 438.832C1532.42 440.889 1534.35 442.221 1535.84 441.807C1537.34 441.394 1537.83 439.391 1536.95 437.334C1536.06 435.277 1534.13 433.946 1532.64 434.359C1531.14 434.773 1530.65 436.775 1531.54 438.832Z" fill="#F7A491"/>
<path id="Vector_16" d="M1551.07 423.889C1551.07 423.889 1557.67 437.562 1564.12 439.019C1570.58 440.477 1570.07 447.202 1570.07 447.202C1570.07 447.202 1570.89 431.656 1564.99 427.845C1559.1 424.034 1551.07 423.889 1551.07 423.889Z" fill="#B75742"/>
<path id="Vector_17" d="M1561.36 441.695C1560.36 443.831 1561.01 446.002 1562.81 446.542C1564.62 447.081 1566.88 445.786 1567.88 443.649C1568.87 441.512 1568.22 439.342 1566.42 438.802C1564.62 438.262 1562.35 439.557 1561.36 441.695Z" fill="#F7A491"/>
<path id="Vector_18" d="M1408.85 371.578L1458.21 419.082L1458.25 419.124C1459.17 420.01 1460.93 420.118 1462.18 419.366C1463.43 418.614 1463.69 417.286 1462.77 416.399C1462.75 416.379 1462.72 416.353 1462.7 416.334L1410.57 370.525L1410.55 370.51C1410.18 370.183 1409.51 370.163 1409.04 370.464C1408.59 370.759 1408.51 371.251 1408.85 371.578Z" fill="#184655"/>
<path id="Vector_19" d="M1450.5 411.379L1457.95 418.941L1458 418.989C1458.94 419.947 1460.63 420.157 1461.88 419.511C1461.71 419.725 1461.49 419.92 1461.23 420.087C1459.96 420.892 1458.12 420.718 1457.11 419.699L1457.07 419.651L1449.31 411.78C1449.71 411.64 1450.1 411.506 1450.5 411.379Z" fill="#F47458"/>
<path id="Vector_20" d="M1450.77 408.015C1450.77 408.015 1442.81 413.671 1444.81 416.038C1447.02 418.653 1449.85 420.063 1450 419.277C1450.15 418.491 1448.29 414.677 1448.29 414.677C1448.29 414.677 1450.81 412.12 1451.31 410.738C1451.8 409.357 1452.17 407.93 1450.77 408.015Z" fill="#F7A491"/>
<path id="Vector_21" d="M1454.49 411.033C1454.49 411.033 1459.49 412.761 1459.78 412.266C1460.06 411.77 1459.03 410.599 1459.03 410.599C1459.03 410.599 1452.3 406.496 1452.05 407.968C1451.81 409.441 1454.49 411.033 1454.49 411.033Z" fill="#F7A491"/>
<path id="Vector_22" d="M1445.64 410.024C1445.64 410.024 1449.97 406.089 1450.13 407.402C1450.34 408.986 1446.73 413.574 1444.96 413.574C1443.19 413.574 1443.19 412.208 1445.64 410.024Z" fill="#F7A491"/>
</g>
<path id="Vector_23" d="M1075.12 296.182C1070.46 294.665 1068.62 292.144 1063.62 291.233C1063.28 294.916 1053.91 315.551 1053.09 316.591C1049.77 320.809 1044.5 322.159 1044.5 322.159C1044.5 322.159 1062.55 341.987 1064.38 340.353C1066.2 338.718 1063.8 338.576 1063.95 332.198C1063.96 331.632 1061.02 323.762 1066.25 314.127C1070.73 305.873 1073.67 301.045 1075.12 296.182Z" fill="#F7A491"/>
<path id="Vector_24" d="M1043.72 322.422L1064.55 342.636C1065.41 343.329 1066.35 343.011 1066.55 342.444C1066.95 341.276 1065.19 335.81 1063.98 332.149C1058.58 327.901 1052.55 318.173 1053.12 316.557C1050.02 317.9 1043.41 321.931 1043.72 322.422Z" fill="#355389"/>
<path id="Vector_25" d="M1024.25 205.835L1041.46 227.991C1041.46 227.991 1087.58 244.366 1095.95 256.678C1104.31 268.989 1066.37 317.064 1066.37 317.064C1066.37 317.064 1061.83 316.335 1058.48 315.313C1055.94 314.535 1053.03 312.59 1053.03 312.59L1070 265.04L1015.33 245.383L1024.25 205.835Z" fill="#B75742"/>
<g id="Group_2">
<path id="Vector_26" d="M637.248 494.817L586.67 408.524C556.961 419.726 544.199 448.125 558.166 471.954C572.132 495.784 607.539 506.02 637.248 494.817Z" fill="#B75742"/>
<g id="Group_3">
<path id="Vector_27" d="M593.329 485.713L603.92 456.026L570.608 468.586C575.499 476.289 583.451 482.271 593.329 485.713Z" fill="#F47458"/>
<path id="Vector_28" d="M609.786 458.749L599.538 487.477C608.378 489.446 617.695 489.284 626.353 487.014L609.786 458.749Z" fill="#F47458"/>
<path id="Vector_29" d="M602.111 450.882C589.985 446.457 579.298 442.689 568.227 439.417C564.747 447.348 564.701 455.808 568.091 463.709L602.111 450.882Z" fill="#F47458"/>
<path id="Vector_30" d="M570.838 434.568C581.012 437.586 590.83 441 601.692 444.94L587.211 420.231C580.298 423.74 574.624 428.709 570.838 434.568Z" fill="#F47458"/>
</g>
<path id="Vector_31" d="M610.238 473.486C611.621 473.656 612.942 472.749 613.189 471.459C613.436 470.17 612.314 466.489 610.919 466.401C609.524 466.314 608.427 469.554 608.181 470.843C607.933 472.133 608.855 473.316 610.238 473.486Z" fill="#F7CC7F"/>
<path id="Vector_32" d="M618.654 484.927C619.992 484.597 620.689 483.319 620.211 482.072C619.733 480.826 616.723 477.903 615.42 478.312C614.116 478.721 614.889 482.021 615.367 483.267C615.845 484.514 617.317 485.257 618.654 484.927Z" fill="#F7CC7F"/>
<path id="Vector_33" d="M584.457 481.286C585.702 481.798 587.313 481.273 588.056 480.112C588.798 478.952 589.184 475.174 587.895 474.738C586.606 474.302 584.289 477.097 583.547 478.257C582.804 479.417 583.212 480.774 584.457 481.286Z" fill="#F7CC7F"/>
<path id="Vector_34" d="M584.147 470.356C584.683 471.393 586.336 471.828 587.837 471.328C589.34 470.828 592.681 468.148 592.05 467.146C591.419 466.144 587.398 467.074 585.896 467.574C584.393 468.074 583.61 469.319 584.147 470.356Z" fill="#F7CC7F"/>
<path id="Vector_35" d="M572.862 457.029C573.398 458.066 575.051 458.502 576.553 458.001C578.054 457.501 581.396 454.821 580.765 453.819C580.134 452.818 576.113 453.747 574.61 454.248C573.108 454.747 572.325 455.993 572.862 457.029Z" fill="#F7CC7F"/>
<path id="Vector_36" d="M584.247 451.424C583.953 452.521 585.003 453.633 586.593 453.907C588.183 454.182 592.832 453.503 593.024 452.391C593.216 451.279 589.249 450.208 587.659 449.934C586.069 449.659 584.542 450.327 584.247 451.424Z" fill="#F7CC7F"/>
<path id="Vector_37" d="M578.448 432.405C577.655 433.33 578.098 434.679 579.437 435.418C580.777 436.158 585.398 436.951 586.103 435.982C586.809 435.012 583.65 432.81 582.311 432.07C580.971 431.331 579.242 431.48 578.448 432.405Z" fill="#F7CC7F"/>
<path id="Vector_38" d="M588.473 432.93C587.24 433.461 586.863 434.822 587.631 435.972C588.399 437.122 592.054 439.525 593.235 438.922C594.416 438.32 592.866 435.202 592.098 434.052C591.329 432.903 589.707 432.4 588.473 432.93Z" fill="#F7CC7F"/>
</g>
<path id="Vector_39" d="M1023.98 638.029C1023.98 638.029 1091.63 604.274 1099.89 592.437C1108.16 580.6 1097.95 577.743 1096.91 571.727C1095.6 564.079 1097.81 561.455 1108.01 555.591C1118.21 549.727 1137.74 545.257 1143.61 534.091C1149.49 522.925 1137.49 489.209 1137.49 489.209L1127.47 485.776L1137.77 480.612C1137.77 480.612 1151.5 420.56 1142.26 410.123C1142.26 410.123 1122.48 423.42 1110.4 438.831C1098.32 454.241 1090.13 454.464 1090.13 454.464L1099.83 462.049L1088.92 456.798C1088.92 456.798 1071.83 472.531 1071.48 488.664C1071.12 504.798 1066.92 507.478 1066.92 507.478L1079.18 514.063L1064.5 511.163C1064.5 511.163 1055.82 525.887 1045.81 531.431C1032.76 538.656 1016.1 548.625 1015.47 571.848C1014.85 595.071 1023.98 638.029 1023.98 638.029Z" fill="#3C8F7C"/>
<g id="Group_4">
<path id="Vector_40" d="M1095.29 630.789C1095.29 630.789 1188.58 609.092 1203.28 596.807C1217.99 584.523 1207.31 577.863 1208.68 570.035C1210.42 560.082 1214.13 557.474 1228.52 553.235C1242.92 548.996 1267.59 549.322 1279.22 537.15C1290.85 524.98 1291.31 479.231 1291.31 479.231L1271.67 472.54L1295.32 468.577C1295.32 468.577 1334.32 409.665 1328.02 393.83C1328.02 393.83 1294.82 392.583 1274.14 408.178C1253.46 423.773 1253.46 423.773 1253.46 423.773L1263.57 438.849L1247.59 428.933C1247.59 428.933 1221.94 438.531 1214.62 458.577C1207.29 478.623 1201.25 480.7 1201.25 480.7L1212.72 492.636L1196.85 484.57C1196.85 484.57 1185.64 504.141 1166.38 504.233C1147.13 504.326 1118.72 505.992 1108.04 534.813C1097.36 563.636 1095.29 630.789 1095.29 630.789Z" fill="#50BFA5"/>
<path id="Vector_41" d="M1203.28 596.807C1217.99 584.523 1207.31 577.863 1208.68 570.034C1210.42 560.082 1214.13 557.474 1228.52 553.234C1242.92 548.995 1267.59 549.322 1279.22 537.15C1290.85 524.98 1291.31 479.231 1291.31 479.231L1271.67 472.54L1295.32 468.577C1295.32 468.577 1334.32 409.665 1328.02 393.83C1328.02 393.83 1293.99 429.761 1262.71 449.597C1231.43 469.434 1259.8 488.688 1230.7 511.442C1201.61 534.196 1200.88 520.194 1164.51 539.447C1128.14 558.701 1095.29 630.789 1095.29 630.789C1095.29 630.789 1188.58 609.092 1203.28 596.807Z" fill="#3C8F7C"/>
</g>
<path id="Plate" d="M587.136 705.761C587.121 705.892 587.111 706.022 587.111 706.153C587.111 724.703 738.679 739.741 925.648 739.741C1112.62 739.741 1264.19 724.703 1264.19 706.153C1264.19 706.022 1264.18 705.892 1264.16 705.761H587.136Z" fill="#466EB6"/>
<path id="Plate_2" d="M441.69 645.633C441.669 645.955 441.655 646.277 441.655 646.599C441.655 692.24 658.997 729.24 927.103 729.24C1195.21 729.24 1412.55 692.24 1412.55 646.599C1412.55 646.277 1412.54 645.955 1412.52 645.633H441.69Z" fill="#355389"/>
<path id="Plate_3" d="M1370.28 643.233C1370.28 658.886 1170.31 671.576 923.626 671.576C778.454 671.576 649.459 667.18 567.877 660.374C563.24 659.986 558.759 659.593 554.435 659.187C515.508 655.57 489.452 651.348 480.457 646.789C480.446 646.786 480.439 646.78 480.428 646.771C478.148 645.613 476.973 644.432 476.973 643.233C476.973 640.094 485.022 637.072 499.886 634.25C511.266 632.086 526.644 630.041 545.458 628.145C624.531 620.184 764.338 614.892 923.626 614.892C1170.31 614.892 1370.28 627.582 1370.28 643.233Z" fill="#466EB6"/>
<g id="Group_5">
<path id="Vector_42" d="M988.504 648.222C988.504 648.222 960.116 617.845 963.686 607.279C967.256 596.712 975.169 597.679 979.595 594.859C985.222 591.274 981.591 586.621 980.318 578.415C979.044 570.209 982.077 560.171 986.404 551.14C990.732 542.108 1008.76 527.377 1008.76 527.377L1018.14 535.148L1014.21 522.488C1014.21 522.488 1039.8 487.231 1051.19 485.963C1051.19 485.963 1060.88 501.862 1056.89 516.26C1052.9 530.658 1052.9 530.658 1052.9 530.658L1043.82 534.493L1052.63 533.338C1052.63 533.338 1057.7 551.917 1047.39 561.006C1037.08 570.095 1039.9 573.404 1039.9 573.404L1042.18 576.535C1042.18 576.535 1035.42 584.948 1040.54 594.392C1045.66 603.837 1038.76 619.15 1023.98 632.287C1009.2 645.425 988.504 648.222 988.504 648.222Z" fill="#50BFA5"/>
</g>
<path id="Vector_43" d="M1035.16 595.514C1048.83 603.442 1047.31 623.846 1031.77 641.086C1016.23 658.327 992.545 665.877 978.874 657.949C965.204 650.021 966.721 629.617 982.264 612.376C997.806 595.135 1021.49 587.585 1035.16 595.514Z" fill="#184655"/>
<g id="Group_6">
<g id="Group_7">
<path id="Vector_44" d="M613.326 685.672C613.326 685.672 631.22 587.243 620.219 561.557C609.218 535.869 593.416 553.437 593.416 553.437C593.416 553.437 583.869 498.781 565.36 493.933C546.851 489.084 547.525 515.039 547.525 515.039C547.525 515.039 511.704 460.81 498.653 467.31C474.344 479.417 509.875 540.378 509.875 540.378C509.875 540.378 489.953 519.518 480.712 532.591C466.774 552.304 522.398 586.256 522.398 586.256L613.326 685.672Z" fill="#50BFA5"/>
</g>
<path id="Vector_45" d="M497.333 590.834C489.533 574.847 508.203 580.681 508.203 580.681C508.203 580.681 466.775 552.304 480.713 532.591C489.954 519.518 509.876 540.378 509.876 540.378C509.876 540.378 474.345 479.417 498.653 467.31L612.603 684.576C598.718 676.833 509.41 615.586 497.333 590.834Z" fill="#3C8F7C"/>
</g>
<g id="Group_8">
<path id="Vector_46" d="M1119.57 538.865C1108.58 534.593 1103.6 524.119 1108.22 515.021C1120.32 491.175 1126.46 465.829 1126.46 439.686C1126.46 317.144 989.777 222.123 836.596 241.894C816.268 244.518 802.329 226.456 813.565 213.072C817.127 208.828 822.774 205.928 829.058 205.114C844.795 203.077 860.835 202.043 876.733 202.043C915.518 202.043 953.312 208.003 989.065 219.757C1025.48 231.726 1058.14 249.189 1086.16 271.657C1171.22 339.887 1195.62 441.415 1151.25 529.058C1146.12 539.199 1131.55 543.528 1119.57 538.865Z" fill="#86B1F2"/>
</g>
<g id="InnerCircle">
<path id="Vector_47" d="M807.72 517.995C745.889 486.238 717.171 426.481 734.09 370.357C737.121 360.301 750.303 354.769 762.254 358.217C772.6 361.201 778.457 369.916 775.876 378.488C766.613 409.262 775.309 441.184 799.734 466.066C844.145 511.311 924.377 517.872 978.955 483.657C982.741 481.284 987.464 479.976 992.256 479.976C1002.03 479.976 1007.78 485.322 1007.89 485.384C1007.99 485.514 1014.38 490.395 1013.7 498.404C1013.29 503.261 1010.31 507.765 1005.55 510.762C947.062 547.508 867.903 548.906 807.72 517.995Z" fill="#466EB6"/>
</g>
<g id="Group_9">
<path id="Vector_48" d="M1346.8 628.783C1346.8 628.783 1338.36 669.38 1272.03 663.558C1204.31 657.615 1182.41 676.242 1124.88 674.234C1078.53 672.616 1018.58 621.954 1042.08 559.031C1065.58 496.108 1336.4 473.745 1346.8 628.783Z" fill="#F7CC7F"/>
<path id="Vector_49" d="M1346.69 626.074C1347.08 629.163 1346.56 632.291 1345.24 635.21C1340.26 646.21 1323.31 670.485 1271.7 665.955C1203.99 660.012 1182.35 676.618 1124.87 674.311C1078.55 672.451 1017.99 626.255 1040.62 569.724C1063.03 513.728 1329.51 490.574 1346.69 626.074Z" fill="#F47458"/>
<path id="Vector_50" d="M1040.62 569.724C1064.25 518.129 1301.4 496.989 1341.58 607.134C1343.84 613.318 1345.51 619.656 1346.69 626.073C1343.25 586.054 1316.26 554.041 1264 536.3C1187.06 510.617 1089.12 526.491 1053.83 553.523C1047.87 557.957 1042.91 563.477 1040.62 569.724Z" fill="#FAE0B2"/>
<path id="Vector_51" d="M1095.4 652.851C1095.4 652.851 1052.8 636.098 1051.3 606.51C1049.79 576.923 1082.34 551.694 1109.9 546.578C1137.47 541.463 1104.48 552.952 1092.72 590.281C1080.96 627.609 1117.96 653.462 1095.4 652.851Z" fill="#F48C7F"/>
<path id="Vector_52" d="M1315.08 627.524C1327.7 627.206 1337.31 618.152 1335.43 608.14C1333.89 599.966 1327.76 589.589 1311.32 577.956C1271.54 549.804 1152.46 526.583 1142.17 547.478C1131.89 568.373 1195.15 573.636 1203.77 603.992C1210.45 627.496 1282.77 628.341 1315.08 627.524Z" fill="#F48C7F"/>
<path id="Vector_53" d="M1311.52 639.675C1318.86 640.874 1322.21 647.808 1317.72 652.625C1312.29 658.453 1302.14 664.128 1283.47 662.489C1247.54 659.335 1206.73 661.937 1173.9 665.221C1141.08 668.505 1115.1 668.965 1116.31 660.166C1117.51 651.366 1179.31 637.66 1192.37 630.196C1204.67 623.16 1281.3 634.749 1311.52 639.675Z" fill="#F48C7F"/>
</g>
<g id="CenterGirl">
<path id="Vector_54" d="M857.02 423.461L848.893 443.199L825.262 414.408L825.27 414.384C825.27 414.384 816.451 410.633 814.227 410.263C812.242 409.934 805.861 409.361 804.841 410.204C804.793 410.144 804.731 410.098 804.642 410.078C803.798 409.894 802.188 412.17 801.958 412.723C801.728 413.277 803.415 416.537 803.568 416.783C803.722 417.029 803.108 417.152 802.341 416.906C801.574 416.66 799.197 414.384 799.197 414.384C799.197 414.384 799.044 410.755 797.587 410.755C796.13 410.755 797.357 415.307 797.357 415.307L798.737 416.844L796.667 415.798C796.667 415.798 795.287 413.338 794.903 413.461C794.52 413.584 793.983 414.814 794.75 416.106C795.517 417.398 797.204 418.812 797.204 418.812L800.347 420.165C800.347 420.165 796.667 419.858 795.593 419.181C794.519 418.504 794.059 419.427 794.903 420.227C795.746 421.027 800.577 422.441 803.645 422.749C806.712 423.056 816.297 422.994 817.678 422.81C818.802 422.66 820.89 422.429 821.918 422.911C823.21 426.123 834.293 460.875 848.516 465.109C848.516 465.109 855.139 464.505 862.965 450.864C870.792 437.222 875.007 429.013 875.007 429.013L857.02 423.461ZM812.694 415.799C811.62 416.107 807.786 416.23 806.789 415.922C805.792 415.615 804.334 412.478 804.334 412.478C804.334 412.478 804.811 411.557 804.924 410.853C806.026 411.85 810.789 411.48 811.85 412.047C813 412.662 813.767 415.492 812.694 415.799Z" fill="#F7A491"/>
<path id="Vector_55" d="M943.03 429.014C943.03 429.014 947.244 437.223 955.07 450.865C962.898 464.507 969.52 465.11 969.52 465.11C983.743 460.876 994.826 426.124 996.118 422.912C997.146 422.429 999.235 422.661 1000.36 422.811C1001.74 422.996 1011.32 423.058 1014.39 422.75C1017.46 422.442 1022.29 421.027 1023.13 420.228C1023.98 419.429 1023.52 418.506 1022.44 419.182C1021.37 419.859 1017.69 420.166 1017.69 420.166L1020.83 418.813C1020.83 418.813 1022.52 417.399 1023.29 416.107C1024.05 414.816 1023.52 413.586 1023.13 413.462C1022.75 413.34 1021.37 415.8 1021.37 415.8L1019.3 416.846L1020.68 415.308C1020.68 415.308 1021.91 410.757 1020.45 410.757C1018.99 410.757 1018.84 414.385 1018.84 414.385C1018.84 414.385 1016.46 416.661 1015.69 416.907C1014.93 417.153 1014.31 417.03 1014.47 416.784C1014.62 416.538 1016.31 413.278 1016.08 412.725C1015.85 412.171 1014.24 409.895 1013.39 410.08C1013.31 410.099 1013.24 410.145 1013.19 410.205C1012.17 409.362 1005.79 409.935 1003.81 410.265C1001.58 410.634 992.766 414.386 992.766 414.386L992.774 414.409L969.143 443.2L961.016 423.462L943.03 429.014ZM1006.19 412.047C1007.25 411.48 1012.01 411.85 1013.11 410.853C1013.22 411.557 1013.7 412.478 1013.7 412.478C1013.7 412.478 1012.24 415.615 1011.25 415.922C1010.25 416.23 1006.42 416.107 1005.34 415.799C1004.27 415.492 1005.04 412.662 1006.19 412.047Z" fill="#F7A491"/>
<path id="Vector_56" d="M903.452 479.292C903.452 479.292 892.774 474.669 878.149 470.97C858.559 466.015 832.105 462.546 816.835 472.405C807.855 478.203 899.275 487.282 899.275 487.282L903.452 479.292Z" fill="#13375B"/>
<path id="Vector_57" d="M1002.48 478.724C1002.48 478.724 993.989 468.345 971.561 468.272C962.824 468.244 950.69 469.468 939.62 471.065C919.874 473.914 901.203 478.906 901.203 478.906L899.275 487.282L1002.48 478.724Z" fill="#13375B"/>
<path id="Vector_58" d="M874.63 491.548L914.138 507.664L945.746 488.107L935.907 470.014L879.353 472.076L874.63 491.548Z" fill="#13375B"/>
<path id="Vector_59" d="M885.779 378.002C881.475 370.649 881.535 356.868 885.206 348.827C888.177 342.32 895.032 338.683 903.772 338.043C913.91 337.301 920.327 338.984 928.123 343.225C936.24 347.641 945.952 352.441 955.347 354.47C967.6 357.117 980.263 359.117 991.423 363.961C998.789 367.16 1005.6 371.854 1008.44 378.175C1012.49 387.223 1007.4 397.504 999.392 404.656C987.307 415.444 968.42 421.057 950.489 419.19C936.534 417.737 923.468 411.791 914.472 403.146C910.417 399.249 907.34 396.347 902.469 393.17C896.231 389.1 889.246 383.925 885.779 378.002Z" fill="#184655"/>
<path id="Vector_60" d="M938.672 388.331C938.672 388.331 923.137 386.868 907.811 386.261C894.135 385.719 879.446 387.546 878.468 388.331C874.57 391.457 872.598 418.753 874.629 423.823C876.661 428.893 886.37 442.112 884.337 450.623C882.305 459.134 878.227 470.981 878.227 470.981C878.227 470.981 891.106 477.126 907.526 477.259C917.377 477.338 931.048 475.955 939.617 471.058C939.617 471.058 934.909 460.402 935.587 452.072C936.264 443.743 941.908 429.618 944.843 424.547C947.778 419.477 943.865 389.236 938.672 388.331Z" fill="#F47458"/>
<path id="Vector_61" d="M884.563 390.685L878.75 388.215C878.75 388.215 872.069 389.644 868.534 393.583C865.629 396.819 852.279 426.359 852.279 426.359C852.279 426.359 869.888 432.154 875.533 431.972L884.563 413.864V390.685Z" fill="#F47458"/>
<path id="Vector_62" d="M932.426 390.685L938.772 388.333C938.772 388.333 942.762 389.042 947.796 393.896C950.976 396.962 964.71 426.359 964.71 426.359C964.71 426.359 947.1 432.154 941.456 431.972L932.425 413.864L932.426 390.685Z" fill="#F47458"/>
<path id="Vector_63" d="M915.02 370.592C915.02 370.592 915.824 382.803 916.707 386.701C917.62 390.729 918.557 409.202 908.112 411.251C897.666 413.299 900.733 390.29 900.56 386.218C900.388 382.145 898.309 368.163 898.309 368.163L915.02 370.592Z" fill="#F7A491"/>
<path id="Vector_64" d="M898.309 368.163C898.309 368.163 898.729 370.984 899.206 374.46C903.049 376.877 908.361 377.539 914.525 374.729C914.791 374.608 915.042 374.478 915.297 374.35C915.124 372.161 915.02 370.593 915.02 370.593L898.309 368.163Z" fill="#F47458"/>
<path id="Vector_65" d="M910.756 342.001C910.756 342.001 916.877 343.369 920.407 348.202C923.936 353.035 925.697 366.916 912.704 372.839C899.711 378.762 890.489 369.272 890.882 360.394C891.275 351.517 894.386 339.773 910.756 342.001Z" fill="#F7A491"/>
<path id="Vector_66" d="M888.174 357.502C889.114 359.686 891.162 361.1 892.748 360.661C894.334 360.221 894.857 358.095 893.917 355.911C892.977 353.727 890.93 352.313 889.343 352.753C887.757 353.192 887.234 355.318 888.174 357.502Z" fill="#F7A491"/>
<path id="Vector_67" d="M908.916 341.635C908.916 341.635 915.92 356.153 922.775 357.701C929.63 359.248 929.082 366.389 929.082 366.389C929.082 366.389 929.96 349.883 923.698 345.836C917.437 341.79 908.916 341.635 908.916 341.635Z" fill="#184655"/>
<path id="Vector_68" d="M919.836 360.541C918.779 362.81 919.472 365.115 921.385 365.688C923.297 366.261 925.704 364.886 926.761 362.617C927.818 360.347 927.125 358.043 925.213 357.47C923.3 356.897 920.892 358.272 919.836 360.541Z" fill="#F7A491"/>
<path id="Vector_69" d="M841.036 497.964C841.036 497.964 836.502 494.861 831.072 493.624C825.642 492.388 825.68 495.597 824.17 500.523C822.661 505.45 820.23 508.661 817.139 513.416C814.047 518.171 817.472 529.144 819.144 529.309C823.184 529.707 825.209 522.785 829.166 516.909C833.123 511.034 843.844 509.19 846.962 508.967C847.522 508.927 861.448 507.354 880.059 507.727C876.282 501.712 870.744 496.772 865.061 491.504C850.844 495.238 841.036 497.964 841.036 497.964Z" fill="#F7A491"/>
<path id="Vector_70" d="M1005.35 484.244C1003.62 476.519 995.644 473.265 986.351 473.328C964.937 473.474 904.349 483.7 868.231 492.241C870.246 498.474 868.511 502.501 870.936 508.918C909.023 507.821 980.531 504.058 1001.38 494.802C1004.63 493.36 1006.19 487.978 1005.35 484.244Z" fill="#355389"/>
<path id="Vector_71" d="M979.652 517.63C977.055 512.689 974.408 509.416 973.404 504.407C972.216 498.481 972.902 495.188 963.805 497.862C958.581 499.397 952.839 499.339 947.728 497.576C944.373 496.419 940.224 494.996 935.512 493.402C932.357 498.51 930.299 503.937 929.674 509.745C940.889 510.829 949.057 511.851 949.472 511.892C951.276 512.067 963.413 514.297 966.76 520.412C970.107 526.526 971.506 534.099 975.488 533.426C977.804 533.034 982.25 522.571 979.652 517.63Z" fill="#F7A491"/>
<path id="Vector_72" d="M838.445 468.564C830.029 468.259 815.445 469.331 813.104 476.928C811.971 480.601 812.25 485.801 814.052 489.312C816.3 493.694 821.642 496.138 826.955 498.052C837.082 501.662 900.15 507.917 932.644 511.057C936.608 505.531 939.919 499.372 939.797 493.943C908.588 483.383 854.57 469.147 838.445 468.564Z" fill="#86B1F2"/>
</g>
<g id="Group_10">
<path id="Vector_73" d="M660.705 642.286L660.537 641.565C660.136 640.031 660.853 638.395 662.393 637.383C662.393 637.383 662.434 637.377 662.426 637.344C663.792 636.494 664.587 635.187 664.517 633.806L664.519 633.093C664.45 631.712 663.564 630.455 662.19 629.643C662.148 629.65 662.141 629.617 662.1 629.623C660.491 628.712 659.691 627.101 660 625.528L660.125 624.797C660.392 623.229 661.726 621.875 663.641 621.383L663.682 621.377C665.312 620.928 666.64 619.914 667.181 618.61L667.444 617.926C667.985 616.623 667.73 615.168 666.751 614.06C666.702 614.033 666.702 614.033 666.695 614.001C665.539 612.682 665.476 610.961 666.418 609.563L666.859 608.92C667.801 607.523 669.625 606.637 671.622 606.676C671.663 606.67 671.664 606.67 671.704 606.664C673.408 606.713 675.048 606.127 676.148 605.045L676.694 604.488C677.754 603.412 678.094 601.97 677.657 600.644C677.649 600.612 677.649 600.612 677.641 600.579C677.158 599.056 677.827 597.395 679.318 596.356L679.97 595.885C681.453 594.813 683.57 594.461 685.405 595.067C685.446 595.06 685.446 595.06 685.494 595.087C687.094 595.593 688.889 595.492 690.327 594.767L691.124 594.376C692.561 593.651 693.501 592.423 693.644 591.044C693.678 591.005 693.678 591.005 693.67 590.972C693.848 589.385 695.181 588.03 697.033 587.446L697.86 587.186C699.712 586.602 701.845 586.858 703.322 587.925L703.37 587.952C704.644 588.88 706.384 589.263 708.059 589.011L708.951 588.842C710.66 588.551 712.06 587.662 712.779 586.4L712.812 586.361C713.658 584.91 715.474 583.992 717.496 583.959L718.377 583.928C720.36 583.901 722.247 584.737 723.205 586.12C723.212 586.152 723.213 586.152 723.221 586.185C724.051 587.383 725.522 588.248 727.216 588.434L728.087 588.54C729.829 588.753 731.491 588.265 732.745 587.296L732.779 587.257C734.206 586.126 736.283 585.779 738.176 586.275L739.036 586.519C740.929 587.014 742.329 588.297 742.615 589.882C742.624 589.914 742.623 589.914 742.631 589.947C742.905 591.298 743.906 592.504 745.413 593.159L746.216 593.513C747.722 594.169 749.548 594.2 751.099 593.593L751.14 593.586C752.969 592.904 755.101 593.159 756.644 594.149L757.34 594.587C758.923 595.57 759.682 597.186 759.291 598.772L759.299 598.805C758.937 600.149 759.356 601.579 760.524 602.591L761.119 603.146C762.246 604.164 763.934 604.691 765.641 604.569C765.681 604.563 765.722 604.557 765.722 604.557C767.722 604.425 769.61 605.261 770.642 606.599L771.123 607.205C772.163 608.576 772.227 610.296 771.154 611.679C771.154 611.679 771.154 611.679 771.121 611.718C770.248 612.868 770.038 614.324 770.679 615.619L771.004 616.283C771.645 617.578 773.009 618.526 774.659 618.888C774.701 618.882 774.7 618.882 774.741 618.876C776.66 619.3 778.108 620.609 778.509 622.143L778.678 622.864C778.862 623.651 778.801 624.475 778.464 625.204L768.493 626.705L675.955 640.736L660.998 642.988C660.861 642.772 660.759 642.515 660.705 642.286Z" fill="#3C8F7C"/>
<path id="Vector_74" d="M675.954 640.737C671.521 621.792 687.555 603.464 711.794 599.816C735.956 596.178 759.13 608.537 763.633 627.438L675.954 640.737Z" fill="#50BFA5"/>
<path id="Vector_75" d="M749.991 617.041C752.171 616.192 754.796 616.922 755.854 618.67C756.913 620.419 756.003 622.524 753.823 623.373C751.643 624.222 742.813 625.492 741.755 623.744C740.696 621.996 747.81 617.89 749.991 617.041Z" fill="#F7CC7F"/>
<path id="Vector_76" d="M731.409 609.742C731.945 607.846 734.294 606.657 736.658 607.086C739.022 607.515 740.504 609.4 739.969 611.296C739.434 613.192 735.156 619.517 732.792 619.088C730.428 618.657 730.875 611.638 731.409 609.742Z" fill="#F7CC7F"/>
<path id="Vector_77" d="M709.424 611.66C708.449 609.881 709.457 607.804 711.676 607.022C713.894 606.24 716.483 607.048 717.458 608.828C718.433 610.607 719.681 617.733 717.462 618.515C715.244 619.297 710.399 613.44 709.424 611.66Z" fill="#F7CC7F"/>
<path id="Vector_78" d="M693.412 620.976C691.621 619.667 691.491 617.442 693.123 616.005C694.755 614.567 697.53 614.464 699.322 615.772C701.114 617.081 705.86 623.187 704.228 624.624C702.596 626.062 695.204 622.285 693.412 620.976Z" fill="#F7CC7F"/>
<path id="Vector_79" d="M685.187 635.255C682.821 634.835 681.326 632.957 681.849 631.059C682.371 629.161 684.713 627.962 687.08 628.381C689.446 628.801 697.353 632.199 696.831 634.097C696.308 635.996 687.553 635.674 685.187 635.255Z" fill="#F7CC7F"/>
</g>
<g id="LeftCircle">
<path id="Vector_80" d="M782.221 603.037C629.846 552.995 578.516 400.898 677.398 295.989C685.72 287.16 701.455 286.129 711.496 293.287C711.603 293.398 718.455 297.694 719.427 305.581C720.006 310.275 718.371 314.932 714.826 318.695C634.222 404.232 676.96 527.795 800.002 568.204C844.602 582.852 892.008 584.142 935.808 573.455C938.038 572.911 940.344 572.636 942.661 572.636C958.248 572.636 963.901 583.594 963.934 583.624C969.934 593.936 963.143 606.127 949.566 609.435C896.11 622.459 837.119 621.066 782.221 603.037Z" fill="#F47458"/>
</g>
<path id="Vector_81" d="M975.788 582.893C937.413 576.719 933.486 591.011 883.4 590.227C841.095 589.565 835.645 605.141 834.972 609.996L835.047 610.011C834.191 612.979 832.777 615.167 832.777 615.167C830.303 619.63 825.209 635.284 862.148 651.836C905.881 671.433 900.279 685.36 937.293 695.564C969.598 704.47 1001.1 690.439 1017.21 667.708C1034.57 643.207 1029.59 608.106 999.717 591.105C992.575 587.042 984.364 584.272 975.788 582.893Z" fill="#F7CC7F"/>
<path id="Vector_82" d="M795.772 606.045L795.704 606.052C795.627 606.186 801.794 609.397 814.897 611.645C821.347 612.483 822.861 613.137 837.499 613.597L838.173 613.618C840.828 613.701 840.906 616.867 838.232 617.019C836.272 617.124 834.322 617.244 832.371 617.333C832.257 617.33 807.295 618.503 792.308 612.831C789.972 612.064 788.853 609.923 789.81 608.05C790.767 606.175 793.436 605.278 795.772 606.045Z" fill="#13375B"/>
<path id="Vector_83" d="M1109.76 186.739C1109.83 186.221 1092.07 183.931 1092.07 183.931C1090.1 183.733 1079.35 180.849 1079.35 180.849C1079.35 180.849 1051.7 171.508 1050.09 171.082L1028.72 154.6L1016.36 163.716C1016.36 163.716 1042.49 182.073 1044.12 182.79C1045.68 183.476 1085.72 187.987 1088.31 188.703C1088.31 188.703 1091.58 190.297 1093.68 191.246C1095.77 192.195 1098.28 192.47 1098.96 192.58C1100.51 192.833 1104.29 192.697 1104.29 192.697C1104.29 192.697 1109.72 187.078 1109.76 186.739Z" fill="#F8A492"/>
<path id="Vector_84" d="M1108.42 185.923C1108.42 185.923 1104.96 191.138 1103.55 191.794C1102.14 192.451 1099.69 192.123 1099.69 192.123L1108.42 185.923Z" fill="#F47458"/>
<path id="Vector_85" d="M1141.77 302.964C1136.76 303.212 1133.74 301.579 1128.74 302.494C1130.42 305.933 1133.12 327.786 1132.94 329.009C1132.22 333.963 1128.2 337.012 1128.2 337.012C1128.2 337.012 1155.17 348.617 1155.94 346.509C1156.7 344.401 1154.46 345.106 1151.15 339.307C1150.86 338.792 1143.96 332.72 1143.47 322.218C1143.05 313.221 1143.1 307.847 1141.77 302.964Z" fill="#F7A491"/>
<path id="Vector_86" d="M1127.64 337.517L1157.33 348.505C1158.47 348.833 1159.15 348.22 1159.02 347.64C1158.76 346.445 1154.22 342.132 1151.15 339.251C1143.99 337.295 1133.3 330.624 1132.94 328.967C1130.87 331.256 1127.09 337.185 1127.64 337.517Z" fill="#355389"/>
<path id="Vector_87" d="M1023.99 204.584C1023.44 210.135 992.898 206.016 992.898 206.016C991.732 205.859 990.969 213.845 990.957 214.296C990.833 219.08 988.064 229.69 1000.9 238.98C1008.36 244.377 1100.74 262.901 1102.79 263.605C1110.76 285.894 1119.9 302.684 1131.47 323.871C1131.47 323.871 1134.49 324.628 1138.38 324.552C1140.86 324.503 1145.9 323.968 1145.9 323.968C1145.9 323.968 1134.46 252.202 1125.29 241.898C1121.38 237.516 1072.53 228.695 1043.09 217.393C1029.64 212.231 1023.99 204.519 1023.99 204.584Z" fill="#F47458"/>
<path id="Vector_88" d="M968.574 115.468C956.233 118.172 947.928 127.016 949.031 136.95C942.653 139.499 937.599 144.164 935.518 149.493C931.415 160.006 935.021 174.902 949.225 175.564C958.257 180.431 974.422 182.008 982.393 176.179C994.926 179.344 1005.82 170.249 1006.81 157.724C1016.26 154.04 1022.96 146.18 1022.69 137.848C1022.62 135.848 1022.36 132.787 1022.57 132.298C1022.35 132.916 1037.21 120.035 1018.18 106.772C998.772 93.2384 972.624 99.7914 968.574 115.468Z" fill="#13375B"/>
<path id="Vector_89" d="M1026.65 175.093C1031.99 174.29 1039 169.391 1040.85 162.748C1040.9 162.577 1021.46 145.894 1015.81 143.615C1015.3 143.41 1014.62 143.149 1014.07 143.177C1017.04 150.123 1013.04 159.231 1014.92 166.519C1015.06 166.211 1025.97 175.194 1026.65 175.093Z" fill="#355389"/>
<path id="Vector_90" d="M994.412 143.665C994.412 143.665 983.694 145.361 979.561 147.059C969.992 150.99 979.439 171.751 980.289 173.537C981.783 176.677 995.354 198.681 991.014 212.579C991.014 212.579 1010.84 216.314 1025.53 212.444C1025.53 212.444 1026.86 179.105 1027.42 177.598C1027.97 176.092 1031.48 171.139 1027.47 164.034C1027.18 163.516 1019.39 149.155 1014.07 143.177C1003.87 143.15 994.412 143.665 994.412 143.665Z" fill="#466EB6"/>
<path id="Vector_91" d="M994.986 130.641C994.986 130.641 994.767 140.317 994.333 143.706C993.88 147.253 998.477 158.05 1007.68 159.065C1016.88 160.08 1007.79 146.897 1007.47 143.357C1007.15 139.816 1008.08 127.3 1008.08 127.3L994.986 130.641Z" fill="#F7A491"/>
<path id="Vector_92" d="M994.898 133.73C994.996 133.766 995.087 133.806 995.186 133.841C1000.44 135.701 1004.71 134.977 1007.72 132.929C1007.89 129.826 1008.08 127.3 1008.08 127.3L994.987 130.642C994.987 130.642 994.957 131.93 994.898 133.73Z" fill="#F47458"/>
<path id="Vector_93" d="M994.413 105.541C994.413 105.541 989.312 107.171 986.832 111.614C984.352 116.057 984.421 128.21 996.252 132.396C1008.08 136.583 1014.92 127.693 1013.57 120.031C1012.22 112.37 1008.22 102.423 994.413 105.541Z" fill="#F7A491"/>
<path id="Vector_94" d="M1015.6 116.522C1015.99 118.511 1015.14 120.269 1013.71 120.449C1012.28 120.629 1010.81 119.163 1010.42 117.175C1010.03 115.187 1010.88 113.429 1012.31 113.249C1013.74 113.069 1015.22 114.534 1015.6 116.522Z" fill="#F7A491"/>
<path id="Vector_95" d="M995.951 105.091C995.951 105.091 991.589 118.176 985.88 120.014C980.17 121.853 981.453 127.999 981.453 127.999C981.453 127.999 978.82 113.764 983.736 109.804C988.651 105.844 995.951 105.091 995.951 105.091Z" fill="#13375B"/>
<path id="Vector_96" d="M988.727 122.261C989.894 124.15 989.561 126.197 987.984 126.832C986.406 127.467 984.184 126.451 983.017 124.562C981.851 122.673 982.184 120.627 983.76 119.991C985.337 119.356 987.561 120.372 988.727 122.261Z" fill="#F7A491"/>
<g id="Group_11">
<g id="Group_12">
<g id="Group_13">
<path id="Vector_97" d="M567.877 660.374C563.24 659.986 558.759 659.593 554.434 659.187C515.508 655.569 489.451 651.348 480.457 646.789C480.563 646.777 480.621 646.771 480.621 646.771C480.621 646.771 480.556 646.771 480.428 646.771C477.264 646.792 436.082 646.769 435.173 633.466C434.558 624.429 453.645 628.215 454.205 628.326C453.459 628.014 409.022 609.487 416.856 596.286C421.075 589.185 463.09 604.317 463.625 604.509C463.396 604.258 452.267 592.082 464.189 588.809C476.235 585.504 509.696 600.068 526.63 609.173C532.89 612.539 537.366 617.631 545.458 628.145C554.384 639.735 562.941 652.676 567.877 660.374Z" fill="#50BFA5"/>
</g>
<path id="Vector_98" d="M480.457 646.789C480.563 646.777 480.621 646.771 480.621 646.771C480.621 646.771 480.556 646.771 480.428 646.771C477.264 646.792 427.08 644.512 426.17 631.21C425.556 622.172 441.328 623.648 441.888 623.759C441.142 623.447 409.022 609.487 416.856 596.286L499.886 634.251L554.434 659.187C515.508 655.57 489.451 651.348 480.457 646.789Z" fill="#3C8F7C"/>
</g>
<path id="Vector_99" d="M532.207 541.193C496.931 587.028 507.771 643.711 556.419 667.798C605.067 691.884 673.1 674.254 708.375 628.419C708.908 627.727 532.74 540.5 532.207 541.193Z" fill="#B75742"/>
<g id="Group_14">
<path id="Vector_100" d="M629.239 586.385L627.679 585.613L628.242 588.142L629.239 586.385Z" fill="#FFFC97"/>
<path id="Vector_101" d="M628.242 588.142L629.239 586.385L627.679 585.613L628.242 588.142Z" fill="#FFFFE9"/>
</g>
<g id="Group_15">
<path id="Vector_102" d="M633.891 592.941L649.63 663.701C671.566 656.778 690.592 644.081 703.745 627.528L633.891 592.941Z" fill="#F7CC7F"/>
<path id="Vector_103" d="M534.619 635.709C542.108 645.051 551.828 652.716 563.557 658.524C568.656 661.049 574.087 663.172 579.744 664.855L623.006 588.634L534.619 635.709Z" fill="#F7CC7F"/>
<path id="Vector_104" d="M519.066 585.045C517.699 600.659 521.558 616.175 530.093 629.432L613.121 585.21L519.066 585.045Z" fill="#F7CC7F"/>
<path id="Vector_105" d="M535.275 544.114C527.418 554.646 522.315 565.959 520.07 577.809L603.625 577.956L535.275 544.114Z" fill="#F7CC7F"/>
<path id="Vector_106" d="M588.412 667.05C605.378 670.625 623.384 670.299 640.996 666.09L626.344 600.218L588.412 667.05Z" fill="#F7CC7F"/>
</g>
<path id="Vector_107" d="M708.491 628.269C708.985 627.627 709.435 626.974 709.909 626.328L627.684 585.637L627.679 585.613C623.205 583.398 538.722 541.567 533.851 539.156C523.026 552.533 516.882 566.928 514.94 581.419C512.411 600.295 517.155 619.003 528.501 634.623C536.336 645.409 547.299 654.727 561.187 661.603C567.889 664.921 574.923 667.485 582.149 669.352C602.903 674.713 625.271 674.227 646.132 668.578C670.732 661.916 693.231 648.097 708.491 628.269ZM525.446 574.2C527.633 565.492 531.458 557.109 536.873 549.158L587.671 574.31L525.446 574.2ZM531.908 624.121C525.84 613.276 522.89 601.064 523.356 588.671L598.219 588.803L531.908 624.121ZM697.403 628.64C686.002 641.798 670.638 652.164 653.078 658.596L640.105 600.271L697.403 628.64ZM565.926 655.444C556.037 650.548 547.65 644.261 540.909 636.702L612.367 598.643L577.419 660.217C573.436 658.855 569.591 657.259 565.926 655.444ZM594.805 664.519L624.447 612.295L635.833 663.481C622.079 666.294 608.154 666.644 594.805 664.519Z" fill="#FAE0B2"/>
</g>
<path id="Plate_4" d="M1366.52 623.263L1341.18 633.15C1359.98 636.283 1370.28 639.682 1370.28 643.234C1370.28 658.887 1170.31 671.577 923.626 671.577C683.021 671.577 486.854 659.504 477.338 644.385L420.905 635.992C403.226 641.039 393.645 646.439 393.645 652.052C393.645 680.085 632.482 702.811 927.103 702.811C1221.72 702.811 1460.56 680.085 1460.56 652.052C1460.56 641.361 1425.83 631.443 1366.52 623.263Z" fill="#9BC1F9"/>
<path id="Vector_108" d="M520.69 655.168C519.148 654.381 477.845 645.189 477.338 644.385L430.136 637.36C441.767 644.957 517.949 655.184 520.69 655.168Z" fill="#3C8F7C"/>
<path id="Vector_109" d="M1314.08 655.301C1314.08 665.59 1297.73 673.931 1277.56 673.931C1257.39 673.931 1241.04 665.59 1241.04 655.301C1241.04 645.012 1257.39 636.671 1277.56 636.671C1297.73 636.671 1314.08 645.012 1314.08 655.301Z" fill="#184655"/>
<g id="Group_16">
<path id="Vector_110" d="M1214.65 633.837C1214.65 633.837 1214.62 676.249 1165.64 686.863C1116.66 697.476 1036.11 673.982 1028.09 665.206C1021.52 658.015 1021.45 650.137 1022.51 641.657C1023.42 634.313 1025.74 638.627 1056.67 629.552C1087.61 620.476 1091.42 628.239 1121.35 614.387C1151.29 600.535 1213.39 605.213 1214.65 633.837Z" fill="#184655"/>
<path id="Vector_111" d="M1039.38 656.165C1032.76 654.377 1027.39 650.502 1024.27 645.485C1024.26 645.461 1024.24 645.438 1024.23 645.414C1020.07 638.832 1021.05 630.218 1051.98 621.142C1082.92 612.066 1089.18 615.389 1119.12 601.537C1149.06 587.685 1213.81 604.657 1215.07 633.28C1215.07 633.28 1215.07 635.428 1214.35 637.615C1206.18 650.304 1191.51 662.881 1165.19 667.947C1128.93 674.925 1077.1 666.338 1039.38 656.165Z" fill="#3C8F7C"/>
<path id="Vector_112" d="M1204.27 643.194C1209.55 637.328 1210.11 629.505 1205.45 623.307C1191.3 604.472 1144.47 594.415 1121.61 604.993C1102.26 613.947 1092.46 615.95 1080.07 618.488C1067.67 621.024 1017.49 629.337 1028.73 646.148C1034.79 655.223 1055.68 656.219 1066.72 658.532C1077.52 660.797 1088.45 662.694 1099.49 664.083C1110.45 665.462 1124.09 667.853 1135.17 666.489C1143.06 665.518 1181.41 668.579 1204.27 643.194Z" fill="#F7CC7F"/>
<path id="Vector_113" d="M1131.92 614.843C1109.73 617.831 1093.82 630.204 1096.38 642.479C1098.95 654.753 1119.03 662.28 1141.23 659.292C1163.42 656.304 1179.33 643.931 1176.76 631.656C1174.2 619.382 1154.12 611.854 1131.92 614.843Z" fill="#B75742"/>
</g>
<g id="LeftGirl">
<path id="Vector_114" d="M360.253 422.854C355.13 426.867 348.936 425.309 341.763 425.184C336.949 425.1 332.159 430.445 331.064 435.04C328.293 446.678 319.494 439.41 308.929 442.174C283.483 448.831 293.068 482.294 308.673 485.468C313.953 486.542 323.672 490.053 326.229 491.43C333.936 495.583 348.851 491.92 360.26 486.914C371.669 481.908 365.019 477.356 369.074 472.787C373.129 468.218 382.636 472.464 388.118 462.36C394.047 451.428 395.106 441.123 391.788 434.327C386.296 423.084 371.297 419.128 364.788 420.757C362.848 421.242 361.371 421.978 360.253 422.854Z" fill="#F47458"/>
<path id="Vector_115" d="M410.161 676.85C407.621 686.064 403.624 694.123 403.085 695.069C402.826 695.523 400.459 697.146 400.176 697.612C400.92 708.954 409.615 715.919 417.844 720.941C416.259 715.188 412.468 708.532 413.048 707.279C413.972 705.284 417.63 696.159 425.073 684.763C418.08 683.934 415.727 680.442 410.161 676.85Z" fill="#F7A491"/>
<path id="Vector_116" d="M378.374 542.143L334.532 568.853C334.532 568.853 356.24 585.604 364.384 591.83C372.529 598.057 416.051 624.216 416.76 625.642C417.286 626.7 409 666.094 404.335 680.656C408.969 684.456 419.174 688.179 425.218 689.408C436.885 665.9 451.608 626.816 451.608 621.424C451.608 615.299 378.374 542.143 378.374 542.143Z" fill="#B75742"/>
<path id="Vector_117" d="M255.388 595.43C256.821 596.55 266.34 611.42 269.961 619.381C275.263 616.704 278.468 613.513 284.392 611.712C279.719 606.288 270.606 593.237 269.856 590.131C268.079 582.761 265.993 581.675 265.993 581.675C265.993 581.675 235.192 590.033 233.14 592.375C231.088 594.717 249.629 590.926 255.388 595.43Z" fill="#F7A491"/>
<path id="Vector_118" d="M270.216 591.766C272.605 591.771 270.009 583.108 269.461 581.113C268.845 578.868 267.224 578.195 266.82 578.116C265.728 577.899 231.496 587.188 225.712 590.524C225.322 590.75 224.619 591.464 224.511 591.625C221.343 596.366 249.564 597.267 253.625 595.195C257.237 593.352 259.467 591.743 270.216 591.766Z" fill="#F47458"/>
<path id="Vector_119" d="M387.648 550.135C387.648 550.135 349.476 537.628 349.47 537.626C349.622 537.68 349.239 538.875 349.209 538.968C345.617 550.176 326.466 545.853 318.564 565.32C312.981 579.075 304.803 630.519 304.803 630.519C304.803 630.519 299.006 621.676 281.002 605.405C279.607 604.144 261.867 613.916 261.867 613.916C275.059 641.966 307.453 664.762 311.839 663.148C341.472 652.243 377.066 566.203 377.021 566.209C380.388 560.945 387.648 550.135 387.648 550.135Z" fill="#F47458"/>
<path id="Vector_120" d="M385.845 466.606C385.845 466.606 389.027 464.088 392.998 460.31C402.488 451.28 418.328 435.537 419.306 433.253C420.508 430.442 417.887 389.938 417.591 387.371C417.295 384.805 406.446 377.789 408.156 375.772C409.867 373.754 424.84 372.11 427.353 372.503C429.866 372.897 434.754 372.537 436.75 374.162C437.01 374.373 431.082 384.813 431.187 386.286C431.901 396.348 437.596 427.255 437.596 436.119C437.596 442.491 399.908 477.108 399.908 477.108L385.845 466.606Z" fill="#F7A491"/>
<path id="Vector_121" d="M427.353 372.503C424.84 372.11 409.867 373.755 408.156 375.772C407.643 376.377 408.261 377.432 409.384 378.682C414.125 379.001 419.102 379.679 424.026 379.679C427.661 379.679 431.188 379.15 434.69 378.455C435.836 376.016 436.874 374.262 436.75 374.161C434.754 372.537 429.866 372.897 427.353 372.503Z" fill="#F47257"/>
<path id="Vector_122" d="M323.974 472.757C323.974 472.757 275.958 473.716 265.416 474.41C254.874 475.104 216.622 472.55 215.14 472.413C213.658 472.275 203.859 458.965 202.231 460.394C200.602 461.822 207.683 466.994 205.494 468.335C203.303 469.677 179.777 466.672 180.089 468.067C180.673 470.678 194.399 470.346 194.385 471.605C194.371 472.866 180.019 470.899 179.046 472.99C178.073 475.083 192.852 473.843 193.442 474.777C194.031 475.71 179.734 477.419 181.197 479.366C181.992 480.422 193.865 477.601 193.806 479.041C193.749 480.481 185.086 483.758 186.149 484.906C187.211 486.053 192.947 481.385 197.974 481.327C203 481.269 206.599 479.165 214.622 480.931C222.645 482.696 249.992 491.541 267.11 490.891C284.228 490.24 322.056 488.885 322.056 488.885L323.974 472.757Z" fill="#F7A491"/>
<path id="Vector_123" d="M394.453 509.343C395.107 502.99 401.057 497.083 395.665 485.616C395.358 479.19 407.896 471.462 409.728 468.696C409.728 468.696 400.727 460.091 393.453 458.486C393.453 458.486 378.818 467.02 371.877 469.923C371.775 469.902 369.421 470.765 368.386 470.759C361.684 470.721 338.264 470.151 333.893 471.197L336.139 496.604C337.4 498.268 343.503 500.608 345.353 540.168C345.514 543.61 381.447 553.36 387.694 550.134C387.841 550.059 389.746 541.164 391.362 530.541C392.471 523.245 393.915 514.571 394.453 509.343Z" fill="#355389"/>
<path id="Vector_124" d="M346.09 471.871C341.77 470.216 310.212 470.27 310.212 470.27C310.212 470.27 307.515 488.227 311.044 492.424C311.044 492.424 337.324 495.264 336.529 497.103L346.09 471.871Z" fill="#355389"/>
<path id="Vector_125" d="M402.965 695.342C402.159 693.538 392.997 698.963 390.843 700.055C388.421 701.283 388.183 702.735 388.227 703.067C388.341 703.942 410.069 726.987 416.571 730.268C417.185 730.578 418.503 730.622 418.897 730.513C422.632 729.476 417.422 710.968 412.739 707.212C409.713 704.784 406.594 703.458 402.965 695.342Z" fill="#F47458"/>
<path id="Vector_126" d="M408.416 376.09C406.98 377.784 414.77 383.149 416.93 386.113L421.821 380.769C419.411 380.392 410.057 374.155 408.416 376.09Z" fill="#F7A491"/>
<path id="Vector_127" d="M364.499 455.957C364.499 455.957 361.784 465.45 359.459 468.75C357.135 472.049 358.91 485.524 367.993 488.79C377.076 492.056 371.64 473.632 372.647 469.947C373.654 466.263 379.222 455.727 379.222 455.727L364.499 455.957Z" fill="#F7A491"/>
<path id="Vector_128" d="M376.514 461.044C377.951 458.131 379.222 455.727 379.222 455.727L364.499 455.956C364.499 455.956 363.943 457.898 363.121 460.329C367.989 463.087 372.736 462.875 376.514 461.044Z" fill="#F47458"/>
<path id="Vector_129" d="M373.348 430.239C373.348 430.239 367.49 430.663 363.268 434.589C359.046 438.516 354.547 450.917 365.141 458.053C375.734 465.189 386.111 457.787 387.604 449.652C389.098 441.517 388.716 430.407 373.348 430.239Z" fill="#F7A491"/>
<path id="Vector_130" d="M390.673 447.382C389.362 449.244 387.202 450.257 385.85 449.644C384.498 449.031 384.464 447.025 385.776 445.163C387.087 443.301 389.247 442.289 390.599 442.901C391.951 443.514 391.985 445.52 390.673 447.382Z" fill="#F7A491"/>
<path id="Vector_131" d="M361.214 445.899C361.703 448.107 360.591 450.111 358.73 450.377C356.87 450.642 354.965 449.067 354.476 446.859C353.987 444.652 355.099 442.647 356.96 442.381C358.82 442.117 360.725 443.691 361.214 445.899Z" fill="#F7A491"/>
<g id="Group_17">
<path id="Vector_132" d="M425.088 378.761C467.724 378.761 502.287 360.906 502.287 338.88C502.287 316.855 467.724 299 425.088 299C382.452 299 347.889 316.855 347.889 338.88C347.889 360.906 382.452 378.761 425.088 378.761Z" fill="#FAE0B2"/>
<path id="Vector_133" d="M411.47 361.574C433.166 361.574 450.755 350.581 450.755 337.021C450.755 323.461 433.166 312.468 411.47 312.468C389.773 312.468 372.185 323.461 372.185 337.021C372.185 350.581 389.773 361.574 411.47 361.574Z" fill="#F7CC7F"/>
</g>
<path id="Vector_134" d="M408.416 376.09C406.98 377.784 414.77 383.149 416.93 386.113L421.821 380.769C419.411 380.392 410.057 374.155 408.416 376.09Z" fill="#F7A491"/>
</g>
<g id="Group_18">
<path id="Vector_135" d="M607.122 336.776C604.041 345.124 590.72 349.323 577.368 346.152C564.016 342.982 555.69 333.645 558.771 325.296C561.852 316.948 575.174 312.75 588.525 315.919C601.877 319.089 610.204 328.427 607.122 336.776Z" fill="#3C8F7C"/>
<path id="Vector_136" d="M604.8 335.002C604.8 337.501 602.274 339.526 599.159 339.526C596.044 339.526 593.518 337.501 593.518 335.002C593.518 332.503 596.044 330.478 599.159 330.478C602.274 330.478 604.8 332.503 604.8 335.002Z" fill="#184655"/>
</g>
<g id="Group_19">
<path id="Vector_137" d="M1236.1 377.341C1244.76 382.597 1244.96 394.076 1236.55 402.98C1228.15 411.885 1214.32 414.843 1205.66 409.587C1197.01 404.332 1196.81 392.852 1205.21 383.948C1213.62 375.044 1227.45 372.086 1236.1 377.341Z" fill="#3C8F7C"/>
<path id="Vector_138" d="M1233.21 378.459C1236.13 379.34 1237.6 381.949 1236.5 384.288C1235.4 386.626 1232.15 387.808 1229.23 386.927C1226.32 386.046 1224.85 383.437 1225.94 381.098C1227.04 378.76 1230.3 377.578 1233.21 378.459Z" fill="#184655"/>
</g>
<path id="Vector_139" d="M1279.42 333.729C1279.42 336.629 1276 338.98 1271.79 338.98C1267.57 338.98 1264.15 336.629 1264.15 333.729C1264.15 330.83 1267.57 328.48 1271.79 328.48C1276 328.48 1279.42 330.83 1279.42 333.729Z" fill="#184655"/>
<path id="Vector_140" d="M1063.76 454.255C1063.76 457.155 1060.34 459.505 1056.13 459.505C1051.91 459.505 1048.49 457.155 1048.49 454.255C1048.49 451.356 1051.91 449.006 1056.13 449.006C1060.34 449.006 1063.76 451.356 1063.76 454.255Z" fill="#184655"/>
<path id="Vector_141" d="M668.385 561.298C668.385 565.165 664.478 568.298 659.658 568.298C654.838 568.298 650.931 565.164 650.931 561.298C650.931 557.433 654.838 554.299 659.658 554.299C664.478 554.298 668.385 557.433 668.385 561.298Z" fill="#184655"/>
<g id="Group_20">
<g id="Group_21">
<path id="Vector_142" d="M695.564 426.409C700.58 423.186 702.885 416.068 703.16 411.654C703.518 405.916 701.411 399.965 697.226 394.898C693.068 389.862 687.101 385.996 680.424 384.012C675.281 382.483 669.358 381.943 663.942 383.182C661.514 383.737 658.337 384.614 657.059 386.415C655.588 388.486 656.05 391.224 657.639 393.149C660.11 396.141 664.86 397.108 668.248 395.308C668.257 395.304 668.265 395.299 668.273 395.294L685.364 416.23C685.346 416.239 685.328 416.247 685.311 416.257C681.922 418.057 681.179 421.941 683.65 424.934C685.474 427.142 689.053 428.59 692.347 427.794C693.524 427.509 694.595 427.032 695.564 426.409Z" fill="#F7CC7F"/>
<path id="Vector_143" d="M684.684 424.384C682.597 421.857 683.182 418.588 685.985 417.091C686.006 417.081 686.022 417.073 686.039 417.064C686.316 416.92 686.509 416.693 686.577 416.435C686.645 416.176 686.582 415.906 686.401 415.685C686.401 415.685 669.308 394.746 669.307 394.744C669.121 394.519 668.829 394.364 668.498 394.315C668.167 394.266 667.825 394.327 667.551 394.485C664.739 395.97 660.759 395.126 658.673 392.599C657.224 390.844 657.003 388.503 658.137 386.907C659.162 385.464 661.959 384.669 664.282 384.138C669.02 383.055 674.6 383.341 679.993 384.944C686.425 386.856 692.179 390.586 696.192 395.446C700.232 400.338 702.266 406.076 701.922 411.604C701.675 415.559 699.572 422.559 694.789 425.632C693.909 426.198 692.967 426.605 691.99 426.841C689.102 427.539 686.128 426.133 684.684 424.384Z" fill="#FAE0B2"/>
</g>
<path id="Vector_144" d="M654.348 427.708C647.389 424.731 643.559 420.092 642.856 413.791C652.132 406.861 662.557 401.323 674.131 397.176C681.089 400.154 684.92 404.793 685.623 411.094C676.347 418.024 665.922 423.562 654.348 427.708Z" fill="#FAE0B2"/>
<path id="Vector_145" d="M676.869 401.289C676.869 401.289 668.107 388.889 667.388 389.182C664.846 390.219 676.869 401.289 676.869 401.289Z" fill="#F7CC7F"/>
<path id="Vector_146" d="M677.894 401.215C677.894 401.215 674.443 387.234 673.646 387.331C670.826 387.673 677.894 401.215 677.894 401.215Z" fill="#F7CC7F"/>
<path id="Vector_147" d="M679.077 401.492C679.077 401.492 682.246 387.468 681.459 387.323C678.679 386.814 679.077 401.492 679.077 401.492Z" fill="#F7CC7F"/>
<path id="Vector_148" d="M680.195 402.293C680.195 402.293 691.074 391.024 690.459 390.605C688.287 389.124 680.195 402.293 680.195 402.293Z" fill="#F7CC7F"/>
<path id="Vector_149" d="M680.65 403.118C680.65 403.118 695.42 395.194 695.002 394.64C693.526 392.683 680.65 403.118 680.65 403.118Z" fill="#F7CC7F"/>
<path id="Vector_150" d="M681.388 406.577C681.388 406.577 693.729 416.831 693.175 417.301C691.216 418.963 681.388 406.577 681.388 406.577Z" fill="#F7CC7F"/>
<path id="Vector_151" d="M681.78 405.641C681.78 405.641 697.944 411.56 697.643 412.16C696.578 414.281 681.78 405.641 681.78 405.641Z" fill="#F7CC7F"/>
<path id="Vector_152" d="M681.598 404.447C681.598 404.447 699.344 403.715 699.422 404.36C699.698 406.635 681.598 404.447 681.598 404.447Z" fill="#F7CC7F"/>
<path id="Vector_153" d="M681.014 403.676C681.014 403.676 697.557 398.473 697.886 399.064C699.045 401.154 681.014 403.676 681.014 403.676Z" fill="#F7CC7F"/>
</g>
<g id="Group_22">
<g id="Group_23">
<path id="Vector_154" d="M1410.18 652.437C1418.24 650.218 1425.1 642.164 1427.91 636.754C1431.56 629.721 1432.26 621.536 1429.87 613.707C1427.5 605.927 1422.21 598.956 1414.99 594.078C1409.42 590.321 1402.33 587.518 1394.88 587.115C1391.54 586.935 1387.08 586.887 1384.48 588.675C1381.49 590.731 1380.53 594.315 1381.44 597.287C1382.85 601.911 1388.24 604.825 1393.48 603.798C1393.49 603.795 1393.5 603.792 1393.51 603.789L1403.14 636.064C1403.11 636.069 1403.09 636.072 1403.06 636.077C1397.82 637.105 1394.72 641.686 1396.14 646.31C1397.18 649.722 1400.83 652.816 1405.39 653.007C1407.02 653.077 1408.62 652.866 1410.18 652.437Z" fill="#F7CC7F"/>
<path id="Vector_155" d="M1397.73 645.997C1396.54 642.093 1399.1 638.223 1403.43 637.363C1403.47 637.358 1403.49 637.353 1403.52 637.349C1403.94 637.268 1404.31 637.055 1404.54 636.757C1404.77 636.458 1404.84 636.098 1404.74 635.757C1404.74 635.757 1395.11 603.478 1395.11 603.476C1395.01 603.128 1394.73 602.829 1394.34 602.649C1393.96 602.469 1393.49 602.423 1393.06 602.52C1388.72 603.363 1384.23 600.878 1383.04 596.974C1382.21 594.262 1383.24 591.261 1385.55 589.677C1387.64 588.244 1391.57 588.259 1394.77 588.431C1401.29 588.783 1408.09 591.147 1413.93 595.088C1420.89 599.787 1425.98 606.511 1428.27 614.021C1430.58 621.579 1429.91 629.472 1426.39 636.247C1423.87 641.095 1417.33 649.074 1409.65 651.189C1408.23 651.579 1406.83 651.748 1405.48 651.691C1401.48 651.523 1398.56 648.699 1397.73 645.997Z" fill="#FAE0B2"/>
</g>
<path id="Vector_156" d="M1358.02 639.236C1354.89 636.472 1352.73 633.521 1351.52 630.382C1348.97 623.788 1353.61 616.796 1361.75 614.539C1374.02 611.133 1386.7 609.035 1399.77 608.246C1406.79 614.464 1408.98 621.632 1406.34 629.748C1390.88 635.061 1374.78 638.223 1358.02 639.236Z" fill="#FAE0B2"/>
<path id="Vector_157" d="M1400.89 614.363C1400.89 614.363 1396.89 595.736 1395.83 595.844C1392.07 596.223 1400.89 614.363 1400.89 614.363Z" fill="#F7CC7F"/>
<path id="Vector_158" d="M1402.21 614.64C1402.21 614.64 1405.72 595.95 1404.67 595.784C1400.96 595.196 1402.21 614.64 1402.21 614.64Z" fill="#F7CC7F"/>
<path id="Vector_159" d="M1403.53 615.409C1403.53 615.409 1415.33 599.047 1414.43 598.584C1411.24 596.948 1403.53 615.409 1403.53 615.409Z" fill="#F7CC7F"/>
<path id="Vector_160" d="M1404.48 616.812C1404.48 616.812 1424.36 606.661 1423.82 605.917C1421.94 603.287 1404.48 616.812 1404.48 616.812Z" fill="#F7CC7F"/>
<path id="Vector_161" d="M1404.59 618.005C1404.59 618.005 1427.45 613.427 1427.24 612.586C1426.49 609.613 1404.59 618.005 1404.59 618.005Z" fill="#F7CC7F"/>
<path id="Vector_162" d="M1403.57 622.588C1403.57 622.588 1413.24 639.824 1412.29 640.211C1408.92 641.58 1403.57 622.588 1403.57 622.588Z" fill="#F7CC7F"/>
<path id="Vector_163" d="M1404.59 621.56C1404.59 621.56 1421.45 634.761 1420.74 635.402C1418.23 637.666 1404.59 621.56 1404.59 621.56Z" fill="#F7CC7F"/>
<path id="Vector_164" d="M1405.03 620.005C1405.03 620.005 1427.58 625.474 1427.32 626.306C1426.39 629.246 1405.03 620.005 1405.03 620.005Z" fill="#F7CC7F"/>
<path id="Vector_165" d="M1404.73 618.832C1404.73 618.832 1428.28 618.289 1428.36 619.145C1428.64 622.169 1404.73 618.832 1404.73 618.832Z" fill="#F7CC7F"/>
</g>
<g id="Group_24">
<g id="Group_25">
<path id="Vector_166" d="M1186.24 431.884C1176.79 427.871 1160.24 428.696 1151.4 431.101C1139.75 433.989 1130.38 439.996 1125.43 446.882C1120.44 453.751 1119.94 460.912 1122.59 466.829C1124.63 471.417 1128.6 475.655 1133.91 478.527C1136.31 479.812 1139.47 481.47 1142.47 481.268C1145.92 481.027 1149.09 479.099 1150.76 476.795C1153.35 473.24 1152.18 468.946 1147.39 467.402C1147.38 467.398 1147.37 467.394 1147.35 467.391C1153.89 458.918 1162.11 450.862 1171.89 443.589C1171.92 443.599 1171.95 443.612 1171.97 443.624C1177.24 445.839 1184.67 445.519 1189.33 442.834C1192.73 440.84 1194.08 437.411 1190.78 434.531C1189.6 433.509 1188.06 432.624 1186.24 431.884Z" fill="#F7CC7F"/>
<path id="Vector_167" d="M1187.78 442.002C1183.86 444.308 1177.55 444.626 1173.16 442.764C1173.13 442.749 1173.1 442.738 1173.07 442.727C1172.65 442.539 1172.11 442.452 1171.58 442.485C1171.06 442.519 1170.59 442.67 1170.28 442.903C1170.29 442.876 1162.87 448.422 1156.89 454.485C1150.67 460.466 1145.9 466.965 1145.9 466.936C1145.69 467.213 1145.66 467.528 1145.8 467.807C1145.94 468.087 1146.25 468.308 1146.64 468.422C1150.58 469.684 1151.59 473.28 1149.43 476.308C1147.93 478.421 1145.1 479.97 1142.41 480.16C1139.97 480.322 1137.16 478.852 1134.87 477.605C1130.24 475.052 1126.31 471.171 1124.23 466.343C1121.76 460.613 1122.35 453.718 1127.21 447.139C1132.05 440.544 1141.07 434.833 1152.22 432.097C1160.08 429.961 1176.09 428.957 1185.06 432.736C1186.71 433.399 1188.04 434.169 1189.02 435.007C1191.92 437.502 1190.46 440.396 1187.78 442.002Z" fill="#FAE0B2"/>
</g>
<path id="Vector_168" d="M1194.49 464.195C1190.73 470.484 1184.78 474.266 1177.07 476.698C1167.34 471.299 1157 466.311 1145.79 461.494C1146.57 454.934 1151.53 448.982 1161.38 444.92C1176.55 447.743 1187.85 454.902 1194.49 464.195Z" fill="#FAE0B2"/>
<path id="Vector_169" d="M1151.06 457.328C1150.55 457.168 1137.96 471.458 1139.34 471.907C1141.98 472.983 1150.62 457.263 1151.06 457.328Z" fill="#F7CC7F"/>
<path id="Vector_170" d="M1150.28 456.574C1149.76 456.233 1131.14 467.991 1132.4 468.768C1134.37 470.231 1149.71 456.344 1150.28 456.574Z" fill="#F7CC7F"/>
<path id="Vector_171" d="M1149.95 455.503C1149.97 455.498 1143.69 456.853 1137.78 458.808C1131.81 460.68 1126.22 463.152 1126.44 463.462C1127.19 464.587 1132.64 462.175 1138.37 459.941C1144.02 457.633 1149.95 455.502 1149.95 455.503Z" fill="#F7CC7F"/>
<path id="Vector_172" d="M1150.53 454.184C1150.55 454.191 1144.09 453.611 1137.48 453.732C1130.9 453.755 1124.16 454.478 1124.11 454.857C1123.87 456.183 1130.45 455.426 1137.12 454.977C1143.78 454.427 1150.53 454.184 1150.53 454.184Z" fill="#F7CC7F"/>
<path id="Vector_173" d="M1151.6 453.372C1151.61 453.383 1145.91 451.54 1139.76 450.286C1133.66 448.953 1127.13 448.209 1126.85 448.581C1125.85 449.868 1132.31 450.517 1138.72 451.439C1145.18 452.267 1151.6 453.369 1151.6 453.372Z" fill="#F7CC7F"/>
<path id="Vector_174" d="M1156.98 450.972C1156.61 450.882 1167.67 436.184 1169.31 436.592C1173.31 437.47 1156.47 450.763 1156.98 450.972Z" fill="#F7CC7F"/>
<path id="Vector_175" d="M1155.13 451.135C1155.09 451.137 1154.95 435.251 1156.38 435.186C1161.08 434.987 1154.88 451.12 1155.13 451.135Z" fill="#F7CC7F"/>
<path id="Vector_176" d="M1153.21 451.907C1153.59 451.755 1139.56 438.713 1140.33 438.377C1144.63 436.586 1153.46 451.861 1153.21 451.907Z" fill="#F7CC7F"/>
<path id="Vector_177" d="M1152.3 452.782C1152.75 452.426 1131.71 443.506 1132.03 443.203C1135.22 440.538 1152.76 452.55 1152.3 452.782Z" fill="#F7CC7F"/>
</g>
<path id="Vector_178" d="M1181.27 262.694C1181.27 266.448 1178 269.491 1173.97 269.491C1169.95 269.491 1166.68 266.448 1166.68 262.694C1166.68 258.94 1173.86 246.357 1173.86 246.357C1173.86 246.357 1181.27 258.94 1181.27 262.694Z" fill="#F7CC7F"/>
<path id="Vector_179" d="M1191.31 359.833C1191.31 362.38 1189.09 364.445 1186.36 364.445C1183.63 364.445 1181.41 362.38 1181.41 359.833C1181.41 357.285 1186.28 348.746 1186.28 348.746C1186.28 348.746 1191.31 357.285 1191.31 359.833Z" fill="#F7CC7F"/>
<g id="Group_26">
<path id="Vector_180" d="M1108.63 188.041L1020.04 237.306C1016.39 239.337 1011.46 239.068 1008.2 236.643C1008.15 236.61 1008.11 236.576 1008.06 236.542C1004.32 233.731 1000.12 229.714 996.262 225.23C992.398 220.746 989.195 216.18 987.241 212.372C987.213 212.319 987.186 212.265 987.16 212.213C985.49 208.917 986.904 205.135 990.549 203.109L1079.16 153.833C1084.61 150.8 1092.12 151.898 1095.9 156.282L1095.9 156.283C1096.88 157.414 1098.87 157.592 1100.13 156.661L1117.25 144.011L1133.49 162.854L1112.72 171.277C1111.19 171.895 1110.7 173.457 1111.67 174.586C1111.68 174.597 1111.68 174.598 1111.67 174.589C1115.45 178.973 1114.08 185.008 1108.63 188.041Z" fill="#3C8F7C"/>
<path id="Vector_181" d="M1125.38 153.429C1120.47 147.734 1118.68 143.7 1118.66 142.416C1120.15 142.881 1124.22 145.651 1129.12 151.345C1134.03 157.04 1135.82 161.074 1135.84 162.358C1134.35 161.892 1130.28 159.123 1125.38 153.429Z" fill="#3C8F7C"/>
<g id="Group_27">
<path id="Vector_182" d="M1111.67 174.589L1111.67 174.59C1111.68 174.596 1111.68 174.597 1111.67 174.589Z" fill="#F7CC7F"/>
<path id="Vector_183" d="M1111.67 174.59C1111.67 174.589 1111.67 174.588 1111.67 174.586C1110.7 173.457 1111.19 171.896 1112.72 171.277L1133.49 162.854L1131.27 160.277C1121.8 161.544 1106.58 168.204 1106.46 172.355C1106.33 177.08 1102.5 188.6 1081.14 188.083C1061.18 187.6 1029.61 184.081 1025.59 183.625L990.548 203.109C986.903 205.136 985.489 208.918 987.16 212.213C987.186 212.266 987.214 212.319 987.241 212.373C989.194 216.18 992.398 220.747 996.261 225.231C1000.12 229.714 1004.32 233.731 1008.06 236.542C1008.11 236.576 1008.15 236.61 1008.2 236.644C1011.46 239.069 1016.39 239.338 1020.04 237.306L1108.63 188.042C1114.08 185.008 1115.45 178.974 1111.67 174.59Z" fill="#F7CC7F"/>
</g>
<g id="Group_28">
<path id="Vector_184" d="M1082.74 203.609C1082.83 203.558 1082.9 203.482 1082.95 203.391L1082.41 203.689C1082.54 203.682 1082.65 203.659 1082.74 203.609Z" fill="#899DAD"/>
<path id="Vector_185" d="M1051.89 167.805C1051.79 167.861 1051.72 167.946 1051.66 168.053L1052.26 167.721C1052.12 167.723 1051.99 167.748 1051.89 167.805Z" fill="#899DAD"/>
<path id="Vector_186" d="M1030.92 224.008C1029.01 225.067 1022.2 219.805 1015.69 212.255C1009.19 204.704 1005.46 197.725 1007.36 196.666C1009.27 195.607 1016.08 200.869 1022.59 208.42C1029.09 215.97 1032.82 222.949 1030.92 224.008Z" fill="#EBECED"/>
<path id="Vector_187" d="M1078.81 177.777C1071.94 169.794 1066.67 163.152 1067.04 162.941L1005.1 197.388C1003.2 198.447 1007.23 205.777 1014.11 213.76C1020.98 221.742 1028.1 227.355 1030.01 226.296L1091.95 191.85C1091.57 192.06 1085.69 185.76 1078.81 177.777Z" fill="#FAE0B2"/>
<path id="Vector_188" d="M1130.32 150.678C1125.05 144.558 1119.26 140.437 1117.4 141.474C1115.53 142.511 1118.3 148.313 1123.57 154.433C1128.84 160.553 1134.63 164.674 1136.49 163.637C1138.36 162.6 1135.6 156.798 1130.32 150.678ZM1125.38 153.429C1120.47 147.734 1118.68 143.7 1118.66 142.416C1120.15 142.881 1124.22 145.651 1129.12 151.345C1134.03 157.04 1135.82 161.074 1135.84 162.358C1134.35 161.892 1130.28 159.123 1125.38 153.429Z" fill="#184655"/>
<path id="Vector_189" d="M1112.92 144.599C1112.82 144.811 1113.54 155.587 1127.8 164.882C1128.72 165.482 1129.97 165.66 1131.09 165.368C1133.12 164.844 1136.2 163.99 1136.72 163.513C1137.5 162.791 1133.8 162.354 1133.8 162.354L1128.38 157.923L1121.74 149.806L1118.16 143.53L1117.62 141.35C1117.62 141.35 1114.29 141.789 1112.92 144.599Z" fill="#184655"/>
</g>
<path id="Vector_190" d="M1158.76 190.649C1151.88 178.346 1143.32 160.517 1134.82 160.083C1134.23 160.053 1133.59 160.063 1132.9 160.11L1135.1 163.183C1137.54 167.215 1139.45 169.774 1142.28 176.557C1145.1 183.336 1145.87 190.518 1145 197.631C1144.76 199.558 1145.11 201.614 1146.74 203.382C1151.42 208.433 1165.64 202.951 1158.76 190.649Z" fill="#F7CC7F"/>
</g>
<g id="Group_29">
<path id="Vector_191" d="M590.813 585.434C579.165 603.343 594.032 623.545 594.065 623.717C599.65 631.662 608.707 638.532 621.707 643.211C625.455 644.531 629.278 645.563 633.347 646.223L634.976 640.188C631.633 640.404 621.772 638.545 614.455 634.765C608.063 631.618 602.506 627.194 598.72 621.818C591.881 612.458 589.578 598.915 596.042 588.793C594.462 587.443 592.652 586.291 590.813 585.434Z" fill="#184655"/>
<path id="Vector_192" d="M913.177 636.261C913.177 607.464 875.548 584.12 829.131 584.12C795.369 584.12 766.275 596.475 752.91 614.29C683.562 616.697 630.027 632.289 630.027 651.18C630.027 660 640.925 666.192 649.493 670.028C665.326 677.116 683.562 680.819 701.253 683.488C723.268 686.811 745.547 688.959 767.894 690.165C789.354 691.324 811.281 692.23 832.739 690.785C849.866 689.633 866.845 686.321 881.876 679.474C894.366 673.784 904.558 665.239 909.479 654.292C912.072 648.521 913.177 642.381 913.177 636.261Z" fill="#355389"/>
<path id="Vector_193" d="M666.925 639.32C666.925 639.32 762.452 632.983 771.602 630.392C780.752 627.801 778.451 610.882 814.119 605.037C849.786 599.192 871.454 608.728 875.77 623.802C880.085 638.875 854.773 651.18 845.568 641.028C836.364 630.877 833.679 619.257 812.968 621.375C792.258 623.494 776.533 637.823 776.533 637.823L666.925 639.32Z" fill="#466EB6"/>
<path id="Vector_194" d="M672.966 636.821L666.592 639.459C665.738 639.812 665.591 640.743 666.309 641.255L671.092 644.675C671.882 645.24 671.609 646.279 670.603 646.542L664.443 648.144C663.364 648.424 663.153 649.576 664.087 650.093L672.53 654.773L672.875 654.957L662.599 659.641C661.769 660.019 661.663 660.944 662.394 661.437L668.909 665.831C669.681 666.352 669.511 667.34 668.593 667.674L659.626 670.93C659.044 671.142 658.721 671.648 658.849 672.151L659.829 676.015C660.02 676.765 659.218 677.443 658.276 677.321C628.206 673.412 621.521 654.818 621.119 653.616C621.106 653.575 621.096 653.537 621.087 653.496C620.568 650.861 620.48 648.426 620.754 646.209C623.307 625.381 657.725 622.007 670.705 621.476C672.108 621.419 672.698 622.889 671.516 623.499L670.134 624.212C669.158 624.717 669.357 625.905 670.465 626.186C671.503 626.446 671.766 627.527 670.926 628.082L667.908 630.079C667.225 630.53 667.247 631.375 667.953 631.803L673.165 634.968C673.969 635.456 673.862 636.45 672.966 636.821Z" fill="#3C8F7C"/>
</g>
<g id="Group_30">
<g id="Group_31">
<g id="Group_32">
<path id="Vector_195" d="M1011.12 702.904C1012.56 704.073 1012.17 703.42 1013.54 704.57C979.898 720.221 960.888 726.084 954.411 717.515C950.368 715.933 958.594 705.531 963.38 703.122C976.442 696.548 1000.78 701.63 1011.12 702.904Z" fill="#F47458"/>
<g id="Group_33">
<path id="Vector_196" d="M978.015 635.126C982.552 648.061 983.452 654.861 975.127 666.368C975.284 666.409 975.436 666.434 975.608 666.455C979.561 667.25 983.543 667.431 987.644 666.831C988.697 666.668 992.863 666.92 994.908 666.688C994.908 666.688 994.911 666.705 994.928 666.685C995.42 666.635 995.779 666.556 995.963 666.44C1007.39 658.665 1008.71 649.566 1007.79 637.557C1007.84 635.413 990.485 630.831 978.015 635.126Z" fill="#F47458"/>
<path id="Vector_197" d="M978.586 634.961C970.031 631.708 956.078 637.795 949.395 641.068C958.023 649.001 959.386 656.237 956.426 666.557C960.146 667.155 972.889 668.712 975.608 666.456C975.698 666.39 975.768 666.327 975.834 666.248C984.529 657.949 985.85 650.522 984.69 645.007C983.54 639.388 979.487 635.153 978.586 634.961Z" fill="#F47458"/>
<path id="Vector_198" d="M1027.84 645.302C1020 635.802 1007.28 637.089 1007.07 637.342C1006.95 637.347 1006.84 637.348 1006.72 637.368C1007.97 653.445 1003.47 658.322 993.979 666.289C994.282 666.424 994.585 666.558 994.907 666.689C994.907 666.689 994.911 666.705 994.928 666.685C997.891 667.916 1004.45 669.672 1007.38 668.529C1013.35 666.29 1017.43 663.717 1020.51 660.569C1024.02 656.951 1028.89 647.95 1028.29 646.088C1028.21 645.831 1028.07 645.568 1027.84 645.302Z" fill="#F47458"/>
<path id="Vector_199" d="M1047.16 679.899C1045.72 697.808 1029.15 700.031 1014.88 704.351C1013.83 704.664 1012.79 704.792 1011.86 704.748C1009.8 704.644 1008.41 703.681 1009.33 701.901C1012.17 696.446 1016.79 690.535 1016.81 682.451C1016.83 682.431 1016.82 682.415 1016.82 682.398C1027.42 685.358 1036.56 683.292 1047.16 679.899Z" fill="#F47458"/>
<path id="Vector_200" d="M1028.3 646.052C1028.31 646.068 1028.29 646.071 1028.29 646.088C1022.33 659.686 1021.3 660.392 1005.81 667.698C1006.84 670.187 1012.17 677.276 1015.13 676.771C1018.87 675.979 1022.4 675.087 1025.73 673.96C1035.6 670.584 1041.98 665.091 1042.33 664.243L1042.35 664.24C1043.27 662.386 1038.07 651.358 1028.3 646.052Z" fill="#F47458"/>
<path id="Vector_201" d="M1042.35 664.24L1042.33 664.244C1030.88 673.05 1030.92 671.404 1015.48 675.443C1014.93 675.589 1014.6 676.084 1014.48 676.78C1014.1 678.766 1015.34 682.224 1017.51 682.754C1029.82 686.125 1043.91 684.875 1046.96 681.506C1050.79 677.385 1047.05 667.967 1042.35 664.24Z" fill="#F47458"/>
<path id="Vector_202" d="M1012.05 703.188C1000.13 701.985 979.383 698.639 967.371 702.992C965.413 703.701 962.522 705.064 960.583 705.943C955.504 703.681 961.078 692.828 981.768 694.596C989.588 695.265 1004.98 701.136 1012.05 703.188Z" fill="#B75742"/>
<path id="Vector_203" d="M914.769 678.982C903.559 685.164 899.232 689.442 881.226 689.423C907.051 685.935 903.646 677.209 913.129 678.877C913.573 678.956 914.059 678.94 914.769 678.982Z" fill="#B75742"/>
<path id="Vector_204" d="M900.492 693.845C907.974 691.047 914.666 688.719 920.225 681.325C922.616 678.145 924.34 678.873 927.466 678.611C921.271 686.511 912.403 691.923 900.492 693.845Z" fill="#B75742"/>
<path id="Vector_205" d="M982.318 679.085C983.895 675.285 990.158 669.614 994.463 667.103C995.164 667.466 997.562 668.694 998.32 669.087C993.35 670.914 985.418 675.852 982.318 679.085Z" fill="#B75742"/>
<path id="Vector_206" d="M979.733 667.628C977.687 671.242 974.737 677.822 975.382 681.432C973.238 679.429 975.06 670.681 976.781 666.929C977.485 667.055 978.937 667.486 979.733 667.628Z" fill="#B75742"/>
<path id="Vector_207" d="M987.901 666.503C984.888 669.382 978.903 677.225 977.882 680.613C976.9 678.226 978.737 674.725 980.154 672.338C982.843 666.699 985.538 666.213 987.901 666.503Z" fill="#B75742"/>
<path id="Vector_208" d="M1031.61 680.554C1026.37 678.06 1025.76 675.031 1027.78 672.232L1027.8 672.228C1028.53 671.216 1029.39 670.584 1029.39 670.584C1018.05 668.065 1029.01 660.531 1019.44 659.761C1011.2 659.293 1008.4 643.164 1007.6 637.203C1007.6 637.102 1007.58 637.054 1007.58 637.054C1007.58 637.054 1007.57 637.106 1007.53 637.214C1007.47 637.391 1007.33 637.7 1007.17 638.097C1005.93 640.974 1001.8 648.936 993.961 650.266C989.952 650.946 985.925 648.426 982.591 645.252C978.143 640.969 974.765 635.217 974.74 635.18C973.501 645.686 962.749 652.972 954.199 657.158L953.768 669.216C956.226 673.589 967.847 674.099 971.986 672.228C980.131 673.34 983.556 672.105 987.989 672.033C989.633 671.995 991.938 672.201 993.808 672.033C997.244 673.155 998.653 671.72 1002.54 671.45C1004.16 673.758 1009.98 676.057 1013.23 677.09C1013.17 678.919 1014.07 681.176 1015.91 682.383C1015.91 690.028 1011.46 695.407 1008.24 701.524C1007.17 703.314 1008.68 704.249 1010.95 704.316C1020.42 699.348 1040.34 684.702 1031.61 680.554Z" fill="#B75742"/>
<path id="Vector_209" d="M960.119 668.057C930.564 693.878 838.931 672.038 838.314 671.781C839.489 671.182 889.349 652.412 894.298 651.305C896.63 661.732 917.043 655.28 910.802 646.855C923.659 643.947 935.497 641.386 951.254 640.285C951.782 640.246 952.491 640.437 952.786 640.699C965.091 652.104 963.483 665.733 960.119 668.057Z" fill="#F47458"/>
</g>
<path id="Vector_210" d="M913.428 650.586C914.615 655.812 910.708 660.886 904.702 661.919C898.696 662.952 892.865 659.552 891.678 654.327C890.491 649.101 894.397 644.028 900.404 642.995C906.41 641.961 912.241 645.361 913.428 650.586Z" fill="#184655"/>
</g>
</g>
<path id="Vector_211" d="M811.461 671.821C823.239 662.467 841.398 651.763 856.346 656.763C865.174 659.647 870.372 668.056 870.34 668.019C871.12 669.131 872.789 669.482 874.067 668.803C875.364 668.114 875.787 666.602 874.888 665.453C867.885 656.591 859.023 651.02 846.621 652.062C830.463 653.44 813.081 666.525 802.919 677.345C802.278 678.027 803.43 678.886 804.107 678.232C804.107 678.232 808.851 673.905 811.461 671.821Z" fill="#F47458"/>
</g>
<g id="Group_34">
<path id="Vector_212" d="M1396.27 440.916L1396.61 441.223C1397.36 441.865 1397.61 442.816 1397.23 443.66C1397.23 443.66 1397.22 443.673 1397.23 443.687C1396.89 444.413 1396.98 445.225 1397.51 445.87L1397.77 446.213C1398.3 446.859 1399.18 447.256 1400.13 447.324C1400.15 447.312 1400.17 447.326 1400.18 447.314C1401.29 447.376 1402.25 447.962 1402.67 448.788L1402.88 449.168C1403.32 449.982 1403.17 450.942 1402.43 451.624L1402.41 451.636C1401.79 452.231 1401.52 453.026 1401.73 453.777L1401.86 454.166C1402.07 454.917 1402.72 455.555 1403.59 455.858C1403.62 455.859 1403.62 455.859 1403.64 455.873C1404.67 456.237 1405.32 457.047 1405.38 457.936L1405.4 458.347C1405.45 459.237 1404.9 460.086 1403.92 460.533C1403.91 460.545 1403.91 460.545 1403.89 460.558C1403.06 460.931 1402.48 461.594 1402.35 462.369L1402.29 462.764C1402.17 463.526 1402.53 464.297 1403.21 464.831C1403.23 464.844 1403.23 464.844 1403.25 464.858C1404.03 465.475 1404.31 466.428 1403.97 467.273L1403.83 467.651C1403.51 468.51 1402.62 469.172 1401.52 469.309C1401.5 469.321 1401.5 469.321 1401.47 469.32C1400.52 469.45 1399.69 469.916 1399.27 470.599L1399.03 470.972C1398.6 471.655 1398.59 472.462 1399.03 473.157C1399.02 473.183 1399.02 473.183 1399.04 473.197C1399.53 474 1399.38 474.959 1398.7 475.671L1398.4 475.988C1397.72 476.699 1396.61 477.073 1395.51 476.906L1395.48 476.904C1394.53 476.756 1393.56 476.978 1392.85 477.489L1392.48 477.777C1391.77 478.314 1391.42 479.067 1391.53 479.84L1391.53 479.867C1391.65 480.759 1391.11 481.622 1390.15 482.109L1389.74 482.329C1388.8 482.803 1387.59 482.843 1386.63 482.403C1386.62 482.389 1386.62 482.389 1386.6 482.375C1385.77 481.994 1384.75 481.922 1383.87 482.227L1383.42 482.379C1382.5 482.682 1381.88 483.303 1381.63 484.06L1381.63 484.087C1381.36 484.962 1380.49 485.611 1379.4 485.815L1378.9 485.898C1377.81 486.101 1376.68 485.812 1375.96 485.119C1375.95 485.105 1375.95 485.105 1375.93 485.091C1375.31 484.508 1374.4 484.163 1373.44 484.199L1372.92 484.216C1371.96 484.253 1371.08 484.664 1370.55 485.316L1370.54 485.328C1369.91 486.081 1368.79 486.455 1367.69 486.34L1367.2 486.292C1366.09 486.189 1365.14 485.591 1364.75 484.74L1364.73 484.726C1364.42 483.997 1363.7 483.409 1362.78 483.196L1362.29 483.068C1361.38 482.842 1360.38 482.983 1359.61 483.439C1359.59 483.451 1359.57 483.464 1359.57 483.464C1358.66 483.993 1357.45 484.031 1356.48 483.631L1356.03 483.452C1355.03 483.037 1354.38 482.227 1354.39 481.314C1354.39 481.314 1354.39 481.314 1354.39 481.287C1354.4 480.533 1353.97 479.786 1353.19 479.314L1352.8 479.072C1352.02 478.6 1351.02 478.463 1350.1 478.673C1350.08 478.685 1350.08 478.686 1350.07 478.698C1348.99 478.942 1347.83 478.652 1347.08 478.01L1346.74 477.703C1346.36 477.369 1346.09 476.96 1345.99 476.531L1350.23 473.49L1389.52 445.212L1395.87 440.65C1396.02 440.72 1396.16 440.819 1396.27 440.916Z" fill="#3C8F7C"/>
<path id="Vector_213" d="M1389.52 445.21C1398.5 453.261 1397.45 465.783 1387.15 473.177C1376.88 480.548 1361.29 480.019 1352.29 472.006L1389.52 445.21Z" fill="#50BFA5"/>
<path id="Vector_214" d="M1362.6 473.813C1361.86 474.728 1360.34 474.99 1359.2 474.398C1358.06 473.806 1357.73 472.584 1358.47 471.67C1359.21 470.755 1362.98 468.09 1364.12 468.682C1365.26 469.274 1363.34 472.899 1362.6 473.813Z" fill="#F7CC7F"/>
<path id="Vector_215" d="M1374.15 472.986C1374.58 474.02 1373.88 475.137 1372.59 475.482C1371.31 475.827 1369.91 475.268 1369.48 474.235C1369.05 473.201 1368.82 469.172 1370.1 468.828C1371.39 468.482 1373.72 471.952 1374.15 472.986Z" fill="#F7CC7F"/>
<path id="Vector_216" d="M1384.16 467.633C1385.27 468.259 1385.54 469.489 1384.76 470.381C1383.98 471.272 1382.44 471.488 1381.33 470.862C1380.22 470.235 1377.04 467.11 1377.82 466.218C1378.6 465.326 1383.04 467.007 1384.16 467.633Z" fill="#F7CC7F"/>
<path id="Vector_217" d="M1388.3 458.751C1389.63 458.961 1390.5 459.998 1390.24 461.067C1389.98 462.136 1388.68 462.832 1387.35 462.622C1386.02 462.412 1381.53 460.589 1381.79 459.52C1382.06 458.451 1386.97 458.54 1388.3 458.751Z" fill="#F7CC7F"/>
<path id="Vector_218" d="M1387.08 449.989C1388.36 449.64 1389.76 450.192 1390.19 451.224C1390.63 452.255 1389.94 453.376 1388.66 453.725C1387.37 454.075 1382.35 454.288 1381.91 453.256C1381.48 452.224 1385.79 450.339 1387.08 449.989Z" fill="#F7CC7F"/>
</g>
<path id="Vector_219" d="M1402.85 632.7C1406.22 644.305 1390.52 657.162 1367.77 661.418C1345.02 665.673 1323.84 659.715 1320.46 648.11C1317.09 636.506 1332.8 623.648 1355.55 619.393C1378.3 615.138 1399.48 621.095 1402.85 632.7Z" fill="#184655"/>
<path id="Vector_220" d="M1084.79 196.875C1083.72 196.198 1082.08 195.388 1081.6 194.493C1081.11 193.598 1088.22 195.015 1087.82 194.128C1087.43 193.242 1083.82 192.062 1082.49 192.062C1081.16 192.062 1075.12 191.93 1075.12 191.93L1058.27 188.249C1058.27 188.249 1023.89 180.669 1021.76 180.156L992.587 158.753L978.4 167.47C978.4 167.47 1010.17 191.094 1012.35 191.993C1014.18 192.749 1071.14 198.248 1071.14 198.248C1071.14 198.248 1077.22 203.39 1080.73 203.681C1084.25 203.973 1090.43 198.187 1090.43 198.187C1090.43 198.187 1085.86 197.552 1084.79 196.875Z" fill="#F8A492"/>
<path id="Vector_221" d="M992.093 151.664C989.046 148.285 984.711 145.728 979.182 146.996C975.755 147.782 973.02 150.074 971.899 152.759C970.565 155.953 971.712 160.989 973.877 163.718C978.792 169.916 985.168 175.226 991.395 180.627C998.049 176.64 1006.57 171.167 1008.17 166.966C1008.14 166.931 996.118 156.129 992.093 151.664Z" fill="#86B1F2"/>
<path id="Vector_222" d="M1104.31 192.694C1104.31 192.694 1103.59 189.201 1104.19 188.123C1104.8 187.045 1105.09 187.628 1105.25 188.061C1105.41 188.487 1105.69 190.008 1105.69 190.008C1105.69 190.008 1105.22 187.164 1105.58 186.311C1105.94 185.458 1106.86 185.344 1107.22 185.611C1107.58 185.878 1108.24 188.492 1108.24 188.492C1108.24 188.492 1106.93 184.425 1107.76 183.858C1108.59 183.291 1111.5 187.078 1110.87 188.959C1110.24 190.839 1104.31 192.694 1104.31 192.694Z" fill="#F8A492"/>
<g id="Group_35">
<path id="Vector_223" d="M1395.13 391.81C1386.21 399.824 1369.11 398.578 1355.07 391.059C1341.11 383.447 1333.25 371.206 1339.16 361.562C1344.99 351.968 1365.15 349.553 1382.18 358.78C1399.24 367.979 1404.02 383.867 1395.13 391.81Z" fill="#3C8F7C"/>
<path id="Vector_224" d="M1391.87 388.614C1384.88 395.88 1370.22 395.381 1357.9 389.095C1345.63 382.743 1338.65 372.177 1343.36 363.85C1348.02 355.565 1364.63 353.281 1379.23 360.68C1393.83 368.055 1398.85 381.398 1391.87 388.614Z" fill="#50BFA5"/>
<g id="Group_36">
<path id="Vector_225" d="M1353.81 381.977C1352.64 382.268 1351.11 381.766 1350.37 380.854C1349.64 379.942 1349.97 378.95 1351.15 378.642C1352.31 378.32 1357.28 378.21 1358.01 379.167C1358.74 380.106 1354.97 381.679 1353.81 381.977Z" fill="#96D9C9"/>
<path id="Vector_226" d="M1365.01 387.688C1364.78 388.591 1363.52 388.981 1362.2 388.576C1360.88 388.172 1359.97 387.126 1360.18 386.222C1360.39 385.32 1362.46 382.482 1363.82 382.888C1365.19 383.296 1365.25 386.787 1365.01 387.688Z" fill="#96D9C9"/>
<path id="Vector_227" d="M1376.9 389.447C1377.47 390.465 1376.93 391.403 1375.71 391.55C1374.5 391.696 1373.07 391.01 1372.5 390.01C1371.94 389.01 1371.03 385.282 1372.24 385.106C1373.47 384.924 1376.35 388.424 1376.9 389.447Z" fill="#96D9C9"/>
<path id="Vector_228" d="M1386.42 385.959C1387.45 386.874 1387.54 388.046 1386.63 388.567C1385.73 389.089 1384.19 388.777 1383.17 387.879C1382.17 386.973 1379.35 383.28 1380.21 382.735C1381.11 382.172 1385.41 385.031 1386.42 385.959Z" fill="#96D9C9"/>
<path id="Vector_229" d="M1389.62 377.781C1391.03 378.211 1392.09 379.366 1391.99 380.342C1391.88 381.319 1390.67 381.743 1389.28 381.309C1387.91 380.856 1383.02 378.428 1383.07 377.472C1383.13 376.49 1388.21 377.333 1389.62 377.781Z" fill="#96D9C9"/>
<path id="Vector_230" d="M1347.38 368.967C1345.94 368.828 1344.91 369.494 1345.06 370.44C1345.22 371.385 1346.49 372.258 1347.91 372.405C1349.32 372.537 1354.27 372.183 1354.15 371.235C1354.04 370.262 1348.82 369.088 1347.38 368.967Z" fill="#96D9C9"/>
<path id="Vector_231" d="M1352.88 362.963C1351.75 362.151 1350.04 361.948 1349.09 362.499C1348.15 363.052 1348.31 364.136 1349.43 364.931C1350.57 365.708 1355.46 368.07 1356.42 367.562C1357.4 367.034 1354.04 363.763 1352.88 362.963Z" fill="#96D9C9"/>
<path id="Vector_232" d="M1363.83 360.417C1363.5 359.421 1362.03 358.537 1360.55 358.458C1359.08 358.379 1358.18 359.123 1358.52 360.106C1358.89 361.085 1361.49 364.68 1362.92 364.787C1364.37 364.891 1364.17 361.413 1363.83 360.417Z" fill="#96D9C9"/>
<path id="Vector_233" d="M1376.82 363.752C1377.16 362.89 1376.26 361.725 1374.79 361.17C1373.32 360.615 1371.87 360.883 1371.55 361.749C1371.24 362.617 1371.52 366.23 1372.93 366.78C1374.36 367.331 1376.48 364.616 1376.82 363.752Z" fill="#96D9C9"/>
<path id="Vector_234" d="M1386.9 370.469C1387.93 370.046 1387.95 368.91 1386.91 367.938C1385.88 366.966 1384.18 366.542 1383.16 366.985C1382.13 367.426 1379.53 369.964 1380.56 370.905C1381.57 371.838 1385.86 370.886 1386.9 370.469Z" fill="#96D9C9"/>
</g>
</g>
</g>
</g>
</svg>
